<svg width="269" height="129" viewBox="0 0 269 129" fill="none" xmlns="http://www.w3.org/2000/svg">
<path d="M46.15 128.05C46 128.05 46 127.9 46 127.6C46 127.15 46 126.55 46.3 125.5C50.5 105.4 58.9 91 58.9 87.4C58.9 86.65 58.6 86.5 57.85 86.65C47.65 88.6 37.9 90.55 27.85 93.1C22.45 94.9 17.95 95.65 14.05 95.65C4.9 95.65 0.25 91.45 0.7 88C5.95 59.35 51.25 8.2 55.75 1.3C56.2 0.999992 56.95 0.849994 57.7 0.849994C60.55 0.849994 64.3 2.94999 64 4.44999C60.85 12.7 54.1 19.15 49 26.05C37.3 39.55 12.85 76.6 12.85 87.85C12.85 88.6 13 89.2 13.15 89.65C56.05 81.55 60.25 84.7 61.6 81.55C73.6 54.55 76.75 40.75 83.5 40.75C84.85 40.75 86.5 41.35 88.45 42.7C88.45 50.8 70.15 82 71.8 82.3C73.45 82.9 78.55 83.2 78.55 85.15C78.55 85.6 78.4 85.9 78.1 86.35C76.45 84.7 74.95 84.1 73.6 84.1C68.5 84.1 66.1 94 63.55 97.75C62.05 100.15 48.1 128.05 46.15 128.05ZM112.091 124.75C109.991 124.75 107.891 124.6 105.941 124C92.4414 120.4 89.1414 111.55 89.1414 99.85C89.5914 71.95 115.241 32.05 132.491 17.35C139.091 11.65 153.941 5.5 158.591 6.54999C171.941 8.8 177.641 26.35 177.641 38.65C177.641 66.55 142.391 124.75 112.091 124.75ZM108.041 119.95C111.791 119.95 116.441 117.55 121.391 114.85C146.741 98.95 169.691 56.8 169.541 29.8C169.541 22 165.491 8.35 156.641 8.35C154.991 8.35 153.191 8.95 151.091 9.99999C152.291 10.15 159.641 12.55 159.641 14.2C159.641 14.5 159.341 14.8 158.591 15.1C156.941 15.4 155.141 14.65 153.341 14.65C152.441 14.65 151.691 14.8 150.941 15.25C138.641 21.55 130.241 33.7 122.591 44.95C111.641 61.9 99.9414 85.45 99.9414 104.2C99.9414 105.55 99.9414 106.9 100.091 108.25C101.141 117.1 104.141 119.95 108.041 119.95ZM226.033 128.05C225.883 128.05 225.883 127.9 225.883 127.6C225.883 127.15 225.883 126.55 226.183 125.5C230.383 105.4 238.783 91 238.783 87.4C238.783 86.65 238.483 86.5 237.733 86.65C227.533 88.6 217.783 90.55 207.733 93.1C202.333 94.9 197.833 95.65 193.933 95.65C184.783 95.65 180.133 91.45 180.583 88C185.833 59.35 231.133 8.2 235.633 1.3C236.083 0.999992 236.833 0.849994 237.583 0.849994C240.433 0.849994 244.183 2.94999 243.883 4.44999C240.733 12.7 233.983 19.15 228.883 26.05C217.183 39.55 192.733 76.6 192.733 87.85C192.733 88.6 192.883 89.2 193.033 89.65C235.933 81.55 240.133 84.7 241.483 81.55C253.483 54.55 256.633 40.75 263.383 40.75C264.733 40.75 266.383 41.35 268.333 42.7C268.333 50.8 250.033 82 251.683 82.3C253.333 82.9 258.433 83.2 258.433 85.15C258.433 85.6 258.283 85.9 257.983 86.35C256.333 84.7 254.833 84.1 253.483 84.1C248.383 84.1 245.983 94 243.433 97.75C241.933 100.15 227.983 128.05 226.033 128.05Z" fill="#415064"/>
</svg>
