<svg width="101" height="100" viewBox="0 0 101 100" fill="none" xmlns="http://www.w3.org/2000/svg">
<path d="M49.7752 28.8642C36.0042 29.0638 24.8278 40.365 24.8029 54.1359C24.7779 62.2438 28.5699 69.4536 34.4575 74.0938C38.9231 77.6114 41.5176 83.025 41.5176 88.713V88.7629H58.7812V88.713C58.7812 82.9501 61.4755 77.5865 65.966 73.994C71.7788 69.3538 75.4959 62.2189 75.4959 54.1858C75.471 40.0905 63.9453 28.6646 49.7752 28.8642Z" fill="#EFEAE4"/>
<path d="M58.8067 90.9332H41.4434V92.929H58.8067V90.9332Z" fill="#EFEAE4"/>
<path d="M58.8067 94.3011H41.4434V96.2969H58.8067V94.3011Z" fill="#EFEAE4"/>
<path d="M58.8067 97.6691H41.4434V99.6649H58.8067V97.6691Z" fill="#EFEAE4"/>
<path d="M96.4533 29.2634C96.2288 28.8643 95.7049 28.7146 95.3057 28.9641L79.8383 37.8952C79.4392 38.1198 79.2895 38.6437 79.539 39.0428C79.7635 39.442 80.2874 39.5917 80.6865 39.3422L96.1539 30.411C96.5531 30.1865 96.6778 29.6626 96.4533 29.2634Z" fill="#EFEAE4"/>
<path d="M99.8707 61.9193L82.6321 57.3041C82.183 57.1793 81.709 57.4538 81.6093 57.9028C81.4845 58.3519 81.7589 58.8259 82.208 58.9257L99.4466 63.5409C99.8957 63.6657 100.37 63.3912 100.469 62.9422C100.594 62.4931 100.32 62.0441 99.8707 61.9193Z" fill="#EFEAE4"/>
<path d="M20.4372 37.8952L3.94699 31.1095C3.52288 30.9349 3.02393 31.1344 2.8493 31.5835C2.67467 32.0076 2.87425 32.5066 3.29836 32.6812L19.8135 39.4669C20.2376 39.6415 20.7366 39.4419 20.9112 38.9929C21.0858 38.5688 20.8863 38.0698 20.4372 37.8952Z" fill="#EFEAE4"/>
<path d="M19.0656 56.3811L1.27812 57.828C0.804115 57.853 0.454852 58.2771 0.504747 58.7261C0.554642 59.1752 0.9538 59.5494 1.4278 59.4995L19.2153 58.0525C19.6893 58.0276 20.0386 57.6035 19.9887 57.1544C19.9388 56.7054 19.5396 56.3312 19.0656 56.3811Z" fill="#EFEAE4"/>
<path d="M50.524 19.5338C50.998 19.5338 51.3722 19.1596 51.3722 18.6856V0.848211C51.3722 0.374211 50.998 0 50.524 0C50.05 0 49.6758 0.374211 49.6758 0.848211V18.6856C49.6758 19.1596 50.0749 19.5338 50.524 19.5338Z" fill="#EFEAE4"/>
<path d="M28.172 24.8475C28.3716 25.2716 28.8705 25.4463 29.2946 25.2467C29.7187 25.0471 29.8933 24.5482 29.6938 24.124L21.985 8.03298C21.7854 7.60888 21.2865 7.43424 20.8624 7.63382C20.4383 7.8334 20.2637 8.33235 20.4632 8.75646L28.172 24.8475Z" fill="#EFEAE4"/>
<path d="M78.5149 8.13285C78.0908 7.93327 77.5918 8.1079 77.3922 8.532L69.6585 24.6231C69.459 25.0472 69.6336 25.5461 70.0577 25.7457C70.4818 25.9453 70.9808 25.7707 71.1803 25.3465L78.914 9.25548C79.1136 8.83137 78.939 8.33243 78.5149 8.13285Z" fill="#EFEAE4"/>
</svg>
