<svg width="76" height="80" viewBox="0 0 76 80" fill="none" xmlns="http://www.w3.org/2000/svg">
<path d="M31.0263 31.352H71.9953C74.1164 31.352 75.8351 33.4731 75.8351 35.1918V76.1608C75.8351 78.2819 74.1163 80.0006 71.9953 80.0006H31.0263C28.9052 80.0006 27.1865 77.8795 27.1865 76.1608V35.1918C27.1865 33.0707 28.9053 31.352 31.0263 31.352Z" fill="#EFEAE4"/>
<path d="M31.0263 0H71.9953C74.1164 0 75.8351 2.1211 75.8351 3.8398V23.0308C75.8351 25.1519 74.1163 26.8706 71.9953 26.8706H31.0263C28.9052 26.8706 27.1865 24.7495 27.1865 23.0308V3.8398C27.1865 1.7187 28.9053 0 31.0263 0Z" fill="#EFEAE4"/>
<path d="M4.3398 0H18.8598C20.9809 0 22.6996 2.1211 22.6996 3.8398V49.4808C22.6996 51.6019 20.9808 53.3206 18.8598 53.3206H4.3398C2.2187 53.3206 0.5 51.1995 0.5 49.4808V3.8398C0.5 1.7187 2.2188 0 4.3398 0Z" fill="#EFEAE4"/>
<path d="M4.3398 57.801H18.8598C20.9809 57.801 22.6996 59.9221 22.6996 61.6408V76.1608C22.6996 78.2819 20.9808 80.0006 18.8598 80.0006H4.3398C2.2187 80.0006 0.5 77.8795 0.5 76.1608V61.6408C0.5 59.5197 2.2188 57.801 4.3398 57.801Z" fill="#EFEAE4"/>
</svg>
