<svg width="95" height="95" viewBox="0 0 95 95" fill="none" xmlns="http://www.w3.org/2000/svg">
<path d="M57.4357 94.199C60.4904 95.1131 63.7169 93.3709 64.631 90.3201L77.096 48.6871L37.541 88.2421L57.4357 94.199Z" fill="#EFEAE4"/>
<path d="M78.686 18.48L73.9907 23.1753L71.2641 20.4487L75.9594 15.7534L68.4672 8.26122C67.3422 7.13232 65.8617 6.56982 64.3813 6.56982C62.9009 6.56982 61.4204 7.13232 60.2954 8.26122L1.69043 66.8592C-0.563475 69.1131 -0.563475 72.7811 1.69043 75.035L19.4094 92.754C21.6633 95.0079 25.3313 95.0079 27.5852 92.754L86.1832 34.156C88.4371 31.9021 88.4371 28.2341 86.1832 25.9802L78.686 18.48Z" fill="#EFEAE4"/>
<path d="M75.96 15.758L91.718 0L94.4446 2.7266L78.6866 18.4846L75.96 15.758Z" fill="#EFEAE4"/>
</svg>
