<svg width="86" height="82" viewBox="0 0 86 82" fill="none" xmlns="http://www.w3.org/2000/svg">
<path d="M85.7001 10.9572L81.3251 52.2192C80.7665 57.3051 76.454 61.1489 71.3329 61.1137H10.5439C7.68064 61.1137 4.95014 59.9028 3.03224 57.7817C1.16894 55.7036 0.266639 52.934 0.551739 50.1567L4.92674 8.89474C5.48533 3.80494 9.79784 -0.0349599 14.9189 0.000240054H75.7079C78.5712 0.000240054 81.3017 1.21114 83.2196 3.33224C85.0829 5.41034 85.9852 8.17994 85.7001 10.9572ZM17.4191 77.6252H13.5207C12.3723 77.6252 11.4387 78.5549 11.4387 79.7072C11.4387 80.8596 12.3723 81.7892 13.5207 81.7892H17.4191C18.5675 81.7892 19.5011 80.8596 19.5011 79.7072C19.5011 78.5549 18.5675 77.6252 17.4191 77.6252ZM54.2511 65.2812H33.7511L34.5949 68.4062C34.9308 70.6874 34.2629 73.0039 32.7629 74.7578C31.177 76.582 28.8762 77.6289 26.4582 77.625C25.3098 77.625 24.3762 78.5547 24.3762 79.707C24.3762 80.8594 25.3098 81.789 26.4582 81.789H49.8022C51.5913 81.7929 53.2866 81.0117 54.4506 79.6562C55.5834 78.3203 56.0717 76.5585 55.7944 74.832L54.2511 65.2812Z" fill="#EFEAE4"/>
</svg>
