<svg width="122" height="38" viewBox="0 0 122 38" fill="none" xmlns="http://www.w3.org/2000/svg">
<path d="M12.1053 37.616C5.64925 37.616 0.89725 34.448 0.89725 27.464C0.89725 16.16 14.3373 0.799998 26.5293 0.799998C29.2173 0.799998 34.0173 1.832 34.0173 5.792C34.0173 7.52 32.9133 9.368 31.5933 11.312C30.8013 12.464 28.5213 15.224 27.6093 15.224C27.0813 15.224 26.5773 15.056 26.5773 14.816C26.5773 14.528 27.2013 14.408 29.0733 12.032C30.5133 10.208 32.4093 7.448 32.4093 5.048C32.4093 3.056 30.7533 1.64 27.3933 1.64C15.7293 1.64 2.43325 17.888 2.43325 28.64C2.43325 33.92 5.86525 36.824 11.1453 36.824C13.3533 36.824 15.5613 36.272 17.5293 35.336C23.5533 32.672 28.2573 28.592 33.4413 24.992C34.4973 24.224 35.5533 23.408 36.5133 22.496C36.5613 22.4 36.8013 22.424 36.6573 22.544C34.8093 24.824 32.2653 26.48 30.0333 28.4C25.3773 32.288 18.4653 37.616 12.1053 37.616ZM45.7167 28.568C45.2127 28.904 44.4447 28.784 44.0847 28.328C43.8927 28.088 43.9167 27.824 44.0367 27.56C45.1167 25.184 48.4527 19.592 48.4527 18.44C48.4527 18.152 48.2607 18.032 48.0447 18.032C45.4527 18.032 41.3247 20.144 39.9327 22.088C39.5967 22.568 39.5247 23.192 39.4767 23.648C39.3567 24.728 39.0927 25.712 38.4687 26.624C37.9407 27.368 37.3167 27.704 36.7167 27.704C36.5727 27.704 36.4287 27.704 36.2847 27.656C35.9007 27.56 35.5407 27.296 35.2527 26.936C35.0847 26.672 34.9887 26.336 34.9887 25.976C34.9887 25.76 35.0367 25.544 35.0847 25.352C35.3967 24.032 37.1967 21.56 38.4927 21.56C38.6847 21.56 38.8527 21.608 39.0207 21.728C40.8687 19.136 46.4127 17.48 47.9487 17.48C48.8607 17.48 49.7727 17.864 49.8207 18.824C49.8447 19.472 49.6527 20.12 49.4607 20.696C48.9087 22.304 47.6127 24.344 46.2207 26.984C50.0367 23.96 51.8367 22.352 52.9407 22.352C54.0207 22.352 54.4047 23.24 54.4767 24.464C54.5007 24.992 54.5967 25.544 54.7167 26.072C54.9087 26.96 55.1967 27.224 55.7247 27.224C57.3807 27.224 59.9967 25.712 61.5807 24.488C61.7727 24.344 61.9887 24.152 62.2047 23.984C62.2527 23.96 62.2767 23.936 62.3247 23.96C62.3967 24.008 62.3247 24.056 62.3247 24.08C62.2047 24.368 62.0127 24.608 61.8207 24.824C61.3887 25.328 60.8367 25.76 60.2847 26.144C58.8927 27.032 57.5967 27.92 56.2047 27.92C55.1247 27.92 53.3487 27.392 52.9887 26.024C52.8207 25.376 52.7247 24.44 52.7487 23.504C52.7727 23.216 52.7247 23 52.3407 23.216C50.4447 24.32 48.0447 26.6 46.3887 28.04C46.1727 28.232 45.9567 28.4 45.7167 28.568ZM36.6447 27.224C37.7247 27.224 38.8527 24.752 38.8047 23C37.5327 23.816 36.6207 25.088 36.3807 26.12C36.3327 26.288 36.1647 27.224 36.6447 27.224ZM72.2491 26.816C71.1211 26.768 70.0171 26.312 69.3691 25.376C68.8891 24.68 68.6251 23.888 68.4091 23.096C68.3371 22.808 68.2651 22.592 67.9291 22.808C67.4491 23.12 67.0411 23.48 66.6331 23.864C65.7451 24.704 64.8571 25.544 63.9691 26.36C63.8011 26.528 63.6331 26.672 63.4411 26.792C62.9611 27.128 62.2891 27.08 61.8571 26.648C61.6891 26.48 61.6411 26.264 61.6651 26.048C61.6651 25.712 61.7611 25.424 61.8811 25.112C62.3851 23.672 63.2731 22.16 63.9451 21.344C64.2811 20.936 65.2891 21.032 65.6011 21.32C65.7451 21.44 65.7691 21.56 65.6731 21.704C65.5531 21.896 65.4091 22.088 65.1211 22.52C64.2811 23.816 63.7291 24.776 63.2731 25.832C64.3051 24.92 66.4891 22.976 67.6891 22.064C68.4811 21.464 69.6331 21.992 69.9931 22.688C70.5931 23.84 70.5691 24.68 71.1691 25.712C71.4091 26.12 71.7691 26.216 72.2011 26.12C72.7051 26 73.1611 25.832 73.6411 25.616C75.1291 24.992 76.5211 24.152 77.8411 23.24C77.9611 23.144 78.1051 22.976 78.2251 23.072C78.2731 23.12 78.0811 23.288 77.9851 23.384C76.6891 24.728 75.1531 25.736 73.4971 26.528C73.0891 26.72 72.6811 26.84 72.2491 26.816ZM80.2411 29.048C78.2251 28.928 76.7131 27.608 76.7131 25.76C76.7131 24.512 77.3851 23.048 79.0411 21.56C79.9051 20.888 81.0811 20.192 82.2571 20.216C82.9531 20.24 83.8651 20.624 83.8651 21.344C83.8651 21.536 83.8171 21.752 83.6731 21.968C82.9531 23.096 80.5771 24.488 78.4891 25.136C78.3211 25.544 78.2251 26 78.2251 26.456C78.2251 27.56 78.8491 28.544 80.5051 28.424C82.4731 28.328 86.0971 25.952 90.0091 23.552C90.2011 23.432 90.5611 23.312 90.3691 23.504C89.9131 23.96 83.6251 29.12 80.2411 29.048ZM78.7771 24.344C80.0251 23.768 81.3211 23.168 82.3531 22.184C82.6411 21.92 82.9051 21.464 82.9051 21.152C82.9051 20.984 82.8091 20.888 82.6171 20.888C82.4251 20.888 82.1371 20.96 81.7291 21.2C80.4091 21.872 79.4971 23.024 78.7771 24.344ZM103.166 30.92C102.182 30.92 101.63 29.672 101.63 27.656C101.63 24.848 103.598 21.368 105.23 18.512C101.366 21.584 95.0056 27.44 91.2136 27.44C90.2296 27.44 89.2696 27.152 88.9096 26.264C88.8136 25.976 88.7656 25.64 88.7656 25.304C88.7656 23.12 91.0936 20.288 93.1336 20.288C93.5896 20.288 94.0696 20.384 94.5736 20.6C94.8856 20.672 95.2936 21.032 95.2936 21.392C95.2936 21.536 95.2216 21.656 95.0536 21.776C94.7656 21.896 94.5016 21.272 94.1896 21.2C92.5336 20.984 90.2056 24.104 90.2056 25.784C90.2056 26.384 90.3736 26.624 90.9496 26.624C93.3256 26.624 98.8696 22.904 100.526 21.512C102.374 20 104.486 18.536 106.19 16.88C106.406 16.568 107.078 15.608 108.014 14.36C104.222 14.696 100.382 15.224 95.6536 15.728C95.0536 15.8 94.1896 15.944 93.2536 15.848C93.0376 15.896 91.4536 15.44 91.4776 15.056C91.4776 14.984 91.5496 14.912 91.6696 14.864C92.0296 14.912 92.3896 14.936 92.7496 14.96C93.2536 14.984 93.7816 15.008 94.3096 14.96C99.6376 14.432 105.35 14.096 108.374 13.88C110.87 10.544 114.782 5.672 116.27 5.672C116.654 5.672 116.774 6.08 116.774 6.368C116.774 7.184 114.494 9.176 113.15 10.688C111.566 12.368 110.774 13.136 110.222 13.76C113.15 13.52 116.102 13.136 119.054 13.376C119.75 13.424 121.094 13.928 121.07 14.36C121.046 14.552 120.806 14.696 120.206 14.768C116.654 15.2 111.278 15.128 112.766 14.888C114.158 14.672 114.806 14.768 117.782 14.096C114.95 13.976 112.358 14.048 109.838 14.216L109.814 14.24C108.59 15.92 103.07 23.864 102.638 29.024C102.614 29.36 102.638 30.488 103.166 30.488C103.214 30.488 103.31 30.488 103.382 30.44C103.694 30.344 103.958 30.128 104.222 29.96C104.438 29.84 104.582 30.056 104.414 30.248C104.006 30.704 103.574 30.92 103.166 30.92Z" fill="#B0752A"/>
</svg>
