<svg width="105" height="72" viewBox="0 0 105 72" fill="none" xmlns="http://www.w3.org/2000/svg">
<path d="M61.7323 3.32C62.5003 2.744 63.4603 3.704 62.3083 4.376C59.5243 6.776 57.3163 8.984 54.8203 11.288C52.5163 13.88 50.3083 16.568 48.0043 19.256C46.5643 21.08 44.9323 23.096 43.5883 24.92C40.7083 28.568 38.0203 32.312 35.5243 35.96C33.1243 39.512 31.1083 42.968 29.0923 46.712C26.7883 50.648 28.2283 51.032 31.3963 48.056C36.9643 42.2 41.6683 35.384 46.7563 29.048C49.9243 25.208 53.2843 21.56 56.6443 17.816C62.4043 11.864 63.7483 10.808 71.3323 5.72C74.7883 3.41599 78.5323 2.168 82.2763 0.631996C83.4283 0.151997 83.2363 0.919998 82.6603 1.496C66.1483 15.992 52.9963 35.576 47.2363 57.08C45.7963 63.32 49.1562 69.656 55.4923 67.736C58.9483 66.296 60.9643 64.184 61.8283 60.536C62.0203 60.536 62.0203 60.536 62.1163 60.536C62.1163 60.92 62.1163 61.208 62.0203 61.496C61.2523 64.664 59.0443 66.68 56.1643 67.928C47.2363 71.096 43.4923 62.552 45.0283 55.448C50.1163 34.04 63.7483 14.552 80.3563 1.976C79.8763 2.07199 78.1483 2.84 77.6683 3.032C66.7243 7.832 58.6603 15.992 51.1723 24.728C48.4843 27.896 45.8923 31.352 43.2043 34.52C38.8843 39.608 33.5083 47.96 29.0923 50.552C24.1003 52.952 27.3643 43.832 28.9003 41.624C29.9563 39.608 31.1083 37.592 32.4523 35.576C33.9883 33.464 35.3323 31.256 36.8683 29.144C39.2683 26.264 41.3803 23.192 43.7803 20.504C46.7563 17.144 49.9243 13.784 53.0923 10.616C53.9563 9.752 54.7243 9.17599 55.4923 8.504C56.0683 8.12 58.4683 5.816 59.7163 4.856C59.0443 5.144 54.6283 7.544 53.9563 8.12C50.5002 10.424 47.0443 12.824 43.7803 15.416C29.5723 27.128 21.7003 43.544 8.74025 55.16C5.47625 58.424 0.19625 58.328 0.67625 53.528C0.86825 49.496 3.65225 46.04 6.62825 43.736C8.64425 42.488 8.54825 43.256 7.20425 44.696C4.99625 47.288 2.69225 50.168 1.63625 53.528C0.29225 58.04 5.57225 57.464 8.16425 55.064C11.6203 51.704 15.1723 48.344 17.9563 44.408C26.0203 34.52 33.3163 23.384 43.2043 14.936C46.2763 12.344 49.5403 10.04 53.0923 8.12C56.1643 6.488 58.7563 4.664 61.7323 3.32ZM80.1493 31.064C83.1253 31.352 80.2453 35.096 76.7893 35.288C72.7573 35.768 68.2452 47.384 71.6053 47.384C72.8533 47.48 73.5253 46.712 74.5813 45.944C77.8453 43.352 81.6853 41.816 85.6213 39.704C86.1013 39.416 86.5813 39.608 85.9093 39.992C81.7812 42.2 77.2693 44.12 73.9093 46.904C73.1413 47.576 72.1813 47.768 71.2213 47.672C68.1492 47.096 68.3412 42.392 69.3012 40.472C71.2213 36.536 74.9653 30.2 80.1493 31.064ZM79.9573 31.832C78.7093 32.12 77.7493 33.176 76.8853 34.136L76.3093 34.712C75.6373 35.384 78.7093 34.712 79.8613 33.656C80.6293 33.176 82.0693 31.448 79.9573 31.832ZM104.823 39.512V39.992C100.983 41.912 97.7188 46.424 94.0708 48.44C92.6308 49.208 91.2868 49.016 90.4228 47.96C88.7908 45.944 90.6148 41.24 91.9588 39.032C91.2868 39.128 89.4628 39.032 88.7908 39.416C88.1188 39.8 87.9268 40.28 87.4468 40.856C87.0628 41.24 86.7748 42.008 86.1028 42.584C85.9108 42.776 85.4307 43.16 84.9507 42.68C84.3747 42.488 84.4707 42.2 84.7587 41.624C85.1427 40.856 85.6227 39.8 86.1988 38.936C87.1588 37.4 88.5028 35.96 89.6548 34.808C90.1348 34.328 90.5188 34.904 90.9028 35.384C91.2868 35.96 89.4628 37.592 88.9828 38.936C90.2308 38.648 91.1908 38.936 92.2468 38.552C92.7268 38.36 93.2068 37.4 93.5908 36.824C94.4548 35.288 95.7028 34.04 96.9508 32.696C97.3348 32.216 98.7748 32.504 98.3907 33.176C96.6628 36.248 94.4548 39.128 92.8228 42.104C91.6708 44.408 89.5588 47.768 91.8628 48.536C94.0708 49.112 97.8148 45.08 99.2548 43.736C100.791 42.296 104.823 39.32 104.823 39.512Z" fill="#B0752A"/>
</svg>
