<svg width="32" height="33" viewBox="0 0 32 33" fill="none" xmlns="http://www.w3.org/2000/svg">
<path d="M10 23.5C11.1046 23.5 12 22.6046 12 21.5C12 20.3954 11.1046 19.5 10 19.5C8.89543 19.5 8 20.3954 8 21.5C8 22.6046 8.89543 23.5 10 23.5Z" fill="#415064"/>
<path d="M23 22.5C24.1046 22.5 25 21.6046 25 20.5C25 19.3954 24.1046 18.5 23 18.5C21.8954 18.5 21 19.3954 21 20.5C21 21.6046 21.8954 22.5 23 22.5Z" fill="#415064"/>
<path d="M13 12.5C14.1046 12.5 15 11.6046 15 10.5C15 9.39543 14.1046 8.5 13 8.5C11.8954 8.5 11 9.39543 11 10.5C11 11.6046 11.8954 12.5 13 12.5Z" fill="#415064"/>
<path d="M14 16.5C14.5523 16.5 15 16.0523 15 15.5C15 14.9477 14.5523 14.5 14 14.5C13.4477 14.5 13 14.9477 13 15.5C13 16.0523 13.4477 16.5 14 16.5Z" fill="#415064"/>
<path d="M23 7.5C24.1046 7.5 25 6.60457 25 5.5C25 4.39543 24.1046 3.5 23 3.5C21.8954 3.5 21 4.39543 21 5.5C21 6.60457 21.8954 7.5 23 7.5Z" fill="#415064"/>
<path d="M29 4.5C29.5523 4.5 30 4.05228 30 3.5C30 2.94772 29.5523 2.5 29 2.5C28.4477 2.5 28 2.94772 28 3.5C28 4.05228 28.4477 4.5 29 4.5Z" fill="#415064"/>
<path d="M16 24.5C16.5523 24.5 17 24.0523 17 23.5C17 22.9477 16.5523 22.5 16 22.5C15.4477 22.5 15 22.9477 15 23.5C15 24.0523 15.4477 24.5 16 24.5Z" fill="#415064"/>
<path d="M16 30.5C8.3 30.5 2 24.2 2 16.5C2 8.8 8.3 2.5 16 2.5H16.3L17.7 2.6L17.4 3.8C17.3 4.2 17.2 4.7 17.2 5.1C17.2 7.9 19.4 10.1 22.2 10.1C23.2 10.1 24.2 9.8 25.1 9.2L26.4 10.7C26 11.1 25.8 11.6 25.8 12.1C25.8 13.4 27.1 14.5 28.5 14L29.7 13.5L29.9 14.8C30 15.4 30 16 30 16.5C30 24.2 23.7 30.5 16 30.5ZM15.3 4.5C9 4.9 4 10.1 4 16.5C4 23.1 9.4 28.5 16 28.5C22.6 28.5 28 23.1 28 16.5V16.1C25.7 16.2 23.8 14.4 23.8 12.1V11.9C23.3 12 22.8 12.1 22.2 12.1C18.3 12.1 15.2 9 15.2 5.1C15.2 4.9 15.2 4.7 15.3 4.5Z" fill="#415064"/>
</svg>
