<svg width="159" height="5" viewBox="0 0 159 5" fill="none" xmlns="http://www.w3.org/2000/svg">
<path d="M155.731 2.48756C155.731 3.39245 156.422 4.12601 157.274 4.12601C158.126 4.12601 158.817 3.39245 158.817 2.48756C158.817 1.58268 158.126 0.849121 157.274 0.849121C156.422 0.849121 155.731 1.58268 155.731 2.48756Z" fill="#B0752A"/>
<path d="M124.644 2.48756C124.644 3.39245 125.335 4.12601 126.187 4.12601C127.039 4.12601 127.73 3.39245 127.73 2.48756C127.73 1.58268 127.039 0.849121 126.187 0.849121C125.335 0.849121 124.644 1.58268 124.644 2.48756Z" fill="#B0752A"/>
<path d="M93.5567 2.48756C93.5567 3.39245 94.2477 4.12601 95.1001 4.12601C95.9525 4.12601 96.6436 3.39245 96.6436 2.48756C96.6436 1.58268 95.9525 0.849121 95.1001 0.849121C94.2477 0.849121 93.5567 1.58268 93.5567 2.48756Z" fill="#B0752A"/>
<path d="M62.3711 2.48756C62.3711 3.39245 63.0842 4.126 63.9639 4.126C64.8435 4.126 65.5566 3.39245 65.5566 2.48756C65.5566 1.58267 64.8435 0.849121 63.9639 0.849121C63.0842 0.849121 62.3711 1.58267 62.3711 2.48756Z" fill="#B0752A"/>
<path d="M31.1855 2.48756C31.1855 3.39245 31.8986 4.126 32.7783 4.126C33.658 4.126 34.3711 3.39245 34.3711 2.48756C34.3711 1.58267 33.658 0.849121 32.7783 0.849121C31.8986 0.849121 31.1855 1.58267 31.1855 2.48756Z" fill="#B0752A"/>
<path d="M-2.36034e-05 2.48756C-2.36034e-05 3.39245 0.713088 4.126 1.59276 4.126C2.47243 4.126 3.18555 3.39245 3.18555 2.48756C3.18555 1.58267 2.47243 0.849121 1.59276 0.849121C0.713088 0.849121 -2.36034e-05 1.58267 -2.36034e-05 2.48756Z" fill="#B0752A"/>
</svg>
