<svg width="268" height="468" viewBox="0 0 268 468" fill="none" xmlns="http://www.w3.org/2000/svg">
<path d="M194.939 2.39534C194.939 3.28139 195.63 3.99967 196.482 3.99967C197.334 3.99967 198.025 3.28139 198.025 2.39534C198.025 1.5093 197.334 0.791016 196.482 0.791016C195.63 0.791016 194.939 1.5093 194.939 2.39534Z" fill="#B0752A"/>
<path d="M165.54 2.39534C165.54 3.28139 166.231 3.99967 167.084 3.99967C167.936 3.99967 168.627 3.28139 168.627 2.39534C168.627 1.5093 167.936 0.791016 167.084 0.791016C166.231 0.791016 165.54 1.5093 165.54 2.39534Z" fill="#B0752A"/>
<path d="M136.141 2.39534C136.141 3.28139 136.832 3.99967 137.684 3.99967C138.537 3.99967 139.228 3.28139 139.228 2.39534C139.228 1.5093 138.537 0.791016 137.684 0.791016C136.832 0.791016 136.141 1.5093 136.141 2.39534Z" fill="#B0752A"/>
<path d="M105.695 2.39534C105.695 3.28139 106.408 3.99967 107.288 3.99967C108.168 3.99967 108.881 3.28139 108.881 2.39534C108.881 1.5093 108.168 0.791016 107.288 0.791016C106.408 0.791016 105.695 1.5093 105.695 2.39534Z" fill="#B0752A"/>
<path d="M75.3476 2.39534C75.3476 3.28139 76.0607 3.99967 76.9404 3.99967C77.8201 3.99967 78.5332 3.28139 78.5332 2.39534C78.5332 1.5093 77.8201 0.791016 76.9404 0.791016C76.0607 0.791016 75.3476 1.5093 75.3476 2.39534Z" fill="#B0752A"/>
<path d="M45.001 2.39534C45.001 3.28139 45.7141 3.99967 46.5937 3.99967C47.4734 3.99967 48.1865 3.28139 48.1865 2.39534C48.1865 1.5093 47.4734 0.791016 46.5937 0.791016C45.7141 0.791016 45.001 1.5093 45.001 2.39534Z" fill="#B0752A"/>
<path d="M8.10407 142.587C6.91826 142.244 8.73757 136.759 8.96788 136.155C9.20437 135.453 10.2094 135.609 10.62 135.85C10.7318 135.927 10.7387 136.097 10.6257 136.411C9.75858 138.987 8.02871 141.649 8.10407 142.587ZM11.8804 141.89C10.6946 141.547 12.5139 136.062 12.7442 135.459C12.9807 134.756 13.9857 134.912 14.3963 135.154C14.5081 135.231 14.515 135.401 14.402 135.714C13.5349 138.29 11.805 140.952 11.8804 141.89ZM40.5991 167.319C40.1362 166.794 39.8118 165.829 39.6028 164.696C38.976 161.297 39.3196 156.28 39.3792 156.074C34.265 162.483 29.1174 166.728 24.0194 167.668C21.0692 168.212 18.1368 168.191 15.7226 165.952C14.6081 164.938 13.9972 163.61 13.723 162.123C11.6639 150.96 25.5845 130.503 38.4003 128.14C40.2412 127.8 42.0984 127.946 43.8136 128.776C45.8983 129.759 46.8831 131.261 47.1922 132.937C47.5056 134.636 47.1066 136.442 46.6263 138.337C46.3458 139.462 45.494 141.328 45.0674 141.529C44.6879 141.721 43.5605 141.562 43.4952 141.208C43.4386 140.902 44.0541 140.666 44.1373 140.455C44.9382 138.843 45.9101 135.248 45.4617 132.817C45.2615 131.731 44.7264 130.682 43.6486 129.734C42.3042 128.664 40.7818 128.481 39.224 128.769C29.0752 130.641 13.4034 149.541 15.5591 162.419C16.0734 165.473 19.1572 167.637 23.2472 167.054C27.9508 166.357 32.763 161.882 36.0889 157.949C37.8139 155.923 39.1345 153.556 40.4595 151.213L41.3548 149.584C41.1424 149.623 40.4368 149.899 39.8039 150.04C39.9815 149.812 40.3163 149.775 40.5455 149.562C29.8845 152.627 27.5508 155.058 26.4651 155.258C26.2055 155.306 25.6042 155.222 25.9489 154.841C27.5758 153.077 40.131 148.638 41.9694 148.152C42.2047 147.84 42.2164 147.375 42.9481 147.24C43.5145 147.135 43.8972 147.357 44.0221 147.505C46.5791 146.814 48.5479 146.109 50.2001 145.804C51.0733 145.643 51.7709 145.588 52.2262 145.675C52.6902 145.809 52.8815 145.92 52.8989 146.014C52.925 146.156 52.5325 146.277 52.0605 146.364C51.612 146.447 51.0884 146.519 50.8996 146.554C48.8227 146.937 44.8676 148.252 43.4522 148.782C41.3456 152.709 40.6438 156.182 40.3963 160.132C40.2576 162.159 40.1407 164.304 40.441 165.932C40.5237 166.381 40.5741 166.786 40.7854 167.138C41.0246 167.509 40.9414 167.719 40.5991 167.319ZM50.636 153.997C50.2863 154.086 49.4658 153.871 49.3308 153.14C49.3178 153.069 49.3004 152.975 49.3109 152.899C49.2518 149.933 50.41 146.156 51.0446 144.965C51.098 144.858 51.2309 144.785 51.3961 144.754C51.6793 144.702 52.0787 144.75 52.3688 144.868C52.6309 144.966 52.8422 145.317 52.5764 145.464C52.182 145.707 51.44 149.359 51.1952 151.869C52.8641 148.876 54.4592 146.41 55.9029 144.313C55.9991 144.174 56.2047 143.965 56.4643 143.917C57.6208 143.704 57.9782 144.98 58.3678 145.372C60.6069 147.985 62.0411 148.087 64.8465 147.154C64.455 143.444 66.6707 141.034 68.3464 140.725C69.6209 140.49 70.7602 141.109 71.0076 142.186C71.3527 143.66 68.9203 146.086 66.6925 147.107C66.9855 149.225 67.9993 149.428 68.8961 149.263C69.4626 149.158 69.9793 148.917 70.2302 148.821C73.0201 147.672 76.0524 144.795 78.2866 142.088C79.1448 141.052 78.1168 143.682 73.8163 147.623C72.1216 148.887 70.7863 149.719 69.5354 149.95C67.128 150.394 65.4762 149.113 64.9554 147.744C61.8133 148.836 58.8603 148.307 56.1453 145.098C55.0804 146.735 53.7591 148.833 52.7247 150.635C52.0771 151.755 51.2453 153.861 50.636 153.997ZM66.742 146.317C69.2436 144.928 70.1259 143.228 69.8821 141.906C69.795 141.434 69.4403 141.231 68.9919 141.314C68.0714 141.483 66.7698 142.895 66.742 146.317ZM100.393 144.82C98.6224 145.147 96.3818 144.511 95.8769 141.773C95.6984 140.805 96.068 138.443 96.5211 136.797C94.731 139.397 93.3425 141.264 92.3515 142.374C91.1636 143.74 90.2786 144.367 89.2873 144.55C88.6265 144.672 87.9544 144.601 87.1102 144.39C85.7033 144.04 85.0553 143.305 84.0258 141.957C83.9891 141.891 83.9568 141.848 83.735 141.572C81.5351 145.126 80.0672 146.958 79.2654 147.375C79.1325 147.448 78.9716 147.502 78.8064 147.533C77.886 147.702 76.5927 147.306 76.3739 146.517C76.0531 145.307 76.8315 143.309 78.343 141.712C79.2335 140.718 80.6806 139.963 81.7426 139.767C82.2147 139.68 82.6998 139.664 83.1166 139.807C83.1544 139.482 83.3258 139.353 83.5382 139.314C83.7742 139.27 84.0792 139.336 84.3563 139.383C84.614 139.457 84.7861 139.596 84.9092 139.866C85.5716 141.209 85.9687 142.038 86.8105 143.03C87.4349 143.769 88.1095 143.986 88.7468 143.869C89.1244 143.799 89.4995 143.583 89.8616 143.297C90.3093 142.946 90.849 142.432 91.4613 141.782C91.6432 141.577 91.8252 141.373 92.0543 141.16C93.6359 139.282 94.984 137.593 96.7755 135.53C97.2565 133.904 97.4465 133.478 97.6172 133.081C95.7875 133.614 93.782 134.252 92.656 134.63C91.7616 134.942 91.1418 135.154 90.7877 135.219C90.4101 135.289 90.0579 135.232 89.7355 135.071C89.6796 135.033 89.6473 134.99 89.6386 134.943C89.6212 134.849 89.7497 134.752 90.0286 134.676C92.8272 133.574 95.609 132.646 98.0865 131.921C98.526 130.863 98.9594 129.905 99.4058 129.017C101.817 124.228 103.475 121.97 104.289 122.015C104.671 121.969 104.83 122.037 104.86 122.203C104.886 122.344 104.85 122.546 104.772 122.78C104.612 123.371 104.234 124.1 103.749 125.043L103.424 125.665C103.187 126.099 102.64 127.103 101.76 128.681C100.967 130.071 100.531 130.884 100.371 131.206C101.742 130.831 103.078 130.536 104.282 130.314C106.855 129.84 108.786 129.727 108.847 130.058C108.856 130.105 108.822 130.185 108.736 130.249C108.335 130.592 107.13 130.936 105.119 131.282C105.177 131.198 105.286 131.129 105.443 131.052L105.865 130.827C103.598 131.368 102.1 131.717 99.8028 132.361C97.9125 136.931 97.2964 140.339 97.6273 142.133C97.7927 143.03 98.2409 144.534 99.657 144.273C99.9166 144.225 100.243 144.14 100.641 143.92C102.183 143.148 103.438 142.013 104.633 140.817C104.795 140.64 104.918 140.642 104.922 140.666C104.526 141.959 101.738 144.572 100.393 144.82ZM78.746 146.543C78.9584 146.504 79.1962 146.338 79.3825 146.157C80.8965 144.707 82.2737 142.647 83.4802 140.984C83.159 140.433 82.5428 140.401 82.118 140.479C81.2447 140.64 80.4076 141.526 79.6053 142.602C78.9422 143.505 78.4555 144.571 78.3202 145.426C78.2632 145.778 78.2595 146.023 78.29 146.188C78.3466 146.495 78.5335 146.582 78.746 146.543ZM115.907 141.959C115.6 142.015 115.28 142.001 114.999 141.931C114.369 141.827 114.014 141.356 113.888 140.672C113.592 139.067 114.617 136.291 116.393 134.938C116.865 134.583 117.291 134.382 117.693 134.308C118.33 134.19 118.977 134.388 119.913 134.704C120.485 133.964 120.875 133.038 121.41 132.231C122.048 131.064 122.883 130.032 123.414 128.811C123.74 127.531 124.046 126.278 124.427 125.037C124.611 124.051 128.11 114.839 130.211 114.452C130.518 114.395 130.784 114.517 131.023 114.888C131.326 115.735 129.347 120.224 128.202 122.217C127.299 124.068 125.998 125.748 125.333 127.701C124.954 128.82 124.114 132.733 124.571 135.211C124.801 136.462 125.362 137.384 126.474 137.325C127.321 137.291 129.493 135.963 131.96 133.726L131.973 133.797C131.512 134.737 129.123 137.398 127.093 137.772C124.568 138.238 123.216 136.73 122.846 134.724C122.663 133.733 122.713 132.552 122.944 131.289C120.752 134.622 119.363 138.466 116.775 141.506C116.527 141.747 116.237 141.898 115.907 141.959ZM125.829 125.095C127.544 121.826 129.52 118.777 130.26 115.248C129.751 115.269 127.517 120.489 126.828 122.178C126.495 123.02 126.152 123.938 125.829 125.095ZM115.608 141.135C116.428 140.813 118.405 137.642 119.332 135.787C119.495 135.611 118.692 134.831 118.085 135.114C116.786 135.744 115.035 139.215 115.608 141.135ZM144.711 138.11C143.806 138.229 143.333 138.047 143.268 137.693C143.124 136.914 145.474 135.236 146.487 134.244C146.156 133.109 145.514 132.276 144.909 131.509C140.673 136.195 137.771 137.926 135.576 138.331C133.168 138.775 131.853 137.334 131.518 135.516C131.204 133.817 131.757 131.787 133.115 130.682C133.75 130.151 134.397 129.69 135.152 129.55C135.624 129.463 136.118 129.494 136.638 129.667C137.012 129.842 137.201 130.075 137.258 130.382C137.306 130.642 137.235 130.923 137.118 131.213C136.415 132.563 134.766 133.282 133.422 133.799C133.282 134.361 133.149 138.144 135.462 137.717C138.767 137.108 142.87 132.495 144.375 130.997C144.192 130.665 144.073 130.418 144.025 130.159C143.782 128.837 144.967 127.325 145.91 126.883C146.133 126.768 146.384 126.673 146.62 126.63C146.998 126.56 147.368 126.711 147.429 127.042C147.572 127.821 146.864 128.879 145.889 130.206C146.131 130.991 147.069 131.843 147.749 133.279C150.458 131.291 154.461 128.649 156.098 127.737C156.63 127.444 156.449 127.916 156.007 128.169C153.742 129.782 149.694 132.31 147.912 134.03C148.385 136.066 147.022 137.806 144.711 138.11ZM133.656 132.95C134.743 132.627 136.58 131.337 136.266 130.297C136.199 130.065 136.11 129.984 135.874 130.027L135.851 130.031C134.576 130.267 133.729 132.156 133.656 132.95ZM144.582 137.28C145.404 137.104 146.2 136.127 146.301 135.352C145.719 135.899 144.828 136.625 144.582 137.28ZM156.65 125.756C156.327 125.986 156.138 126.021 156.266 125.656C156.59 124.766 156.901 123.147 156.9 121.951C156.919 121.655 156.968 121.524 157.288 121.538C157.73 121.554 158.332 121.907 158.383 122.581C158.454 123.227 157.522 125.058 156.65 125.756ZM157.423 133.52C156.286 133.706 154.452 133.288 154.432 131.461C154.427 130.242 154.755 129.107 155.36 128.02C155.592 127.562 156.625 127.469 156.984 127.696C157.147 127.787 157.169 127.906 157.124 128.06C157.017 128.275 156.934 128.486 156.847 128.673C156.486 129.496 156.224 130.325 156.093 131.203C156.04 131.579 156.039 131.97 156.156 132.339C156.331 132.892 156.617 132.986 157.179 132.858C158.417 132.556 162.955 129.108 164.912 127.283C165.036 127.162 165.156 127.018 165.285 126.921C165.366 126.833 165.383 126.659 165.561 126.699C165.504 126.783 165.474 126.886 165.392 126.974C165.007 127.534 164.53 127.988 164.057 128.465C162.558 129.865 161.001 131.348 159.368 132.552C158.764 132.98 158.16 133.409 157.423 133.52ZM162.086 152.672C161.945 152.698 161.803 152.725 161.653 152.704C160.388 152.595 159.929 151.826 159.75 150.858C159.376 148.828 160.837 145.899 161.914 144.065C163.222 141.896 164.754 139.88 166.43 137.985C167.963 136.238 169.588 134.596 171.209 132.93C171.658 130.602 172.206 128.28 171.991 125.66C169.915 128.166 167.231 131.345 165.367 131.689C165.107 131.737 164.843 131.761 164.566 131.715C163.961 131.607 163.219 131.158 163.097 130.497C163.001 129.978 163.443 128.798 163.836 128.018C165.056 125.768 167.548 123.404 169.905 123.214C171.323 123.098 172.886 123.762 172.903 124.784C172.929 124.925 172.857 125.061 172.812 125.216C172.816 125.239 173.228 125.749 173.319 126.245C173.611 127.826 173.385 129.381 173.155 130.912C173.656 130.453 174.191 129.915 174.688 129.433C176.748 127.369 178.868 125.368 181.057 123.475C181.104 123.466 181.119 123.415 181.143 123.411C181.237 123.393 181.297 123.187 181.385 123.268C181.413 123.287 181.413 123.287 181.417 123.311C181.43 123.382 181.298 123.455 181.235 123.515C179.874 124.865 178.507 126.191 177.174 127.559C175.73 128.997 174.371 130.492 172.956 131.949C172.153 136.197 170.699 140.224 168.857 144.127C168.022 145.818 165.084 152.12 162.37 152.62L162.086 152.672ZM165.088 131.106C165.354 130.959 165.596 130.817 165.834 130.651C166.976 129.831 168.049 128.9 169.026 127.842L170.982 125.748C171.188 125.539 171.389 125.307 171.636 125.188C171.835 125.078 171.944 125.009 171.811 124.814L171.763 124.555C171.575 123.931 171.076 123.608 170.509 123.712C169.306 123.934 167.352 125.783 166.589 126.803C165.863 127.766 165.269 128.779 164.946 129.937C164.861 130.27 164.799 130.598 164.813 130.937L164.826 131.008C164.852 131.15 164.932 131.184 165.088 131.106ZM161.774 152.169C164.305 151.604 166.717 145.229 167.501 143.523C168.85 140.516 170.04 137.441 170.86 134.215C169.92 135.34 168.901 136.431 167.981 137.528C166.237 139.582 164.497 141.66 163.092 143.97C161.919 145.943 160.473 148.821 160.865 150.945C160.961 151.465 161.207 152.273 161.774 152.169ZM189.575 126.151C188.457 126.308 187.288 126.06 186.481 125.257C185.883 124.659 185.48 123.928 185.124 123.189C185.001 122.919 184.891 122.719 184.599 122.993C184.184 123.387 183.848 123.815 183.516 124.266C182.795 125.253 182.075 126.24 181.349 127.204C181.215 127.4 181.075 127.572 180.908 127.725C180.497 128.142 179.828 128.217 179.325 127.87C179.129 127.736 179.043 127.532 179.027 127.315C178.966 126.985 179.008 126.684 179.07 126.355C179.304 124.848 179.903 123.2 180.416 122.276C180.672 121.813 181.681 121.725 182.04 121.952C182.203 122.043 182.249 122.157 182.181 122.316C182.097 122.527 181.991 122.742 181.786 123.219C181.195 124.646 180.826 125.69 180.569 126.811C181.419 125.727 183.214 123.419 184.228 122.305C184.898 121.571 186.127 121.881 186.607 122.5C187.406 123.524 187.535 124.355 188.312 125.261C188.622 125.619 188.994 125.648 189.401 125.475C189.875 125.265 190.293 125.017 190.726 124.718C192.076 123.834 193.293 122.756 194.425 121.62C194.526 121.503 194.637 121.312 194.772 121.385C194.828 121.423 194.67 121.623 194.593 121.735C193.562 123.292 192.235 124.562 190.75 125.641C190.383 125.904 190.004 126.096 189.575 126.151Z" fill="#415064"/>
<path d="M7.51997 220.89C7.37835 220.916 7.28762 220.689 7.15083 220.079C6.99847 219.253 7.65341 217.644 7.89126 217.478C7.97696 217.413 8.09497 217.391 8.21298 217.37C8.80303 217.261 9.6795 217.514 9.75534 217.793C9.72806 218.042 9.46661 218.212 9.31262 218.436C8.16755 219.77 7.77959 220.842 7.51997 220.89ZM17.2556 229.613C16.7128 229.713 16.1718 229.69 15.7226 229.505C15.4325 229.387 15.2797 229.22 15.2449 229.032C15.0446 227.946 17.2257 226.275 18.2907 225.566C18.1794 224.83 17.7159 224.037 17.0628 223.01C13.7871 226.421 10.9068 228.27 8.23539 228.738C7.09814 228.923 5.26386 228.505 5.24419 226.678C5.23895 225.459 5.23759 224.923 5.84233 223.835C6.07515 223.377 7.10745 223.284 7.46651 223.511C7.62989 223.603 7.65165 223.721 7.60697 223.875C7.50018 224.09 7.41699 224.301 7.32946 224.488C6.91537 225.418 6.59889 226.746 6.9215 227.833C7.02529 228.132 7.3328 228.343 7.89924 228.239C11.6861 227.467 15.1444 224.12 16.5415 222.301C16.2457 221.623 16.1188 220.67 16.826 219.344C17.6058 217.882 18.7007 217.07 19.4559 216.931C19.8808 216.853 20.2032 217.013 20.2728 217.391C20.3642 217.886 20.0148 218.902 19.0436 220.253C18.6928 220.733 18.3078 221.292 18.1731 221.487C18.2993 222.172 19.632 223.708 20.016 224.466C20.6973 223.926 22.9479 222.632 25.0192 221.689C25.7868 221.352 24.4665 222.133 24.0572 222.428C21.5029 224.192 21.0595 224.567 20.3249 225.215C20.8335 227.708 18.9549 229.299 17.2556 229.613ZM18.0077 220.59C19.1346 218.894 19.6275 217.729 19.4387 217.764C19.3443 217.781 19.1667 218.009 18.8202 218.513C18.5315 218.932 18.1069 219.938 18.0077 220.59ZM16.4678 228.782C17.2783 228.412 18.4408 227.173 18.4344 226.345C17.4463 226.942 15.807 228.904 16.4678 228.782ZM34.9209 223.621C34.4724 223.704 33.9935 223.621 33.5165 223.416C33.0953 223.25 32.9654 222.81 32.8957 222.433C32.8087 221.961 32.8912 221.482 33.0016 221.022C33.2356 220.173 33.6243 219.37 34.1527 218.662C35.017 217.526 36.6018 216.063 38.0931 215.812C38.754 215.69 39.5161 215.72 40.0255 215.968C39.8807 215.58 40.0757 215.446 40.3353 215.399C40.6465 215.366 40.9515 215.431 41.2415 215.549C41.4285 215.636 41.5298 215.788 41.5882 215.973C41.8549 217.022 42.5994 218.544 43.243 219.255C43.7102 219.803 44.3289 219.982 45.0842 219.843C46.5003 219.582 47.9783 218.333 48.8731 217.363C49.0358 217.186 49.2134 216.958 49.3954 216.754C49.4382 216.721 49.4575 216.693 49.509 216.708C49.5885 216.742 49.5264 216.803 49.5308 216.826C49.465 217.131 49.3197 217.402 49.1701 217.649C48.5908 218.61 46.8364 220.081 45.3967 220.347C44.3346 220.542 43.3445 220.335 42.2804 219.726C41.4871 219.262 40.7905 217.999 40.2878 216.994C38.9374 219.464 37.9942 220.833 36.7809 222.326C36.4791 222.675 36.1214 222.985 35.755 223.248C35.4743 223.446 35.2041 223.569 34.9209 223.621ZM34.9635 222.661C36.2516 221.838 37.186 220.421 37.9349 219.453C38.6068 218.597 38.9569 217.849 39.5598 216.884C39.3275 216.683 39.0566 216.537 38.6362 216.639C37.2523 216.943 35.333 219.372 34.7154 221.316C34.5323 221.911 34.5057 222.429 34.5449 222.641C34.5841 222.853 34.8114 222.763 34.9635 222.661ZM60.1189 219.462C58.3487 219.788 56.6187 219.009 56.2966 217.262C56.1007 216.2 56.5375 214.07 58.3006 212.646C58.7247 212.3 59.175 212.095 59.6234 212.012C60.1663 211.912 60.7396 211.977 61.3241 212.235C61.7173 212.382 62.0336 212.641 62.1591 213.057C62.1958 213.124 62.2045 213.171 62.2175 213.242C62.2393 213.36 62.2375 213.482 62.1884 213.613C62.1183 213.895 61.932 214.075 61.6724 214.123C61.5544 214.145 61.432 214.143 61.2773 214.098C61.0432 214.02 60.9226 213.895 60.9027 213.655C60.8915 213.462 60.9039 213.264 60.8454 213.08C60.7565 212.73 60.5801 212.568 60.2969 212.62C60.2025 212.637 60.1124 212.678 60.0224 212.719C59.5957 212.92 59.2616 213.226 58.9642 213.598C58.1724 214.598 57.3759 216.234 57.5936 217.414C57.7372 218.193 58.1753 219.112 59.5188 218.987C60.8386 218.865 63.0433 217.189 64.0586 216.343C65.9223 214.804 67.3549 213.441 69.1627 211.863C69.2869 211.743 69.4583 211.613 69.5869 211.516C69.6061 211.489 69.6726 211.452 69.7005 211.471C69.7844 211.529 69.6987 211.593 69.6794 211.621C69.4503 211.835 69.277 212.086 69.0671 212.271C67.3135 214.01 66.0336 215.54 64.2066 217.146C63.1571 218.071 61.417 219.222 60.1189 219.462ZM78.3585 216.683C77.9238 217.105 77.1468 217.126 76.71 216.743C76.4777 216.542 76.4534 216.278 76.5235 215.997C77.1546 213.464 79.421 207.36 79.2121 206.227C79.1598 205.944 78.9493 205.86 78.7368 205.9C76.1878 206.37 72.5114 209.196 71.4951 211.36C71.2517 211.893 71.2941 212.519 71.3296 212.977C71.4075 214.06 71.3263 215.076 70.8781 216.086C70.4938 216.913 69.9411 217.357 69.3511 217.466C69.2094 217.492 69.0678 217.518 68.9175 217.497C68.5225 217.472 68.1206 217.278 67.772 216.976C67.5589 216.747 67.4036 216.434 67.3383 216.08C67.2991 215.868 67.3071 215.646 67.3195 215.449C67.3869 214.094 68.7087 211.337 69.9832 211.102C70.172 211.067 70.3459 211.084 70.5329 211.171C71.8801 208.287 77.0318 205.653 78.5423 205.374C79.4392 205.209 80.4057 205.421 80.627 206.356C80.7682 206.989 80.6969 207.661 80.6126 208.263C80.3614 209.944 79.4569 212.185 78.5668 215.034C81.771 211.368 83.2495 209.46 84.3352 209.26C85.3973 209.064 85.936 209.868 86.2288 211.058C86.3482 211.573 86.5427 212.099 86.7565 212.596C87.1064 213.435 87.4375 213.642 87.9567 213.546C89.5852 213.246 91.8836 211.284 93.2193 209.793C93.382 209.617 93.5596 209.389 93.7415 209.185C93.7844 209.152 93.8036 209.124 93.8552 209.139C93.9347 209.173 93.8726 209.234 93.877 209.257C93.8112 209.562 93.6659 209.833 93.5163 210.08C93.1829 210.654 92.7184 211.179 92.2452 211.657C91.0373 212.783 89.9239 213.891 88.555 214.144C87.4929 214.339 85.6506 214.142 85.0484 212.862C84.7657 212.256 84.5015 211.353 84.3553 210.428C84.3267 210.14 84.2403 209.936 83.9019 210.218C82.2376 211.648 80.2909 214.326 78.9236 216.042C78.746 216.27 78.564 216.474 78.3585 216.683ZM69.1932 217.007C70.2553 216.811 70.9162 214.175 70.5512 212.461C69.4483 213.494 68.7822 214.911 68.7333 215.969C68.7166 216.143 68.7211 217.094 69.1932 217.007ZM110.486 211.246C108.481 211.493 106.755 210.47 106.42 208.652C106.359 208.322 106.341 207.959 106.37 207.588C105.475 207.899 104.733 208.109 104.308 208.187C103.105 208.409 100.736 208.139 99.967 207.011C99.2649 208.63 98.464 210.242 97.491 211.714C97.1402 212.194 96.8129 212.669 96.3782 213.091C96.1491 213.304 95.8597 213.455 95.5528 213.512C95.0808 213.599 94.5739 213.497 94.1869 213.251C93.7204 212.971 93.5495 212.441 93.445 211.875C93.1098 210.058 93.8115 206.585 94.5196 206.454C94.8736 206.389 95.1786 206.455 95.4774 206.619C95.6408 206.711 95.6905 206.848 95.6179 206.984C95.1777 207.773 95.0273 210.265 95.0188 211.145C95.0226 211.828 95.0861 212.304 95.1296 212.54C95.1688 212.753 95.2098 212.843 95.3042 212.826C95.3514 212.817 95.4135 212.757 95.5185 212.664C95.7669 212.423 95.9917 212.186 96.1842 211.907C97.4869 210.105 98.5747 208.196 99.3121 206.107C99.4102 205.845 99.4567 205.568 99.4325 205.304C99.4082 205.04 99.4311 204.767 99.5012 204.486C99.5906 204.177 99.7191 204.08 100.058 204.066C100.204 204.063 100.331 204.089 100.462 204.138C100.668 204.198 100.752 204.255 100.778 204.397C100.787 204.444 100.776 204.519 100.766 204.594C100.724 204.895 100.723 205.286 100.797 205.687C101.001 206.796 101.721 208.054 103.987 207.637C104.648 207.515 105.536 207.302 106.478 206.982C106.684 206.114 107.136 205.128 107.947 204.1C108.651 203.286 109.662 202.417 110.819 202.203C111.503 202.077 112.659 202.254 112.652 203.012C112.643 204.551 110.363 205.948 108.126 206.922C107.96 207.611 107.898 208.331 108.033 209.062C108.233 210.148 109.025 211.003 110.632 210.584C112.55 210.133 115.683 207.139 119.095 204.069C119.262 203.916 119.594 203.733 119.44 203.957C119.074 204.488 113.826 210.703 110.486 211.246ZM108.343 206.247C110.121 205.431 111.649 204.32 111.673 202.998C111.666 202.828 111.531 202.755 111.342 202.79C111.153 202.825 110.883 202.948 110.525 203.258C109.778 203.835 108.853 204.909 108.343 206.247ZM118.545 208.563C118.239 208.62 117.388 208.24 117.309 207.815C117.296 207.744 117.279 207.65 117.289 207.575C117.255 205.8 118.065 202.917 118.575 201.578C118.756 201.105 119.84 201.028 120.199 201.254C120.362 201.346 120.384 201.464 120.34 201.619C120.233 201.834 120.143 202.143 120.079 202.326C119.785 203.112 119.452 204.613 119.186 206.346C119.616 205.633 120.092 204.91 120.475 204.205C121.263 202.791 122.033 201.404 122.798 199.994C123.093 199.476 123.749 199.33 124.214 199.733C125.115 200.518 125.382 200.908 126.019 201.45C126.596 201.929 127.418 202.022 128.39 201.867C129.598 201.668 130.868 201.41 132.197 200.676C132.245 200.668 132.311 200.631 132.382 200.618C132.405 200.614 132.433 200.633 132.457 200.628C132.489 200.671 132.47 200.699 132.451 200.727C132.254 200.983 131.997 201.177 131.707 201.328C131.024 201.723 129.327 202.45 128.403 202.596C127.265 202.782 125.962 202.461 124.753 201.732C124.366 201.486 123.999 201.212 123.631 200.938C123.398 200.737 123.139 201.054 122.971 201.329C122.74 201.664 121.41 203.984 120.855 204.94C120.386 205.71 119.412 207.574 118.97 208.217C118.83 208.389 118.758 208.524 118.545 208.563ZM131.995 206.742C131.664 206.803 130.846 206.734 130.785 206.403C130.722 206.195 130.885 206.019 131.037 205.918C131.247 205.733 131.777 205.562 132.047 205.439C132.583 205.169 132.797 204.739 132.834 204.146C132.848 203.168 132.279 202.199 131.783 201.363C131.219 200.418 131.349 199.539 132.026 198.707C132.516 198.055 133.199 197.661 133.933 197.403C134.278 197.291 134.602 197.329 134.906 197.517C135.041 197.589 135.058 197.684 134.958 197.8C134.834 197.92 134.677 197.998 134.525 198.099C133.998 198.416 133.563 198.838 133.249 199.384C132.958 199.926 132.87 200.504 133.163 201.035C134.006 202.564 134.353 203.256 134.478 204.063C136.122 203.052 137.746 202.069 139.358 201.015C140.271 200.407 141.16 199.804 142.045 199.177C142.088 199.145 142.127 199.089 142.154 199.108C142.238 199.166 142.153 199.231 142.133 199.259C142.014 199.403 141.87 199.551 141.722 199.676C140.634 200.658 139.454 201.534 138.273 202.411C136.96 203.361 135.646 204.311 134.24 205.156C133.783 205.851 133.104 206.537 131.995 206.742ZM165.396 202.534C163.73 203.427 160.356 202.999 159.747 199.695C159.438 198.019 159.913 194.905 160.366 193.26C158.576 195.86 157.188 197.727 156.196 198.837C154.242 201.076 153.075 201.365 150.955 200.853C149.548 200.502 148.9 199.768 147.871 198.42C147.834 198.354 147.802 198.311 147.58 198.034C145.38 201.588 143.912 203.421 143.11 203.837C142.242 204.29 140.464 203.911 140.219 202.98C139.898 201.77 140.677 199.771 142.188 198.175C143.079 197.181 144.526 196.426 145.588 196.23C146.06 196.143 146.545 196.126 146.962 196.269C147.056 195.593 147.675 195.772 148.201 195.845C148.459 195.92 148.631 196.059 148.754 196.329C149.417 197.671 149.814 198.501 150.656 199.493C151.678 200.671 152.773 200.518 153.707 199.76C154.154 199.409 154.694 198.894 155.306 198.244C155.488 198.04 155.67 197.836 155.899 197.623C157.481 195.745 158.829 194.056 160.62 191.993C161.102 190.367 161.291 189.941 161.462 189.544C159.632 190.076 157.627 190.715 156.501 191.093C155.564 191.437 154.94 191.625 154.581 191.667C154.227 191.732 153.879 191.699 153.581 191.534C153.385 191.399 153.481 191.26 153.874 191.138C156.672 190.037 159.454 189.109 161.932 188.383C162.371 187.326 162.804 186.367 163.251 185.48C165.662 180.691 167.32 178.433 168.134 178.478C168.799 178.38 168.78 178.676 168.617 179.243C168.457 179.834 168.079 180.562 167.594 181.506L167.269 182.127C167.032 182.561 166.485 183.565 165.605 185.143C164.812 186.534 164.376 187.347 164.216 187.669C168.957 186.38 173.511 185.93 172.581 186.712C172.18 187.054 170.975 187.399 168.964 187.745C169.022 187.661 169.131 187.592 169.288 187.514L169.71 187.29C167.443 187.83 165.945 188.18 163.648 188.823C161.538 193.923 160.899 198.531 161.716 200.845C162.201 202.415 163.307 202.455 164.304 201.905C164.816 201.64 165.373 201.22 166.039 200.731L166.534 200.371C169.333 198.342 171.913 195.792 174.423 192.864C174.576 192.762 174.608 192.805 174.497 192.997L174.197 193.491C171.662 197.473 167.374 201.485 165.396 202.534ZM143.228 202.62C144.742 201.169 146.119 199.109 147.325 197.447C146.967 196.83 146.214 196.846 145.774 196.976C144.961 197.2 144.195 198.073 143.45 199.065C142.787 199.968 142.3 201.034 142.165 201.888C141.897 203.475 142.774 203.07 143.228 202.62ZM174.714 189.076C174.596 189.098 174.548 188.838 174.496 188.555C174.291 187.446 174.764 186.041 175.07 185.716C175.132 185.656 175.227 185.638 175.345 185.616C175.817 185.529 176.601 185.678 176.747 185.943C176.376 186.842 175.496 187.761 175.011 188.704C174.885 188.947 174.785 189.063 174.714 189.076ZM174.739 198.077C173.602 198.262 171.98 197.805 171.96 195.978C171.955 194.759 172.282 193.625 172.887 192.537C173.12 192.079 174.152 191.986 174.511 192.213C174.675 192.305 174.697 192.423 174.652 192.578C174.545 192.792 174.462 193.003 174.374 193.19C173.96 194.121 173.315 196.046 173.637 197.133C173.741 197.431 174.04 197.596 174.441 197.522C177.368 196.982 180.121 193.912 181.082 192.905C181.371 192.485 181.326 191.981 181.815 191.72C181.767 191.46 181.696 191.205 181.648 190.946C181.583 190.592 181.564 190.229 181.716 189.859C182.175 188.774 182.946 188.192 183.749 188.044C185.141 187.788 185.997 189.118 186.161 190.406C186.339 191.374 186.167 191.894 186.025 192.579C187.921 192.009 191.018 190.804 193.012 189.045C193.183 188.916 193.269 188.851 193.316 188.842C193.34 188.838 193.34 188.838 193.344 188.862C193.357 188.932 193.13 189.291 192.991 189.463C191.249 191.396 187.346 192.994 185.739 193.412C185.099 194.97 184.173 196.166 182.875 196.406C181.907 196.584 180.942 195.981 180.794 195.179C180.728 194.825 180.753 194.43 180.821 194.002C178.988 195.975 177.288 197.607 174.739 198.077ZM184.971 192.822C185.294 192.323 185.568 191.028 185.409 190.032C185.172 188.88 184.441 188.356 183.968 188.443C183.095 188.604 182.717 189.992 182.867 190.94C182.969 192.02 184.02 192.826 184.971 192.822ZM182.939 195.564C183.34 195.49 184.289 194.68 184.679 193.486C184.449 193.431 183.97 193.348 183.153 192.889C182.784 193.665 182.666 194.614 182.691 195.146C182.705 195.485 182.797 195.59 182.939 195.564ZM202.321 192.038C201.203 192.195 200.034 191.947 199.227 191.144C198.629 190.547 198.226 189.816 197.87 189.076C197.747 188.806 197.637 188.607 197.345 188.88C196.93 189.274 196.594 189.702 196.262 190.154C195.541 191.141 194.821 192.128 194.095 193.091C193.961 193.287 193.821 193.459 193.654 193.612C193.243 194.03 192.574 194.104 192.071 193.758C191.875 193.623 191.788 193.419 191.773 193.202C191.712 192.872 191.754 192.571 191.816 192.243C192.05 190.735 192.649 189.087 193.162 188.163C193.418 187.701 194.427 187.612 194.786 187.839C194.949 187.931 194.995 188.045 194.926 188.204C194.843 188.414 194.737 188.629 194.532 189.106C193.941 190.533 193.572 191.577 193.315 192.698C194.164 191.614 195.96 189.306 196.974 188.192C197.644 187.458 198.873 187.769 199.353 188.388C200.152 189.412 200.281 190.242 201.058 191.148C201.368 191.506 201.74 191.535 202.147 191.362C202.621 191.153 203.039 190.905 203.472 190.605C204.822 189.722 206.039 188.643 207.171 187.507C207.272 187.391 207.383 187.2 207.518 187.272C207.574 187.311 207.416 187.511 207.339 187.623C206.308 189.179 204.981 190.449 203.496 191.528C203.129 191.791 202.75 191.983 202.321 192.038Z" fill="#415064"/>
<path d="M9.38835 300.45C9.27034 300.472 9.12002 300.451 8.87094 300.423C8.37279 300.369 8.19635 300.206 8.14847 299.946C8.09187 299.64 8.21539 299.251 8.21655 298.86C8.60322 294.738 9.73141 290.137 10.6338 287.09C9.18631 288.504 7.56234 289.756 6.33572 290.25C5.8811 290.432 5.61896 290.334 5.92762 290.155C6.90081 289.609 9.72025 287.43 11.0385 285.844L11.1174 285.61C11.712 283.938 12.2595 282.276 12.9809 280.629C13.7786 278.603 16.8871 271.904 19.2945 271.46C19.5541 271.412 19.8032 271.44 20.0417 271.542C20.4306 271.666 20.6244 271.923 20.6941 272.3C21.1991 275.038 13.9549 283.793 13.0731 284.834C11.6416 288.32 10.3468 294.928 10.4164 295.306C11.8656 292.842 14.8297 287.61 17.7563 287.07C18.0631 287.014 18.3787 287.004 18.7073 287.066C19.7962 287.28 20.2423 287.978 20.3946 288.804C20.5383 289.583 20.4118 290.485 20.2828 291.241C22.4012 290.289 24.357 289.513 26.3114 288.201C25.9463 289.001 24.8011 289.407 24.2869 289.795C20.7053 291.944 20.0761 291.84 19.9463 292.328C18.9037 295.937 16.4295 298.004 14.7066 298.322C13.8333 298.483 13.1649 298.167 13.0126 297.341C12.9429 296.963 12.9782 296.493 13.1613 295.898C14.2402 293.014 18.8879 292.279 18.8605 291.601C19.0777 290.926 19.3488 289.485 19.1703 288.518C19.0659 287.951 18.7943 287.538 18.262 287.563C15.3615 288.244 12.1144 294.456 11.2154 296.33C9.58383 299.657 9.86039 300.363 9.38835 300.45ZM13.5516 283.062C15.3065 280.933 20.2461 274.238 19.876 272.232C19.8499 272.09 19.8002 271.953 19.712 271.871C17.3296 272.848 14.1115 281.202 13.5516 283.062ZM14.1878 297.759C15.5375 297.534 17.881 294.759 18.3806 292.837C16.5788 293.389 13.6444 295.077 14.0536 297.295C14.0797 297.437 14.1338 297.598 14.1878 297.759ZM29.4909 294.424C27.4866 294.671 25.7603 293.647 25.4251 291.83C25.1987 290.603 25.594 289.041 26.9527 287.278C27.6805 286.46 28.7107 285.562 29.8716 285.372C30.5604 285.27 31.5269 285.482 31.6575 286.19C31.6923 286.379 31.6843 286.6 31.5818 286.839C31.0784 288.078 28.9943 289.878 27.0584 290.894C26.9672 291.326 26.9555 291.792 27.0382 292.24C27.2385 293.326 28.0306 294.181 29.6374 293.762C31.5553 293.311 34.6883 290.317 38.1001 287.247C38.2671 287.094 38.5994 286.911 38.4454 287.135C38.0797 287.666 32.8319 293.881 29.4909 294.424ZM27.198 290.063C28.3208 289.27 29.4865 288.445 30.3229 287.29C30.5583 286.979 30.7352 286.482 30.6786 286.175C30.6481 286.01 30.5363 285.933 30.3475 285.968C30.1587 286.003 29.8885 286.126 29.5308 286.436C28.3546 287.336 27.6666 288.635 27.198 290.063ZM40.0216 291.554C38.7694 291.248 38.0295 290.677 37.6899 288.836C37.2241 286.31 38.5766 282.132 40.2435 278.334C37.5772 279.095 34.9326 279.973 32.7241 280.966C30.4606 280.603 32.5003 279.885 33.2617 279.647C34.4393 279.283 37.451 278.41 40.6042 277.511C41.9663 274.576 43.4322 271.938 44.3177 270.652C44.4375 270.508 44.2462 270.397 44.5113 269.982C44.8149 269.511 45.3198 268.808 45.9041 268.139C46.2872 267.702 46.8903 267.664 47.2748 267.764C47.5842 267.853 47.6016 267.948 47.4284 268.199C46.2175 269.838 44.1418 273.271 42.3718 277.039C45.4823 276.172 48.4126 275.388 49.4747 275.192C50.6784 274.97 52.0232 275.381 52.2232 275.539C52.363 275.635 52.3419 275.786 52.1618 275.868C51.9345 275.959 51.6749 276.006 51.4432 276.074C50.0619 276.524 48.5968 276.916 47.1832 277.323C46.6534 277.494 45.9776 277.667 47.0881 277.072C47.8383 276.641 48.042 276.554 48.3314 276.403C46.5184 276.762 44.2937 277.27 41.964 277.871C39.9041 282.448 38.4182 287.359 39.6294 290.089C40.0936 291.15 41.3669 291.306 42.4004 290.822C42.9643 290.572 43.4636 290.236 43.9673 289.923C45.7782 288.76 47.0333 287.625 48.6032 286.213C49.1857 285.666 49.7166 285.105 50.2389 284.496C50.3202 284.407 50.4041 284.465 50.3507 284.573C49.962 285.377 49.3777 286.046 48.7847 286.668C47.1875 288.329 45.4741 289.889 44.1047 290.801C42.4783 291.906 41.2782 291.884 40.0216 291.554ZM71.903 286.601C69.8987 286.849 68.1724 285.825 67.8372 284.008C67.7762 283.677 67.7581 283.314 67.7872 282.943C66.8929 283.254 66.1507 283.465 65.7258 283.543C64.5221 283.765 62.1537 283.494 61.3845 282.367L61.3591 282.494C60.6869 284.936 59.7971 286.198 58.8533 287.3C58.4316 287.792 57.9454 288.199 57.3343 288.458C56.7467 288.713 56.6008 288.716 55.9864 288.561C55.4709 288.412 55.1416 288.082 55.0179 287.543C54.8593 286.816 54.8231 286.091 54.8813 285.348C54.1157 286.49 53.4551 287.539 52.528 288.466C52.1746 288.8 51.7933 289.114 51.2418 289.167C51.0293 289.206 50.8082 289.198 50.5784 289.143C49.7473 289.004 49.3727 288.56 49.3619 287.708C49.1486 286.552 50.7184 281.698 51.9221 281.476C52.2053 281.424 52.6849 281.775 52.7327 282.035C52.8111 282.459 52.5977 283.817 52.1729 283.895C51.3704 284.043 50.7606 287.352 50.8651 287.919C50.913 288.179 50.9627 288.316 51.0702 288.369C51.1733 288.399 51.2633 288.358 51.4968 288.168C52.0023 287.734 52.5543 287.022 53.0635 286.342C53.6304 285.579 54.886 283.785 54.9822 283.645C55.1467 283.346 55.402 283.275 55.707 283.341C56.1344 283.408 56.2785 283.528 56.286 283.966C56.283 284.479 56.2328 285.001 56.2106 285.542C56.1822 286.182 56.2053 286.836 56.3508 287.493C56.4963 288.149 56.6317 288.222 57.1931 287.826C57.7353 287.457 58.1613 286.988 58.5549 286.476C59.4771 285.257 60.0681 283.83 60.569 282.444C60.8291 281.737 60.8743 280.923 60.85 280.659C60.8257 280.395 60.8486 280.123 60.9187 279.841C61.0081 279.532 61.1367 279.435 61.4758 279.421C61.6218 279.419 61.7485 279.444 61.8795 279.493C62.0858 279.553 62.1696 279.611 62.1958 279.752C62.2045 279.799 62.1939 279.875 62.1834 279.95C62.1412 280.25 62.14 280.641 62.2141 281.042C62.4186 282.152 63.1388 283.41 65.4046 282.992C66.0655 282.87 66.9536 282.657 67.8952 282.337C68.1012 281.47 68.5538 280.483 69.3647 279.455C70.0689 278.642 71.0799 277.772 72.2364 277.559C72.9209 277.432 74.0762 277.61 74.0696 278.368C74.0606 279.907 71.7801 281.304 69.5436 282.277C69.378 282.967 69.3154 283.686 69.4503 284.418C69.6506 285.504 70.4427 286.358 72.0495 285.94C73.9674 285.488 77.1003 282.494 80.5121 279.425C80.6792 279.272 81.0114 279.088 80.8575 279.312C80.4917 279.843 75.244 286.058 71.903 286.601ZM69.7609 281.603C71.5384 280.787 73.0661 279.675 73.0907 278.353C73.0838 278.183 72.9484 278.111 72.7595 278.146C72.5707 278.18 72.3006 278.303 71.9429 278.613C71.1952 279.191 70.2705 280.264 69.7609 281.603ZM83.3328 284.493C81.3285 284.741 79.6021 283.717 79.2669 281.9C79.0406 280.672 79.4359 279.111 80.7945 277.347C81.5223 276.529 82.5526 275.632 83.7134 275.442C84.4022 275.339 85.3687 275.551 85.4993 276.26C85.5342 276.448 85.5261 276.669 85.4237 276.908C84.9202 278.148 82.8361 279.948 80.9003 280.964C80.8091 281.395 80.7974 281.861 80.8801 282.31C81.0803 283.395 81.8725 284.25 83.4792 283.832C85.3972 283.38 88.5301 280.386 91.9419 277.316C92.109 277.164 92.4412 276.98 92.2872 277.204C91.9215 277.735 86.6737 283.95 83.3328 284.493ZM81.0399 280.133C82.1627 279.34 83.3284 278.515 84.1648 277.36C84.4001 277.048 84.577 276.552 84.5204 276.245C84.49 276.08 84.3781 276.003 84.1893 276.037C84.0005 276.072 83.7303 276.195 83.3726 276.505C82.1964 277.406 81.5085 278.704 81.0399 280.133ZM101.436 278.884C100.318 279.042 99.1499 278.794 98.3429 277.991C97.7446 277.393 97.3413 276.662 96.9852 275.923C96.8622 275.652 96.7522 275.453 96.461 275.726C96.0455 276.12 95.7096 276.548 95.378 277C94.6571 277.987 93.9362 278.974 93.2109 279.938C93.0762 280.133 92.9371 280.306 92.77 280.458C92.3589 280.876 91.6894 280.951 91.1862 280.604C90.9905 280.469 90.9041 280.266 90.8885 280.049C90.8276 279.718 90.8698 279.418 90.9312 279.089C91.1656 277.582 91.7647 275.934 92.2775 275.009C92.5339 274.547 93.5426 274.459 93.9017 274.685C94.0651 274.777 94.1104 274.891 94.0421 275.05C93.959 275.261 93.8522 275.475 93.6473 275.953C93.0563 277.379 92.6876 278.424 92.4307 279.545C93.2802 278.461 95.0753 276.153 96.09 275.038C96.76 274.305 97.9887 274.615 98.469 275.234C99.268 276.258 99.3967 277.089 100.174 277.995C100.484 278.352 100.855 278.381 101.263 278.209C101.737 277.999 102.155 277.751 102.588 277.452C103.938 276.568 105.154 275.49 106.287 274.353C106.388 274.237 106.499 274.046 106.634 274.119C106.69 274.157 106.532 274.357 106.455 274.469C105.424 276.026 104.096 277.296 102.611 278.375C102.245 278.638 101.865 278.83 101.436 278.884ZM115.691 277.598C114.438 277.292 113.698 276.72 113.359 274.879C112.893 272.354 114.246 268.175 115.913 264.378C113.246 265.138 110.602 266.017 108.393 267.01C106.13 266.646 108.169 265.928 108.931 265.69C110.108 265.327 113.12 264.454 116.273 263.555C117.635 260.619 119.101 257.982 119.987 256.696C120.107 256.552 119.915 256.44 120.18 256.025C120.484 255.555 120.989 254.851 121.573 254.182C121.956 253.745 122.559 253.707 122.944 253.807C123.253 253.897 123.271 253.991 123.097 254.243C121.887 255.882 119.811 259.315 118.041 263.083C121.151 262.216 124.082 261.431 125.144 261.236C126.347 261.014 127.692 261.424 127.892 261.583C128.032 261.679 128.011 261.829 127.831 261.911C127.604 262.002 127.344 262.05 127.112 262.117C125.731 262.567 124.266 262.959 122.852 263.367C122.322 263.537 121.647 263.711 122.757 263.116C123.507 262.684 123.711 262.598 124 262.447C122.187 262.806 119.963 263.314 117.633 263.914C115.573 268.492 114.087 273.403 115.298 276.132C115.763 277.194 117.036 277.349 118.069 276.866C118.633 276.616 119.133 276.279 119.636 275.967C121.447 274.803 122.702 273.669 124.272 272.256C124.855 271.71 125.386 271.148 125.908 270.539C125.989 270.451 126.073 270.509 126.02 270.616C125.631 271.42 125.047 272.089 124.454 272.711C122.856 274.372 121.143 275.933 119.774 276.844C118.147 277.95 116.947 277.927 115.691 277.598ZM126.118 277.529C125.408 277.514 124.491 277.439 124.455 276.713C124.481 274.61 124.874 272.634 125.36 270.64C127.761 260.899 135.061 247.814 138.389 247.2C138.577 247.166 138.775 247.178 138.93 247.223C139.385 247.31 139.602 247.562 139.672 247.94C139.955 249.474 137.356 252.98 136.995 253.803C134.405 258.283 132.267 261.118 129.236 264.532C128.64 265.667 127.413 270.262 126.467 274.658C128.631 270.379 130.149 268.952 131.306 268.738C132.226 268.569 132.904 269.2 133.143 270.498C133.174 270.663 133.204 270.829 133.216 271.022C133.681 273.547 134.286 274.314 135.655 274.062C137.024 273.809 139.052 272.63 140.868 271.099C140.586 268.247 142.037 265.661 143.991 265.008C144.129 264.958 144.247 264.936 144.365 264.914C145.285 264.745 145.576 265.13 145.667 265.626C145.785 266.263 145.48 267.125 145.05 267.838C144.056 269.462 143.335 270.18 142.613 270.899C142.857 272.221 143.211 272.815 144.32 272.61C146.704 272.17 152.207 266.811 149.762 269.434C148.681 270.585 146.235 272.94 144.206 273.314C142.459 273.637 141.611 272.744 141.038 271.751C138.824 273.38 137.006 274.374 135.897 274.578C133.49 275.022 131.933 273.992 131.546 271.891C131.498 271.632 131.466 271.198 131.391 270.26C131.36 269.827 131.297 269.35 130.714 269.897C129.054 271.35 128.081 273.482 126.734 276.635C126.583 277.004 126.453 277.492 126.118 277.529ZM130.207 261.986C132.62 259.588 139.125 248.944 138.715 248.043C138.727 247.846 138.643 247.788 138.549 247.805C138.242 247.862 137.677 248.503 137.572 248.596C134.038 252.591 131.541 258.372 130.207 261.986ZM142.588 270.099C144.112 268.573 145.054 266.666 144.91 265.887C144.871 265.675 144.667 265.493 144.407 265.541C143.392 265.728 142.763 268.138 142.588 270.099ZM160.621 270.189C160.314 270.246 159.995 270.232 159.713 270.161C159.084 270.058 158.729 269.586 158.602 268.902C158.306 267.297 159.332 264.521 161.108 263.168C161.579 262.813 162.006 262.612 162.407 262.538C163.044 262.421 163.691 262.619 164.628 262.934C165.199 262.194 165.59 261.268 166.124 260.462C166.763 259.294 167.598 258.262 168.129 257.041C168.454 255.761 168.76 254.509 169.141 253.267C169.326 252.281 172.825 243.07 174.925 242.682C175.232 242.626 175.499 242.747 175.738 243.118C176.041 243.965 174.062 248.455 172.916 250.448C172.013 252.298 170.712 253.978 170.047 255.931C169.668 257.05 168.828 260.964 169.285 263.442C169.516 264.693 170.076 265.614 171.188 265.556C172.036 265.521 174.207 264.193 176.674 261.957L176.687 262.028C176.226 262.967 173.837 265.628 171.807 266.003C169.282 266.469 167.93 264.961 167.56 262.955C167.377 261.963 167.428 260.783 167.659 259.52C165.467 262.853 164.077 266.696 161.49 269.736C161.241 269.977 160.952 270.128 160.621 270.189ZM170.543 253.326C172.259 250.056 174.234 247.007 174.975 243.479C174.466 243.499 172.232 248.719 171.543 250.408C171.21 251.25 170.867 252.168 170.543 253.326ZM160.323 269.366C161.142 269.044 163.12 265.872 164.047 264.017C164.209 263.841 163.407 263.062 162.8 263.344C161.501 263.975 159.749 267.446 160.323 269.366ZM189.426 266.341C188.52 266.459 188.047 266.278 187.982 265.924C187.838 265.145 190.189 263.467 191.202 262.474C190.871 261.34 190.229 260.506 189.624 259.739C185.387 264.425 182.485 266.157 180.29 266.561C177.883 267.005 176.568 265.564 176.232 263.747C175.919 262.047 176.472 260.017 177.83 258.913C178.464 258.381 179.111 257.92 179.866 257.781C180.338 257.694 180.832 257.724 181.352 257.897C181.726 258.072 181.916 258.306 181.972 258.612C182.02 258.872 181.95 259.153 181.833 259.444C181.13 260.793 179.481 261.512 178.136 262.029C177.996 262.592 177.864 266.374 180.177 265.948C183.481 265.338 187.585 260.726 189.09 259.228C188.907 258.895 188.788 258.649 188.74 258.389C188.496 257.068 189.682 255.555 190.625 255.113C190.848 254.999 191.099 254.904 191.335 254.86C191.713 254.79 192.082 254.942 192.143 255.272C192.287 256.051 191.579 257.109 190.603 258.436C190.846 259.221 191.784 260.073 192.464 261.51C195.172 259.521 199.175 256.879 200.813 255.967C201.345 255.674 201.163 256.147 200.722 256.399C198.457 258.013 194.408 260.541 192.627 262.26C193.1 264.296 191.737 266.037 189.426 266.341ZM178.37 261.18C179.458 260.858 181.294 259.567 180.98 258.527C180.913 258.295 180.825 258.214 180.589 258.257L180.565 258.262C179.291 258.497 178.443 260.386 178.37 261.18ZM189.297 265.51C190.119 265.334 190.915 264.358 191.016 263.583C190.433 264.129 189.542 264.855 189.297 265.51ZM201.365 253.986C201.041 254.217 200.853 254.252 200.98 253.886C201.304 252.997 201.616 251.377 201.615 250.182C201.634 249.886 201.683 249.754 202.002 249.769C202.445 249.785 203.047 250.137 203.098 250.811C203.168 251.457 202.237 253.289 201.365 253.986ZM202.138 261.751C201.001 261.936 199.167 261.518 199.147 259.691C199.142 258.472 199.469 257.338 200.074 256.25C200.307 255.792 201.339 255.699 201.698 255.926C201.862 256.018 201.883 256.136 201.839 256.291C201.732 256.505 201.649 256.716 201.561 256.903C201.2 257.726 200.939 258.555 200.808 259.434C200.755 259.809 200.754 260.2 200.871 260.569C201.046 261.122 201.332 261.216 201.894 261.088C203.132 260.787 207.669 257.338 209.627 255.513C209.751 255.393 209.871 255.248 209.999 255.151C210.081 255.063 210.098 254.889 210.276 254.93C210.218 255.014 210.188 255.117 210.107 255.205C209.722 255.764 209.244 256.218 208.771 256.696C207.272 258.095 205.715 259.578 204.083 260.782C203.478 261.211 202.874 261.639 202.138 261.751ZM206.801 280.903C206.659 280.929 206.518 280.955 206.367 280.934C205.103 280.825 204.644 280.056 204.465 279.088C204.091 277.059 205.552 274.129 206.629 272.295C207.937 270.126 209.469 268.111 211.145 266.215C212.677 264.468 214.303 262.826 215.923 261.161C216.373 258.833 216.92 256.511 216.706 253.89C214.63 256.396 211.946 259.576 210.081 259.92C209.822 259.968 209.558 259.992 209.281 259.945C208.675 259.837 207.933 259.388 207.811 258.728C207.716 258.208 208.157 257.029 208.55 256.249C209.77 253.998 212.263 251.635 214.619 251.444C216.038 251.329 217.6 251.992 217.618 253.014C217.644 253.156 217.571 253.291 217.527 253.446C217.531 253.469 217.942 253.979 218.034 254.475C218.325 256.056 218.1 257.611 217.87 259.142C218.371 258.684 218.906 258.146 219.403 257.664C221.463 255.6 223.583 253.598 225.772 251.706C225.819 251.697 225.834 251.645 225.857 251.641C225.952 251.623 226.011 251.417 226.1 251.499C226.128 251.518 226.128 251.518 226.132 251.541C226.145 251.612 226.012 251.686 225.95 251.746C224.588 253.095 223.222 254.421 221.888 255.79C220.445 257.227 219.086 258.723 217.67 260.179C216.868 264.428 215.414 268.454 213.571 272.357C212.736 274.049 209.798 280.35 207.084 280.851L206.801 280.903ZM209.803 259.337C210.069 259.19 210.311 259.048 210.549 258.882C211.691 258.061 212.764 257.131 213.74 256.072L215.697 253.979C215.902 253.77 216.104 253.537 216.35 253.419C216.55 253.309 216.659 253.24 216.525 253.045L216.477 252.785C216.289 252.161 215.79 251.838 215.224 251.943C214.02 252.165 212.067 254.014 211.303 255.033C210.578 255.997 209.984 257.009 209.66 258.167C209.575 258.5 209.514 258.828 209.528 259.168L209.541 259.238C209.567 259.38 209.646 259.414 209.803 259.337ZM206.488 280.399C209.02 279.835 211.432 273.459 212.215 271.753C213.564 268.746 214.754 265.672 215.575 262.445C214.635 263.57 213.616 264.661 212.696 265.758C210.951 267.813 209.212 269.891 207.807 272.2C206.634 274.173 205.188 277.051 205.579 279.176C205.675 279.695 205.922 280.504 206.488 280.399ZM234.289 254.381C233.171 254.538 232.003 254.29 231.196 253.487C230.598 252.89 230.194 252.159 229.838 251.419C229.715 251.149 229.605 250.95 229.314 251.223C228.898 251.617 228.563 252.045 228.231 252.497C227.51 253.484 226.789 254.471 226.064 255.434C225.929 255.63 225.79 255.802 225.623 255.955C225.212 256.372 224.542 256.447 224.039 256.101C223.843 255.966 223.757 255.762 223.741 255.545C223.681 255.215 223.723 254.914 223.784 254.586C224.019 253.078 224.618 251.43 225.13 250.506C225.387 250.044 226.396 249.955 226.755 250.182C226.918 250.274 226.963 250.388 226.895 250.547C226.812 250.757 226.705 250.972 226.5 251.449C225.909 252.876 225.541 253.92 225.284 255.041C226.133 253.957 227.928 251.649 228.943 250.535C229.613 249.801 230.842 250.111 231.322 250.731C232.121 251.755 232.25 252.585 233.027 253.491C233.337 253.849 233.708 253.878 234.116 253.705C234.59 253.496 235.008 253.248 235.44 252.948C236.791 252.065 238.007 250.986 239.14 249.85C239.24 249.734 239.352 249.543 239.487 249.615C239.543 249.654 239.385 249.854 239.308 249.965C238.277 251.522 236.949 252.792 235.464 253.871C235.098 254.134 234.718 254.326 234.289 254.381ZM242.554 255.126C240.549 255.374 238.823 254.35 238.488 252.533C238.261 251.306 238.657 249.744 240.015 247.98C240.743 247.163 241.773 246.265 242.934 246.075C243.623 245.973 244.589 246.185 244.72 246.893C244.755 247.082 244.747 247.303 244.644 247.541C244.141 248.781 242.057 250.581 240.121 251.597C240.03 252.029 240.018 252.495 240.101 252.943C240.301 254.029 241.093 254.883 242.7 254.465C244.618 254.013 247.751 251.02 251.163 247.95C251.33 247.797 251.662 247.614 251.508 247.837C251.142 248.368 245.894 254.583 242.554 255.126ZM240.261 250.766C241.383 249.973 242.549 249.148 243.385 247.993C243.621 247.681 243.798 247.185 243.741 246.878C243.711 246.713 243.599 246.636 243.41 246.671C243.221 246.706 242.951 246.829 242.593 247.139C241.417 248.039 240.729 249.337 240.261 250.766ZM251.007 252.371C250.7 252.428 249.849 252.048 249.77 251.623C249.757 251.552 249.74 251.458 249.75 251.383C249.716 249.608 250.526 246.725 251.036 245.386C251.217 244.914 252.301 244.836 252.66 245.062C252.824 245.154 252.845 245.272 252.801 245.427C252.694 245.642 252.605 245.951 252.541 246.134C252.246 246.92 251.913 248.421 251.647 250.154C252.077 249.441 252.554 248.718 252.936 248.013C253.725 246.599 254.494 245.212 255.259 243.802C255.554 243.284 256.21 243.138 256.675 243.541C257.576 244.326 257.843 244.716 258.48 245.258C259.057 245.737 259.731 245.686 260.231 245.618C261.179 245.468 261.747 245.241 262.669 244.681C262.778 244.612 263.076 244.508 262.98 244.648C262.37 245.443 261.388 245.942 260.571 246.141C259.895 246.315 258.423 246.269 257.214 245.54C256.827 245.294 256.46 245.02 256.092 244.747C255.86 244.545 255.601 244.862 255.432 245.137C255.201 245.472 253.871 247.792 253.316 248.749C252.848 249.518 251.873 251.382 251.431 252.025C251.292 252.197 251.219 252.332 251.007 252.371Z" fill="#415064"/>
<path d="M6.62039 364.929C5.18686 365.096 4.53954 364.629 4.39589 363.85C4.06505 362.057 6.46931 358.685 8.022 358.105C8.20211 358.023 8.40582 357.937 8.59464 357.902C9.27909 357.776 10.2711 357.861 10.9674 358.197C11.3001 357.354 11.7523 357.027 12.1299 356.957C12.8615 356.822 13.1952 357.176 13.6495 358.581C14.1126 360.033 14.4347 361.779 15.0484 361.666C16.0633 361.479 19.3864 356.473 21.7506 354.207C22.138 353.793 22.5281 353.526 22.9293 353.452C23.1417 353.413 23.3864 353.417 23.6206 353.496C24.179 353.612 24.4419 353.979 24.5333 354.474C24.703 355.395 24.2213 356.753 24.1134 357.358C23.6145 359.549 23.4383 360.314 23.6271 360.279C23.8395 360.24 23.9655 359.997 24.2245 359.681C26.4108 356.715 27.7131 355.572 28.7752 355.376C30.3329 355.089 31.0918 357.218 32.7741 358.665C33.0387 358.909 33.3245 359.003 33.6313 358.946C34.3394 358.816 35.4292 357.712 35.577 357.587C37.8859 355.55 39.7853 352.881 39.8419 353.188C39.855 353.259 39.7718 353.47 39.5539 353.876C38.4835 355.879 35.2289 359.14 34.0532 359.381C31.234 359.974 30.0638 357.335 29.3189 356.471C29.0778 356.223 28.9784 355.949 28.7896 355.983C28.6952 356.001 28.3567 356.283 28.104 356.5C26.0845 358.386 25.1147 360.273 23.8447 361.459C23.6305 361.621 23.3796 361.716 23.0684 361.749C22.2616 361.873 21.8205 361.466 21.6899 360.758C21.4113 359.248 22.5784 356.446 22.8644 354.953C22.9153 354.7 22.9277 354.502 22.9059 354.384C22.858 354.124 22.4636 354.368 22.0762 354.781C20.4256 356.55 17.0311 362.228 15.0014 362.602C12.9008 362.989 12.3791 360.426 11.8065 358.115C8.55601 362.985 7.89489 364.694 6.62039 364.929ZM7.05556 363.848C8.38508 362.456 9.4188 360.386 10.4539 358.853C10.3483 358.677 9.99171 358.596 9.82649 358.627C9.44886 358.696 8.96696 359.127 8.79991 359.28C7.77585 360.079 6.43966 362.229 6.2971 363.573C6.21276 364.174 6.47741 364.418 7.05556 363.848ZM38.8548 360.887C38.548 360.944 38.2281 360.929 37.9467 360.859C37.3175 360.756 36.9621 360.284 36.8358 359.6C36.5398 357.995 37.5653 355.219 39.3414 353.866C39.8128 353.511 40.2395 353.31 40.6407 353.236C41.2779 353.119 41.9246 353.317 42.8613 353.632C43.4326 352.892 43.8231 351.966 44.3577 351.16C44.9966 349.992 45.8311 348.96 46.3625 347.739C46.6877 346.459 46.9937 345.207 47.3748 343.965C47.559 342.979 51.0583 333.768 53.1588 333.38C53.4657 333.324 53.7322 333.445 53.9714 333.816C54.2741 334.663 52.2955 339.153 51.15 341.145C50.2466 342.996 48.9458 344.676 48.281 346.629C47.9017 347.748 47.0616 351.661 47.5186 354.14C47.7494 355.391 48.3098 356.312 49.4216 356.254C50.2695 356.219 52.4406 354.891 54.9079 352.655L54.9209 352.726C54.4596 353.665 52.0708 356.326 50.041 356.701C47.5156 357.166 46.1637 355.659 45.7937 353.652C45.6108 352.661 45.6615 351.48 45.8923 350.218C43.7004 353.55 42.3106 357.394 39.723 360.434C39.4746 360.675 39.1852 360.826 38.8548 360.887ZM48.7767 344.024C50.4921 340.754 52.4679 337.705 53.2081 334.177C52.6994 334.197 50.4651 339.417 49.776 341.106C49.4433 341.948 49.1 342.866 48.7767 344.024ZM38.5565 360.063C39.3757 359.742 41.3532 356.57 42.2802 354.715C42.4429 354.539 41.6402 353.76 41.0334 354.042C39.7342 354.672 37.9827 358.144 38.5565 360.063ZM64.5224 355.274C63.2702 354.968 62.5303 354.397 62.1907 352.556C61.7249 350.031 63.0775 345.852 64.7443 342.055C62.078 342.815 59.4334 343.693 57.2249 344.686C54.9615 344.323 57.0011 343.605 57.7625 343.367C58.9401 343.003 61.9518 342.131 65.105 341.232C66.4671 338.296 67.933 335.658 68.8185 334.372C68.9383 334.228 68.747 334.117 69.0121 333.702C69.3157 333.231 69.8206 332.528 70.4049 331.859C70.788 331.422 71.3911 331.384 71.7756 331.484C72.085 331.573 72.1024 331.668 71.9292 331.919C70.7183 333.558 68.6427 336.992 66.8727 340.759C69.9831 339.893 72.9134 339.108 73.9755 338.912C75.1792 338.69 76.524 339.101 76.724 339.26C76.8638 339.356 76.8427 339.506 76.6626 339.588C76.4353 339.679 76.1757 339.727 75.944 339.794C74.5627 340.244 73.0976 340.636 71.684 341.043C71.1542 341.214 70.4784 341.388 71.5889 340.792C72.3391 340.361 72.5428 340.275 72.8322 340.124C71.0193 340.483 68.7945 340.991 66.4648 341.591C64.4049 346.169 62.919 351.08 64.1302 353.809C64.5944 354.871 65.8677 355.026 66.9012 354.543C67.4651 354.292 67.9644 353.956 68.4681 353.644C70.279 352.48 71.5341 351.345 73.104 349.933C73.6865 349.386 74.2174 348.825 74.7397 348.216C74.821 348.128 74.9049 348.186 74.8515 348.293C74.4628 349.097 73.8785 349.766 73.2855 350.388C71.6883 352.049 69.9749 353.61 68.6056 354.521C66.9791 355.627 65.779 355.604 64.5224 355.274ZM74.9499 355.206C74.2393 355.19 73.3225 355.116 73.2863 354.39C73.3132 352.286 73.7053 350.31 74.1918 348.317C76.5928 338.576 83.8925 325.491 87.2204 324.877C87.4092 324.842 87.6067 324.855 87.7614 324.899C88.2167 324.986 88.4342 325.239 88.5038 325.617C88.7868 327.151 86.1875 330.656 85.8268 331.479C83.2365 335.96 81.0992 338.794 78.0682 342.209C77.4722 343.344 76.2452 347.938 75.299 352.335C77.4626 348.055 78.981 346.628 80.1375 346.415C81.058 346.245 81.7357 346.877 81.9752 348.175C82.0056 348.34 82.0361 348.505 82.0473 348.699C82.5131 351.224 83.1183 351.991 84.4872 351.738C85.8561 351.486 87.8838 350.307 89.7003 348.776C89.4183 345.924 90.8693 343.338 92.8232 342.684C92.9605 342.635 93.0785 342.613 93.1965 342.591C94.117 342.421 94.4077 342.807 94.4991 343.303C94.6167 343.94 94.3119 344.801 93.8822 345.515C92.8882 347.138 92.1666 347.857 91.445 348.576C91.6888 349.898 92.0423 350.491 93.1516 350.287C95.5354 349.847 101.039 344.488 98.5938 347.111C97.5127 348.262 95.0672 350.617 93.0375 350.991C91.2909 351.313 90.4429 350.42 89.8694 349.428C87.656 351.056 85.8382 352.051 84.7289 352.255C82.3215 352.699 80.7647 351.668 80.3773 349.568C80.3294 349.308 80.2983 348.875 80.2229 347.937C80.1918 347.503 80.1283 347.027 79.5458 347.574C77.8858 349.027 76.9124 351.159 75.5659 354.311C75.4144 354.681 75.2847 355.168 74.9499 355.206ZM79.0384 339.662C81.4516 337.265 87.9568 326.62 87.5467 325.72C87.559 325.522 87.4752 325.465 87.3808 325.482C87.074 325.539 86.5089 326.18 86.4039 326.272C82.87 330.268 80.3731 336.048 79.0384 339.662ZM91.4193 347.775C92.9439 346.25 93.8857 344.343 93.742 343.564C93.7029 343.352 93.4985 343.17 93.2389 343.218C92.224 343.405 91.5947 345.815 91.4193 347.775ZM117.12 345.768C116.532 346.023 116.251 345.953 115.637 345.798C115.121 345.649 114.792 345.319 114.668 344.781C114.509 344.054 114.473 343.328 114.531 342.585C113.766 343.727 113.105 344.776 112.178 345.704C111.825 346.037 111.443 346.352 110.892 346.405C110.679 346.444 110.458 346.436 110.229 346.381C109.397 346.241 109.023 345.798 109.012 344.945C108.799 343.789 110.368 338.936 111.572 338.714C111.855 338.661 112.335 339.012 112.383 339.272C112.461 339.697 112.248 341.054 111.823 341.132C111.021 341.28 110.411 344.59 110.515 345.156C110.563 345.416 110.613 345.553 110.72 345.607C110.823 345.636 110.913 345.595 111.147 345.406C111.652 344.971 112.204 344.259 112.714 343.579C113.281 342.816 114.536 341.022 114.632 340.883C114.797 340.584 115.052 340.512 115.357 340.578C115.784 340.646 115.929 340.766 115.936 341.203C115.933 341.717 115.883 342.238 115.861 342.779C115.832 343.419 115.855 344.074 116.001 344.73C116.146 345.387 116.282 345.459 116.843 345.063C117.385 344.694 117.811 344.225 118.205 343.714C119.127 342.494 119.802 341.125 120.219 339.681C120.408 338.988 120.504 338.579 120.523 338.283C120.332 337.513 120.714 336.808 121.233 336.712C121.611 336.642 121.715 336.941 121.577 337.649L121.501 338.029C121.838 339.065 123.443 339.697 124.671 339.47C125.969 339.231 127.376 338.654 129.412 337.522C129.635 337.408 129.534 337.524 128.844 338.017C126.984 339.312 125.545 339.846 124.601 340.02C123.299 340.236 122.154 339.983 121.291 339.142L121.145 339.804C120.473 342.246 119.583 343.508 118.639 344.61C118.217 345.102 117.731 345.509 117.12 345.768ZM138.19 342.151C138.072 342.172 137.954 342.194 137.804 342.173C137.278 342.099 136.7 342.011 136.725 341.616C136.979 340.08 137.351 338.791 137.626 337.374C138.249 334.135 138.346 332.677 138.233 332.064C138.168 331.71 138.033 331.637 137.891 331.663C136.616 331.898 130.507 335.295 130.816 336.702C131.078 336.8 131.303 336.832 131.325 336.95C131.351 337.091 131.113 337.257 131.008 337.35C131.315 337.952 131.421 338.396 131.471 338.802C131.612 340.094 130.173 342.214 129.229 342.388C127.954 342.623 127.225 342.245 127.056 341.325C126.855 340.239 127.523 338.7 128.056 338.016C128.647 337.248 129.052 336.93 129.579 336.613C129.803 335.18 134.261 332.625 135.629 331.836C136.223 331.483 136.943 331.155 137.627 331.028C138.713 330.828 139.575 331.133 139.792 332.313C140.075 333.847 139.449 336.403 139.302 337.992C140.448 335.34 141.138 333.919 142.122 332.64C142.204 332.552 142.294 332.511 142.435 332.484C142.86 332.406 143.507 332.604 143.636 332.775C144.181 333.48 144.421 334.388 145.084 334.802C145.77 335.213 146.516 335.026 147.112 334.819C148.925 334.192 149.981 333.436 150.572 332.936C150.763 332.779 150.827 332.865 150.688 333.037C149.816 334.393 148.101 335.149 146.59 335.428C145.103 335.702 143.714 335.446 142.113 333.911C139.046 339.382 138.827 342.033 138.19 342.151ZM128.922 341.786C129.63 341.655 130.795 339.634 130.564 338.383C130.512 338.1 130.426 337.896 130.241 337.687C129.677 337.937 128.477 340.428 128.686 341.561C128.72 341.75 128.828 341.803 128.922 341.786ZM153.067 339.529C151.203 339.873 149.566 338.808 149.14 336.495C148.422 332.601 155.203 317.366 158.814 316.7C159.215 316.626 159.849 316.753 159.931 317.201C160.428 319.892 152.598 330.366 151.438 332.02C151.085 333.281 150.756 334.537 150.656 335.849C150.55 337.919 151.12 339.424 153.032 339.072C155.51 338.615 159.325 334.689 161.391 332.259C162.071 331.45 162.476 331.131 162.498 331.249C162.511 331.32 162.385 331.563 162.092 331.958C160.068 334.748 156.466 338.902 153.067 339.529ZM152.06 330.099C156.189 324.432 158.183 321.087 159.125 318.253C159.53 317.007 158.884 317.077 158.263 317.948C157.373 319.211 156.17 321.287 155.226 323.048C153.991 325.35 152.874 327.631 152.06 330.099ZM161.797 338.212C161.49 338.268 161.17 338.254 160.889 338.184C160.259 338.08 159.904 337.609 159.778 336.924C159.482 335.32 160.507 332.543 162.283 331.191C162.755 330.835 163.181 330.635 163.583 330.561C164.22 330.443 164.867 330.641 165.803 330.957C166.375 330.217 166.765 329.29 167.3 328.484C167.939 327.317 168.773 326.284 169.305 325.064C169.63 323.784 169.936 322.531 170.317 321.29C170.501 320.304 174 311.092 176.101 310.705C176.408 310.648 176.674 310.77 176.913 311.141C177.216 311.988 175.237 316.477 174.092 318.47C173.189 320.321 171.888 322 171.223 323.953C170.844 325.073 170.004 328.986 170.461 331.464C170.691 332.715 171.252 333.637 172.364 333.578C173.211 333.544 175.383 332.216 177.85 329.979L177.863 330.05C177.402 330.989 175.013 333.651 172.983 334.025C170.458 334.491 169.106 332.983 168.736 330.977C168.553 329.986 168.603 328.805 168.834 327.542C166.642 330.875 165.253 334.719 162.665 337.759C162.417 338 162.127 338.151 161.797 338.212ZM171.719 321.348C173.434 318.079 175.41 315.03 176.15 311.501C175.641 311.522 173.407 316.742 172.718 318.431C172.385 319.273 172.042 320.19 171.719 321.348ZM161.498 337.388C162.318 337.066 164.295 333.895 165.222 332.04C165.385 331.863 164.582 331.084 163.975 331.367C162.676 331.997 160.925 335.468 161.498 337.388ZM179.982 334.345C179.458 334.417 178.533 334.295 178.529 333.881C178.56 333.387 178.96 332.508 179.224 332.484C180.578 332.283 181.063 332.535 181.129 332.889C181.237 333.479 180.239 334.42 179.982 334.345ZM184.957 314.685C183.771 314.342 185.591 308.857 185.821 308.253C186.057 307.551 187.062 307.707 187.473 307.948C187.585 308.025 187.592 308.195 187.479 308.509C186.612 311.085 184.882 313.747 184.957 314.685ZM188.733 313.988C187.548 313.645 189.367 308.16 189.597 307.557C189.834 306.854 190.839 307.01 191.249 307.252C191.361 307.329 191.368 307.498 191.255 307.812C190.388 310.388 188.658 313.05 188.733 313.988Z" fill="#415064"/>
<path d="M194.939 466.395C194.939 467.281 195.63 468 196.482 468C197.334 468 198.025 467.281 198.025 466.395C198.025 465.509 197.334 464.791 196.482 464.791C195.63 464.791 194.939 465.509 194.939 466.395Z" fill="#B0752A"/>
<path d="M165.54 466.395C165.54 467.281 166.231 468 167.084 468C167.936 468 168.627 467.281 168.627 466.395C168.627 465.509 167.936 464.791 167.084 464.791C166.231 464.791 165.54 465.509 165.54 466.395Z" fill="#B0752A"/>
<path d="M136.141 466.395C136.141 467.281 136.832 468 137.684 468C138.537 468 139.228 467.281 139.228 466.395C139.228 465.509 138.537 464.791 137.684 464.791C136.832 464.791 136.141 465.509 136.141 466.395Z" fill="#B0752A"/>
<path d="M105.695 466.395C105.695 467.281 106.408 468 107.288 468C108.168 468 108.881 467.281 108.881 466.395C108.881 465.509 108.168 464.791 107.288 464.791C106.408 464.791 105.695 465.509 105.695 466.395Z" fill="#B0752A"/>
<path d="M75.3476 466.395C75.3476 467.281 76.0607 468 76.9404 468C77.8201 468 78.5332 467.281 78.5332 466.395C78.5332 465.509 77.8201 464.791 76.9404 464.791C76.0607 464.791 75.3476 465.509 75.3476 466.395Z" fill="#B0752A"/>
<path d="M45.001 466.395C45.001 467.281 45.7141 468 46.5937 468C47.4734 468 48.1865 467.281 48.1865 466.395C48.1865 465.509 47.4734 464.791 46.5937 464.791C45.7141 464.791 45.001 465.509 45.001 466.395Z" fill="#B0752A"/>
</svg>
