<svg width="268" height="494" viewBox="0 0 268 494" fill="none" xmlns="http://www.w3.org/2000/svg">
<path d="M260.938 1.60433C260.938 2.49038 261.629 3.20866 262.481 3.20866C263.333 3.20866 264.024 2.49038 264.024 1.60433C264.024 0.718283 263.333 0 262.481 0C261.629 0 260.938 0.718283 260.938 1.60433Z" fill="#B0752A"/>
<path d="M231.539 1.60433C231.539 2.49038 232.23 3.20866 233.083 3.20866C233.935 3.20866 234.626 2.49038 234.626 1.60433C234.626 0.718283 233.935 0 233.083 0C232.23 0 231.539 0.718283 231.539 1.60433Z" fill="#B0752A"/>
<path d="M202.14 1.60433C202.14 2.49038 202.831 3.20866 203.683 3.20866C204.536 3.20866 205.227 2.49038 205.227 1.60433C205.227 0.718283 204.536 0 203.683 0C202.831 0 202.14 0.718283 202.14 1.60433Z" fill="#B0752A"/>
<path d="M171.694 1.60433C171.694 2.49037 172.407 3.20865 173.287 3.20865C174.167 3.20865 174.88 2.49037 174.88 1.60433C174.88 0.71828 174.167 0 173.287 0C172.407 0 171.694 0.71828 171.694 1.60433Z" fill="#B0752A"/>
<path d="M141.347 1.60433C141.347 2.49037 142.06 3.20865 142.939 3.20865C143.819 3.20865 144.532 2.49037 144.532 1.60433C144.532 0.71828 143.819 0 142.939 0C142.06 0 141.347 0.71828 141.347 1.60433Z" fill="#B0752A"/>
<path d="M111 1.60433C111 2.49037 111.713 3.20865 112.593 3.20865C113.472 3.20865 114.186 2.49037 114.186 1.60433C114.186 0.71828 113.472 0 112.593 0C111.713 0 111 0.71828 111 1.60433Z" fill="#B0752A"/>
<path d="M8.10017 123.795C6.91436 123.452 8.73367 117.967 8.96397 117.364C9.20046 116.661 10.2055 116.817 10.6161 117.059C10.7279 117.136 10.7348 117.306 10.6218 117.619C9.75468 120.195 8.0248 122.857 8.10017 123.795ZM11.8765 123.099C10.6907 122.756 12.51 117.271 12.7403 116.667C12.9768 115.965 13.9818 116.121 14.3924 116.362C14.5042 116.439 14.5111 116.609 14.3981 116.923C13.531 119.499 11.8011 122.161 11.8765 123.099ZM40.5952 148.527C40.1323 148.003 39.8079 147.037 39.5989 145.904C38.9721 142.506 39.3157 137.488 39.3753 137.282C34.2611 143.692 29.1135 147.936 24.0155 148.876C21.0652 149.42 18.1329 149.4 15.7187 147.161C14.6042 146.146 13.9933 144.819 13.7191 143.332C11.66 132.168 25.5805 111.712 38.3964 109.348C40.2373 109.009 42.0945 109.154 43.8097 109.985C45.8944 110.967 46.8792 112.469 47.1883 114.145C47.5017 115.844 47.1027 117.651 46.6224 119.545C46.3419 120.671 45.4901 122.536 45.0634 122.737C44.684 122.929 43.5566 122.771 43.4913 122.417C43.4347 122.11 44.0502 121.875 44.1334 121.664C44.9343 120.052 45.9062 116.456 45.4578 114.025C45.2575 112.939 44.7225 111.891 43.6447 110.943C42.3003 109.873 40.7779 109.69 39.2201 109.977C29.0713 111.849 13.3995 130.749 15.5552 143.628C16.0695 146.681 19.1533 148.846 23.2433 148.262C27.9469 147.565 32.7591 143.09 36.085 139.158C37.81 137.131 39.1306 134.765 40.4556 132.421L41.3509 130.792C41.1385 130.831 40.4329 131.108 39.8 131.249C39.9776 131.021 40.3124 130.984 40.5416 130.77C29.8806 133.835 27.5469 136.267 26.4612 136.467C26.2016 136.515 25.6003 136.43 25.945 136.05C27.5719 134.285 40.1271 129.846 41.9655 129.361C42.2008 129.049 42.2125 128.583 42.9442 128.448C43.5106 128.344 43.8933 128.566 44.0182 128.714C46.5752 128.023 48.544 127.318 50.1962 127.013C51.0694 126.852 51.7669 126.796 52.2223 126.883C52.6863 127.017 52.8776 127.129 52.895 127.223C52.9211 127.365 52.5286 127.486 52.0566 127.573C51.6081 127.656 51.0845 127.728 50.8957 127.763C48.8187 128.146 44.8637 129.461 43.4483 129.99C41.3416 133.918 40.6399 137.39 40.3923 141.341C40.2537 143.368 40.1367 145.512 40.4371 147.141C40.5198 147.589 40.5702 147.995 40.7815 148.346C41.0207 148.717 40.9375 148.928 40.5952 148.527ZM50.6321 135.206C50.2824 135.295 49.4619 135.08 49.3269 134.348C49.3139 134.278 49.2964 134.183 49.307 134.108C49.2479 131.141 50.4061 127.365 51.0407 126.174C51.0941 126.066 51.227 125.993 51.3922 125.963C51.6754 125.91 52.0748 125.959 52.3649 126.076C52.627 126.174 52.8383 126.526 52.5725 126.672C52.1781 126.916 51.4361 130.567 51.1913 133.077C52.8602 130.085 54.4553 127.618 55.899 125.522C55.9952 125.382 56.2008 125.173 56.4604 125.125C57.6169 124.912 57.9743 126.189 58.3639 126.58C60.603 129.194 62.0372 129.295 64.8426 128.363C64.4511 124.652 66.6668 122.242 68.3425 121.933C69.617 121.698 70.7563 122.318 71.0037 123.395C71.3488 124.869 68.9164 127.294 66.6886 128.315C66.9816 130.433 67.9953 130.637 68.8922 130.471C69.4587 130.367 69.9754 130.125 70.2263 130.03C73.0162 128.881 76.0485 126.003 78.2827 123.297C79.1409 122.26 78.1129 124.89 73.8124 128.832C72.1177 130.096 70.7824 130.928 69.5315 131.159C67.1241 131.603 65.4723 130.321 64.9514 128.953C61.8094 130.045 58.8564 129.516 56.1414 126.307C55.0765 127.943 53.7552 130.042 52.7208 131.843C52.0732 132.963 51.2414 135.069 50.6321 135.206ZM66.7381 127.525C69.2397 126.136 70.122 124.436 69.8782 123.114C69.7911 122.642 69.4364 122.439 68.988 122.522C68.0675 122.692 66.7659 124.103 66.7381 127.525ZM100.389 126.029C98.6185 126.355 96.3779 125.719 95.873 122.981C95.6945 122.014 96.0641 119.651 96.5172 118.006C94.7271 120.606 93.3386 122.472 92.3476 123.583C91.1596 124.949 90.2747 125.576 89.2834 125.758C88.6225 125.88 87.9505 125.809 87.1063 125.599C85.6994 125.248 85.0514 124.513 84.0219 123.166C83.9852 123.099 83.9529 123.057 83.7311 122.78C81.5312 126.334 80.0633 128.167 79.2615 128.583C79.1286 128.656 78.9677 128.711 78.8025 128.741C77.882 128.911 76.5888 128.515 76.37 127.725C76.0492 126.515 76.8276 124.517 78.3391 122.921C79.2296 121.927 80.6766 121.172 81.7387 120.976C82.2108 120.889 82.6959 120.872 83.1127 121.015C83.1505 120.691 83.3219 120.562 83.5343 120.522C83.7703 120.479 84.0753 120.545 84.3524 120.591C84.6101 120.666 84.7822 120.805 84.9053 121.075C85.5677 122.417 85.9648 123.247 86.8066 124.239C87.431 124.978 88.1056 125.195 88.7429 125.077C89.1205 125.008 89.4956 124.792 89.8577 124.506C90.3054 124.155 90.8451 123.64 91.4574 122.99C91.6393 122.786 91.8212 122.581 92.0504 122.368C93.632 120.49 94.9801 118.802 96.7716 116.739C97.2526 115.112 97.4426 114.687 97.6133 114.289C95.7836 114.822 93.7781 115.46 92.6521 115.839C91.7577 116.15 91.1379 116.362 90.7838 116.428C90.4062 116.497 90.054 116.44 89.7316 116.28C89.6757 116.241 89.6434 116.199 89.6347 116.151C89.6173 116.057 89.7458 115.96 90.0247 115.884C92.8233 114.782 95.6051 113.854 98.0826 113.129C98.5221 112.072 98.9555 111.113 99.4019 110.226C101.813 105.437 103.471 103.179 104.285 103.224C104.667 103.178 104.826 103.246 104.856 103.411C104.882 103.553 104.846 103.755 104.768 103.989C104.608 104.58 104.23 105.308 103.745 106.252L103.42 106.873C103.183 107.307 102.636 108.311 101.756 109.889C100.963 111.28 100.527 112.092 100.367 112.415C101.738 112.04 103.074 111.745 104.278 111.523C106.851 111.048 108.782 110.936 108.843 111.266C108.852 111.314 108.818 111.393 108.732 111.458C108.332 111.8 107.126 112.144 105.115 112.491C105.173 112.407 105.283 112.338 105.439 112.26L105.861 112.036C103.594 112.576 102.096 112.926 99.7989 113.569C97.9086 118.14 97.2925 121.548 97.6234 123.342C97.7888 124.239 98.237 125.742 99.6531 125.481C99.9127 125.433 100.239 125.349 100.637 125.129C102.179 124.356 103.434 123.222 104.629 122.025C104.791 121.849 104.914 121.851 104.918 121.874C104.522 123.167 101.734 125.781 100.389 126.029ZM78.7421 127.752C78.9545 127.712 79.1923 127.546 79.3786 127.366C80.8926 125.915 82.2698 123.855 83.4763 122.193C83.1551 121.642 82.5389 121.609 82.1141 121.687C81.2408 121.848 80.4037 122.735 79.6014 123.81C78.9383 124.714 78.4515 125.78 78.3163 126.634C78.2593 126.986 78.2556 127.231 78.2861 127.396C78.3427 127.703 78.5296 127.791 78.7421 127.752ZM115.903 123.167C115.596 123.224 115.276 123.21 114.995 123.14C114.365 123.036 114.01 122.565 113.884 121.88C113.588 120.275 114.613 117.499 116.389 116.147C116.861 115.791 117.287 115.59 117.689 115.516C118.326 115.399 118.973 115.597 119.909 115.912C120.481 115.172 120.871 114.246 121.406 113.44C122.045 112.273 122.879 111.24 123.411 110.019C123.736 108.739 124.042 107.487 124.423 106.245C124.607 105.259 128.106 96.048 130.207 95.6605C130.514 95.6039 130.78 95.7256 131.019 96.0964C131.322 96.9435 129.344 101.433 128.198 103.426C127.295 105.276 125.994 106.956 125.329 108.909C124.95 110.028 124.11 113.942 124.567 116.42C124.797 117.671 125.358 118.592 126.47 118.534C127.317 118.499 129.489 117.172 131.956 114.935L131.969 115.006C131.508 115.945 129.119 118.606 127.089 118.981C124.564 119.447 123.212 117.939 122.842 115.933C122.659 114.941 122.71 113.761 122.94 112.498C120.748 115.831 119.359 119.675 116.771 122.714C116.523 122.955 116.233 123.106 115.903 123.167ZM125.825 106.304C127.54 103.035 129.516 99.9856 130.256 96.4568C129.747 96.4774 127.513 101.697 126.824 103.386C126.491 104.229 126.148 105.146 125.825 106.304ZM115.604 122.344C116.424 122.022 118.401 118.85 119.328 116.996C119.491 116.819 118.688 116.04 118.081 116.323C116.782 116.953 115.031 120.424 115.604 122.344ZM144.707 119.319C143.802 119.437 143.329 119.256 143.264 118.902C143.12 118.123 145.471 116.445 146.483 115.453C146.152 114.318 145.51 113.484 144.905 112.717C140.669 117.404 137.767 119.135 135.572 119.54C133.164 119.984 131.849 118.542 131.514 116.725C131.2 115.026 131.753 112.996 133.112 111.891C133.746 111.359 134.393 110.898 135.148 110.759C135.62 110.672 136.114 110.703 136.634 110.875C137.008 111.05 137.197 111.284 137.254 111.591C137.302 111.85 137.232 112.132 137.114 112.422C136.411 113.772 134.762 114.491 133.418 115.007C133.278 115.57 133.146 119.352 135.459 118.926C138.763 118.316 142.866 113.704 144.371 112.206C144.188 111.874 144.069 111.627 144.022 111.367C143.778 110.046 144.963 108.534 145.907 108.091C146.13 107.977 146.38 107.882 146.616 107.838C146.994 107.768 147.364 107.92 147.425 108.25C147.568 109.029 146.86 110.087 145.885 111.414C146.127 112.199 147.065 113.051 147.745 114.488C150.454 112.499 154.457 109.858 156.095 108.945C156.626 108.652 156.445 109.125 156.003 109.377C153.738 110.991 149.69 113.519 147.908 115.239C148.381 117.275 147.018 119.015 144.707 119.319ZM133.652 114.159C134.739 113.836 136.576 112.545 136.262 111.505C136.195 111.273 136.106 111.192 135.87 111.236L135.847 111.24C134.572 111.475 133.725 113.364 133.652 114.159ZM144.578 118.488C145.4 118.312 146.196 117.336 146.297 116.561C145.715 117.107 144.824 117.833 144.578 118.488ZM156.646 106.964C156.323 107.195 156.134 107.23 156.262 106.864C156.586 105.975 156.897 104.356 156.897 103.16C156.915 102.864 156.964 102.733 157.284 102.747C157.726 102.763 158.328 103.116 158.379 103.789C158.45 104.435 157.518 106.267 156.646 106.964ZM157.42 114.729C156.282 114.914 154.448 114.496 154.428 112.669C154.423 111.45 154.751 110.316 155.356 109.228C155.588 108.77 156.621 108.677 156.98 108.904C157.143 108.996 157.165 109.114 157.12 109.269C157.013 109.484 156.93 109.694 156.843 109.881C156.482 110.704 156.22 111.534 156.089 112.412C156.037 112.788 156.035 113.178 156.152 113.547C156.328 114.101 156.613 114.194 157.175 114.066C158.413 113.765 162.951 110.316 164.908 108.491C165.033 108.371 165.152 108.226 165.281 108.13C165.362 108.041 165.379 107.867 165.557 107.908C165.5 107.992 165.47 108.095 165.388 108.183C165.003 108.742 164.526 109.196 164.053 109.674C162.554 111.073 160.997 112.556 159.364 113.76C158.76 114.189 158.156 114.618 157.42 114.729ZM162.082 133.881C161.941 133.907 161.799 133.933 161.649 133.912C160.384 133.804 159.925 133.034 159.747 132.066C159.372 130.037 160.833 127.107 161.91 125.273C163.219 123.104 164.75 121.089 166.426 119.193C167.959 117.446 169.584 115.804 171.205 114.139C171.654 111.811 172.202 109.489 171.987 106.868C169.911 109.374 167.227 112.554 165.363 112.898C165.103 112.946 164.839 112.97 164.562 112.923C163.957 112.816 163.215 112.367 163.093 111.706C162.997 111.187 163.439 110.007 163.832 109.227C165.052 106.976 167.544 104.613 169.901 104.422C171.319 104.307 172.882 104.971 172.899 105.992C172.926 106.134 172.853 106.269 172.808 106.424C172.813 106.448 173.224 106.957 173.315 107.453C173.607 109.034 173.381 110.589 173.151 112.12C173.652 111.662 174.188 111.124 174.684 110.642C176.744 108.578 178.864 106.576 181.053 104.684C181.1 104.675 181.115 104.623 181.139 104.619C181.233 104.602 181.293 104.395 181.381 104.477C181.409 104.496 181.409 104.496 181.413 104.52C181.427 104.59 181.294 104.664 181.232 104.724C179.87 106.073 178.504 107.399 177.17 108.768C175.726 110.205 174.367 111.701 172.952 113.158C172.149 117.406 170.695 121.432 168.853 125.335C168.018 127.027 165.08 133.328 162.366 133.829L162.082 133.881ZM165.085 112.315C165.35 112.168 165.593 112.026 165.83 111.86C166.972 111.039 168.046 110.109 169.022 109.05L170.978 106.957C171.184 106.748 171.385 106.516 171.632 106.397C171.831 106.287 171.94 106.218 171.807 106.023L171.759 105.763C171.571 105.139 171.072 104.816 170.505 104.921C169.302 105.143 167.349 106.992 166.585 108.011C165.86 108.975 165.265 109.987 164.942 111.145C164.857 111.478 164.796 111.807 164.809 112.146L164.822 112.217C164.848 112.358 164.928 112.392 165.085 112.315ZM161.77 133.377C164.301 132.813 166.713 126.437 167.497 124.731C168.846 121.725 170.036 118.65 170.856 115.423C169.917 116.548 168.898 117.639 167.977 118.736C166.233 120.791 164.493 122.869 163.089 125.178C161.915 127.152 160.469 130.03 160.861 132.154C160.957 132.673 161.203 133.482 161.77 133.377ZM189.571 107.359C188.453 107.516 187.284 107.268 186.477 106.465C185.879 105.868 185.476 105.137 185.12 104.397C184.997 104.127 184.887 103.928 184.595 104.201C184.18 104.595 183.844 105.023 183.512 105.475C182.792 106.462 182.071 107.449 181.345 108.412C181.211 108.608 181.072 108.78 180.905 108.933C180.493 109.351 179.824 109.425 179.321 109.079C179.125 108.944 179.039 108.74 179.023 108.524C178.962 108.193 179.004 107.893 179.066 107.564C179.3 106.056 179.899 104.408 180.412 103.484C180.668 103.022 181.677 102.933 182.036 103.16C182.2 103.252 182.245 103.366 182.177 103.525C182.093 103.735 181.987 103.95 181.782 104.427C181.191 105.854 180.822 106.898 180.565 108.019C181.415 106.935 183.21 104.628 184.224 103.513C184.895 102.779 186.123 103.09 186.603 103.709C187.402 104.733 187.531 105.563 188.308 106.469C188.618 106.827 188.99 106.856 189.397 106.683C189.871 106.474 190.289 106.226 190.722 105.927C192.072 105.043 193.289 103.964 194.421 102.828C194.522 102.712 194.633 102.521 194.769 102.593C194.824 102.632 194.666 102.832 194.589 102.944C193.558 104.5 192.231 105.77 190.746 106.85C190.379 107.112 190 107.304 189.571 107.359Z" fill="#B0752A"/>
<path d="M7.51606 192.099C7.37445 192.125 7.28371 191.898 7.14693 191.289C6.99457 190.463 7.6495 188.853 7.88736 188.687C7.97306 188.623 8.09107 188.601 8.20908 188.579C8.79913 188.47 9.67559 188.723 9.75143 189.002C9.72416 189.251 9.4627 189.422 9.30871 189.645C8.16365 190.979 7.77568 192.051 7.51606 192.099ZM17.2517 200.822C16.7089 200.922 16.1678 200.9 15.7187 200.714C15.4286 200.597 15.2758 200.43 15.241 200.241C15.0407 199.155 17.2218 197.484 18.2868 196.775C18.1755 196.039 17.712 195.246 17.0589 194.219C13.7832 197.63 10.9028 199.479 8.23148 199.948C7.09423 200.133 5.25995 199.715 5.24029 197.888C5.23505 196.669 5.23369 196.132 5.83842 195.044C6.07125 194.586 7.10354 194.494 7.4626 194.72C7.62598 194.812 7.64775 194.93 7.60306 195.085C7.49627 195.3 7.41309 195.51 7.32555 195.697C6.91146 196.628 6.59498 197.955 6.91759 199.043C7.02139 199.341 7.32889 199.553 7.89534 199.448C11.6822 198.677 15.1405 195.33 16.5376 193.51C16.2418 192.833 16.1149 191.88 16.8221 190.554C17.6019 189.092 18.6968 188.28 19.452 188.141C19.8769 188.062 20.1993 188.222 20.2689 188.6C20.3603 189.096 20.0109 190.112 19.0397 191.462C18.6889 191.942 18.3039 192.501 18.1692 192.697C18.2954 193.381 19.6281 194.917 20.0121 195.676C20.6934 195.135 22.944 193.842 25.0153 192.898C25.7829 192.562 24.4626 193.342 24.0533 193.637C21.499 195.402 21.0556 195.776 20.321 196.424C20.8296 198.917 18.951 200.509 17.2517 200.822ZM18.0037 191.8C19.1307 190.103 19.6236 188.939 19.4348 188.973C19.3404 188.991 19.1628 189.219 18.8163 189.722C18.5276 190.141 18.103 191.147 18.0037 191.8ZM16.4639 199.991C17.2744 199.622 18.4369 198.383 18.4305 197.554C17.4424 198.151 15.8031 200.113 16.4639 199.991ZM34.917 194.83C34.4685 194.913 33.9896 194.831 33.5125 194.626C33.0914 194.459 32.9615 194.02 32.8918 193.642C32.8048 193.17 32.8873 192.691 32.9977 192.231C33.2317 191.383 33.6203 190.579 34.1488 189.872C35.0131 188.736 36.5979 187.272 38.0892 187.022C38.7501 186.9 39.5122 186.93 40.0216 187.178C39.8768 186.789 40.0718 186.656 40.3314 186.608C40.6426 186.575 40.9475 186.641 41.2376 186.758C41.4246 186.846 41.5259 186.998 41.5843 187.182C41.851 188.231 42.5955 189.754 43.2391 190.465C43.7063 191.013 44.325 191.192 45.0803 191.052C46.4964 190.791 47.9744 189.542 48.8692 188.572C49.0319 188.396 49.2095 188.168 49.3915 187.963C49.4343 187.931 49.4536 187.903 49.5051 187.918C49.5846 187.952 49.5225 188.012 49.5269 188.036C49.4611 188.341 49.3158 188.612 49.1662 188.859C48.5869 189.82 46.8325 191.29 45.3928 191.556C44.3307 191.752 43.3406 191.544 42.2765 190.935C41.4832 190.471 40.7866 189.209 40.2839 188.203C38.9335 190.673 37.9903 192.043 36.777 193.536C36.4752 193.884 36.1175 194.194 35.7511 194.457C35.4704 194.655 35.2002 194.778 34.917 194.83ZM34.9596 193.871C36.2476 193.048 37.1821 191.631 37.931 190.663C38.6029 189.807 38.953 189.059 39.5559 188.093C39.3236 187.892 39.0527 187.747 38.6322 187.849C37.2484 188.153 35.3291 190.581 34.7115 192.526C34.5284 193.121 34.5018 193.638 34.541 193.85C34.5801 194.063 34.8075 193.972 34.9596 193.871ZM60.115 190.671C58.3448 190.998 56.6148 190.218 56.2927 188.472C56.0968 187.41 56.5336 185.279 58.2967 183.856C58.7208 183.509 59.1711 183.304 59.6195 183.221C60.1624 183.121 60.7357 183.186 61.3202 183.445C61.7134 183.592 62.0297 183.851 62.1552 184.267C62.1919 184.333 62.2006 184.38 62.2136 184.451C62.2354 184.569 62.2336 184.692 62.1845 184.823C62.1144 185.104 61.9281 185.285 61.6685 185.333C61.5505 185.354 61.4281 185.353 61.2734 185.308C61.0393 185.229 60.9187 185.105 60.8988 184.865C60.8876 184.671 60.9 184.474 60.8415 184.289C60.7526 183.94 60.5762 183.777 60.293 183.829C60.1986 183.847 60.1085 183.888 60.0185 183.929C59.5918 184.129 59.2577 184.435 58.9602 184.807C58.1685 185.807 57.372 187.443 57.5896 188.623C57.7333 189.402 58.1714 190.322 59.5149 190.196C60.8347 190.075 63.0394 188.399 64.0547 187.553C65.9184 186.013 67.351 184.651 69.1588 183.073C69.283 182.952 69.4544 182.823 69.5829 182.726C69.6022 182.698 69.6686 182.661 69.6966 182.681C69.7805 182.738 69.6948 182.803 69.6755 182.831C69.4464 183.044 69.2731 183.296 69.0632 183.481C67.3095 185.22 66.0297 186.749 64.2027 188.355C63.1532 189.281 61.4131 190.432 60.115 190.671ZM78.3546 187.893C77.9199 188.314 77.1429 188.336 76.7061 187.953C76.4738 187.751 76.4495 187.487 76.5196 187.206C77.1507 184.674 79.4171 178.569 79.2082 177.436C79.1559 177.153 78.9454 177.07 78.7329 177.109C76.1839 177.579 72.5075 180.405 71.4912 182.569C71.2478 183.102 71.2902 183.729 71.3257 184.186C71.4036 185.27 71.3224 186.285 70.8742 187.296C70.4899 188.123 69.9372 188.567 69.3472 188.675C69.2055 188.702 69.0639 188.728 68.9136 188.707C68.5186 188.682 68.1167 188.487 67.7681 188.186C67.555 187.957 67.3997 187.644 67.3344 187.289C67.2952 187.077 67.3032 186.856 67.3156 186.658C67.383 185.304 68.7048 182.546 69.9793 182.311C70.1681 182.276 70.342 182.293 70.529 182.381C71.8762 179.496 77.0279 176.862 78.5384 176.584C79.4353 176.418 80.4018 176.631 80.6231 177.566C80.7643 178.199 80.693 178.871 80.6086 179.472C80.3575 181.154 79.453 183.395 78.5629 186.243C81.7671 182.578 83.2456 180.67 84.3313 180.469C85.3934 180.274 85.9321 181.077 86.2249 182.268C86.3443 182.783 86.5388 183.308 86.7526 183.806C87.1025 184.644 87.4336 184.851 87.9528 184.756C89.5813 184.455 91.8797 182.494 93.2154 181.003C93.3781 180.826 93.5557 180.598 93.7376 180.394C93.7805 180.362 93.7997 180.334 93.8513 180.349C93.9308 180.383 93.8687 180.443 93.8731 180.467C93.8073 180.772 93.662 181.043 93.5124 181.29C93.179 181.864 92.7145 182.389 92.2413 182.866C91.0334 183.992 89.92 185.101 88.5511 185.353C87.489 185.549 85.6467 185.352 85.0445 184.072C84.7618 183.465 84.4976 182.562 84.3514 181.637C84.3228 181.35 84.2364 181.146 83.898 181.428C82.2336 182.858 80.287 185.535 78.9197 187.252C78.7421 187.48 78.5601 187.684 78.3546 187.893ZM69.1893 188.216C70.2514 188.021 70.9123 185.385 70.5473 183.671C69.4444 184.704 68.7782 186.12 68.7294 187.179C68.7127 187.353 68.7172 188.303 69.1893 188.216ZM110.482 182.455C108.477 182.703 106.751 181.679 106.416 179.862C106.355 179.531 106.337 179.169 106.366 178.797C105.471 179.108 104.729 179.319 104.304 179.397C103.101 179.619 100.732 179.348 99.9631 178.221C99.261 179.839 98.4601 181.451 97.4871 182.924C97.1363 183.404 96.809 183.879 96.3743 184.301C96.1452 184.514 95.8558 184.665 95.5489 184.721C95.0769 184.808 94.57 184.707 94.183 184.461C93.7165 184.181 93.5456 183.651 93.4411 183.084C93.1059 181.267 93.8076 177.794 94.5157 177.664C94.8697 177.598 95.1747 177.664 95.4735 177.829C95.6369 177.921 95.6866 178.058 95.614 178.193C95.1737 178.982 95.0234 181.475 95.0149 182.355C95.0187 183.038 95.0822 183.514 95.1257 183.75C95.1649 183.962 95.2059 184.052 95.3003 184.035C95.3475 184.026 95.4096 183.966 95.5146 183.873C95.763 183.632 95.9878 183.396 96.1803 183.116C97.483 181.314 98.5708 179.405 99.3082 177.317C99.4063 177.054 99.4528 176.777 99.4285 176.513C99.4043 176.25 99.4272 175.977 99.4973 175.695C99.5867 175.386 99.7152 175.289 100.054 175.275C100.2 175.273 100.327 175.298 100.458 175.347C100.664 175.407 100.748 175.465 100.774 175.606C100.783 175.654 100.772 175.729 100.762 175.804C100.72 176.104 100.719 176.495 100.793 176.896C100.997 178.006 101.717 179.264 103.983 178.846C104.644 178.724 105.532 178.512 106.474 178.191C106.68 177.324 107.132 176.337 107.943 175.309C108.648 174.496 109.659 173.626 110.815 173.413C111.499 173.287 112.655 173.464 112.648 174.222C112.639 175.761 110.359 177.158 108.122 178.131C107.957 178.821 107.894 179.54 108.029 180.272C108.229 181.358 109.021 182.212 110.628 181.794C112.546 181.342 115.679 178.348 119.091 175.279C119.258 175.126 119.59 174.943 119.436 175.166C119.07 175.697 113.823 181.912 110.482 182.455ZM108.339 177.457C110.117 176.641 111.645 175.529 111.669 174.207C111.662 174.037 111.527 173.965 111.338 174C111.149 174.034 110.879 174.157 110.521 174.468C109.774 175.045 108.849 176.118 108.339 177.457ZM118.542 179.773C118.235 179.829 117.384 179.449 117.305 179.025C117.292 178.954 117.275 178.859 117.285 178.784C117.251 177.009 118.061 174.126 118.571 172.788C118.752 172.315 119.836 172.237 120.195 172.464C120.359 172.556 120.38 172.674 120.336 172.828C120.229 173.043 120.139 173.352 120.076 173.535C119.781 174.322 119.448 175.823 119.182 177.556C119.612 176.842 120.089 176.12 120.471 175.415C121.26 174 122.029 172.614 122.794 171.203C123.089 170.685 123.745 170.54 124.21 170.942C125.111 171.728 125.378 172.118 126.015 172.659C126.592 173.139 127.414 173.231 128.386 173.076C129.594 172.878 130.864 172.619 132.193 171.886C132.241 171.877 132.307 171.84 132.378 171.827C132.401 171.823 132.429 171.842 132.453 171.838C132.485 171.881 132.466 171.909 132.447 171.937C132.25 172.193 131.993 172.386 131.703 172.537C131.02 172.932 129.324 173.66 128.399 173.806C127.261 173.991 125.958 173.67 124.749 172.942C124.362 172.696 123.995 172.422 123.627 172.148C123.395 171.947 123.136 172.263 122.967 172.538C122.736 172.874 121.406 175.193 120.851 176.15C120.383 176.92 119.408 178.783 118.966 179.426C118.827 179.598 118.754 179.734 118.542 179.773ZM131.991 177.951C131.66 178.012 130.842 177.943 130.781 177.613C130.718 177.405 130.881 177.228 131.033 177.127C131.243 176.942 131.773 176.771 132.043 176.648C132.579 176.378 132.793 175.948 132.83 175.356C132.844 174.377 132.275 173.408 131.779 172.572C131.215 171.627 131.346 170.749 132.022 169.916C132.512 169.265 133.195 168.87 133.929 168.613C134.274 168.5 134.599 168.538 134.902 168.726C135.037 168.799 135.054 168.893 134.954 169.009C134.83 169.13 134.673 169.208 134.521 169.309C133.994 169.626 133.559 170.048 133.245 170.594C132.954 171.135 132.866 171.713 133.159 172.245C134.002 173.773 134.35 174.466 134.474 175.272C136.118 174.261 137.742 173.278 139.354 172.225C140.267 171.617 141.156 171.014 142.041 170.387C142.084 170.354 142.123 170.298 142.151 170.318C142.234 170.375 142.149 170.44 142.129 170.468C142.01 170.612 141.866 170.761 141.718 170.886C140.63 171.867 139.45 172.744 138.269 173.621C136.956 174.571 135.642 175.521 134.236 176.366C133.779 177.06 133.1 177.747 131.991 177.951ZM165.392 173.743C163.726 174.636 160.353 174.209 159.743 170.905C159.434 169.229 159.909 166.115 160.362 164.469C158.572 167.069 157.184 168.936 156.193 170.046C154.238 172.286 153.071 172.574 150.951 172.062C149.544 171.712 148.896 170.977 147.867 169.63C147.83 169.563 147.798 169.52 147.576 169.244C145.376 172.798 143.908 174.63 143.107 175.047C142.238 175.5 140.46 175.12 140.215 174.189C139.894 172.979 140.673 170.981 142.184 169.384C143.075 168.39 144.522 167.635 145.584 167.439C146.056 167.352 146.541 167.336 146.958 167.479C147.053 166.802 147.671 166.981 148.197 167.055C148.455 167.129 148.627 167.268 148.75 167.539C149.413 168.881 149.81 169.71 150.652 170.702C151.674 171.88 152.769 171.727 153.703 170.969C154.15 170.618 154.69 170.104 155.302 169.454C155.484 169.25 155.666 169.045 155.895 168.832C157.477 166.954 158.825 165.266 160.617 163.202C161.098 161.576 161.288 161.151 161.458 160.753C159.629 161.286 157.623 161.924 156.497 162.303C155.56 162.646 154.936 162.835 154.577 162.876C154.223 162.942 153.875 162.908 153.577 162.744C153.381 162.609 153.477 162.469 153.87 162.348C156.668 161.246 159.45 160.318 161.928 159.593C162.367 158.535 162.8 157.577 163.247 156.689C165.658 151.9 167.316 149.642 168.13 149.687C168.795 149.589 168.777 149.885 168.613 150.453C168.453 151.043 168.075 151.772 167.59 152.716L167.265 153.337C167.028 153.771 166.481 154.775 165.601 156.353C164.808 157.744 164.372 158.556 164.212 158.878C168.953 157.589 173.507 157.14 172.577 157.921C172.177 158.264 170.971 158.608 168.961 158.954C169.018 158.871 169.128 158.802 169.284 158.724L169.706 158.5C167.439 159.04 165.941 159.389 163.644 160.033C161.534 165.132 160.895 169.74 161.712 172.054C162.197 173.625 163.303 173.665 164.3 173.115C164.812 172.849 165.369 172.429 166.035 171.94L166.53 171.581C169.329 169.551 171.909 167.001 174.42 164.073C174.572 163.972 174.604 164.015 174.493 164.206L174.194 164.701C171.658 168.683 167.37 172.695 165.392 173.743ZM143.224 173.829C144.738 172.379 146.115 170.319 147.321 168.656C146.963 168.039 146.21 168.056 145.77 168.186C144.957 168.409 144.191 169.282 143.446 170.274C142.783 171.177 142.297 172.243 142.161 173.098C141.893 174.685 142.77 174.279 143.224 173.829ZM174.71 160.286C174.592 160.307 174.544 160.048 174.492 159.765C174.287 158.655 174.76 157.25 175.066 156.925C175.128 156.865 175.223 156.848 175.341 156.826C175.813 156.739 176.597 156.887 176.743 157.153C176.372 158.051 175.492 158.97 175.007 159.914C174.881 160.156 174.781 160.273 174.71 160.286ZM174.735 169.286C173.598 169.472 171.976 169.014 171.956 167.188C171.951 165.968 172.279 164.834 172.883 163.746C173.116 163.289 174.148 163.196 174.507 163.422C174.671 163.514 174.693 163.632 174.648 163.787C174.541 164.002 174.458 164.213 174.37 164.4C173.956 165.33 173.311 167.255 173.633 168.343C173.737 168.641 174.036 168.805 174.437 168.731C177.364 168.191 180.117 165.121 181.078 164.114C181.367 163.695 181.322 163.19 181.811 162.93C181.763 162.67 181.692 162.415 181.644 162.155C181.579 161.801 181.561 161.438 181.712 161.069C182.171 159.983 182.942 159.402 183.745 159.254C185.137 158.997 185.993 160.328 186.157 161.615C186.335 162.583 186.163 163.103 186.021 163.788C187.917 163.219 191.014 162.013 193.008 160.254C193.179 160.125 193.265 160.06 193.312 160.052C193.336 160.047 193.336 160.047 193.34 160.071C193.353 160.142 193.126 160.501 192.987 160.673C191.245 162.605 187.342 164.203 185.735 164.622C185.095 166.18 184.169 167.376 182.871 167.615C181.903 167.794 180.938 167.191 180.79 166.388C180.724 166.034 180.749 165.639 180.817 165.212C178.984 167.185 177.284 168.816 174.735 169.286ZM184.967 164.031C185.29 163.532 185.564 162.237 185.405 161.242C185.168 160.09 184.437 159.566 183.965 159.653C183.091 159.814 182.713 161.201 182.863 162.15C182.965 163.229 184.016 164.036 184.967 164.031ZM182.935 166.773C183.336 166.699 184.285 165.89 184.675 164.695C184.445 164.64 183.966 164.558 183.149 164.098C182.78 164.874 182.662 165.823 182.687 166.355C182.701 166.695 182.793 166.8 182.935 166.773ZM202.317 163.247C201.199 163.405 200.03 163.157 199.223 162.354C198.625 161.756 198.222 161.025 197.866 160.286C197.743 160.016 197.633 159.816 197.341 160.09C196.926 160.483 196.59 160.911 196.258 161.363C195.538 162.35 194.817 163.337 194.091 164.301C193.957 164.497 193.818 164.669 193.65 164.821C193.239 165.239 192.57 165.314 192.067 164.967C191.871 164.832 191.785 164.629 191.769 164.412C191.708 164.082 191.75 163.781 191.812 163.452C192.046 161.945 192.645 160.297 193.158 159.372C193.414 158.91 194.423 158.822 194.782 159.048C194.945 159.14 194.991 159.254 194.923 159.413C194.839 159.624 194.733 159.839 194.528 160.316C193.937 161.742 193.568 162.787 193.311 163.908C194.161 162.824 195.956 160.516 196.97 159.401C197.64 158.668 198.869 158.978 199.349 159.597C200.148 160.621 200.277 161.452 201.054 162.358C201.364 162.715 201.736 162.744 202.143 162.572C202.617 162.362 203.035 162.114 203.468 161.815C204.818 160.931 206.035 159.853 207.167 158.717C207.268 158.6 207.379 158.409 207.515 158.482C207.57 158.52 207.412 158.72 207.335 158.832C206.304 160.389 204.977 161.659 203.492 162.738C203.125 163.001 202.746 163.193 202.317 163.247Z" fill="#B0752A"/>
<path d="M9.38444 261.659C9.26643 261.681 9.11612 261.66 8.86704 261.633C8.36888 261.578 8.19244 261.415 8.14456 261.156C8.08797 260.849 8.21149 260.46 8.21264 260.069C8.59931 255.947 9.7275 251.346 10.6299 248.3C9.18241 249.714 7.55843 250.965 6.33182 251.46C5.87719 251.641 5.61505 251.543 5.92371 251.364C6.8969 250.819 9.71634 248.639 11.0346 247.054L11.1135 246.82C11.7081 245.148 12.2556 243.485 12.977 241.839C13.7747 239.813 16.8832 233.114 19.2906 232.67C19.5502 232.622 19.7993 232.649 20.0378 232.752C20.4267 232.875 20.6205 233.132 20.6902 233.51C21.1951 236.248 13.951 245.003 13.0692 246.044C11.6377 249.529 10.3429 256.138 10.4125 256.516C11.8617 254.052 14.8258 248.819 17.7524 248.28C18.0592 248.223 18.3748 248.214 18.7034 248.275C19.7923 248.489 20.2384 249.188 20.3907 250.014C20.5344 250.793 20.4079 251.695 20.2789 252.451C22.3973 251.498 24.3531 250.723 26.3075 249.411C25.9424 250.21 24.7972 250.617 24.2829 251.004C20.7014 253.154 20.0722 253.05 19.9424 253.538C18.8997 257.147 16.4256 259.214 14.7027 259.531C13.8294 259.692 13.161 259.376 13.0087 258.55C12.939 258.173 12.9743 257.703 13.1574 257.107C14.2363 254.224 18.884 253.489 18.8565 252.81C19.0738 252.136 19.3449 250.695 19.1664 249.727C19.062 249.161 18.7904 248.747 18.2581 248.772C15.3576 249.453 12.1105 255.665 11.2115 257.54C9.57992 260.867 9.85648 261.572 9.38444 261.659ZM13.5477 244.272C15.3026 242.142 20.2422 235.447 19.8721 233.441C19.846 233.299 19.7963 233.162 19.7081 233.081C17.3256 234.057 14.1076 242.411 13.5477 244.272ZM14.1839 258.968C15.5336 258.744 17.8771 255.969 18.3767 254.046C16.5749 254.598 13.6405 256.286 14.0497 258.505C14.0758 258.646 14.1299 258.807 14.1839 258.968ZM29.487 255.633C27.4827 255.881 25.7564 254.857 25.4212 253.04C25.1948 251.812 25.5901 250.251 26.9488 248.487C27.6765 247.669 28.7068 246.772 29.8676 246.582C30.5565 246.479 31.523 246.692 31.6536 247.4C31.6884 247.588 31.6804 247.81 31.5779 248.048C31.0745 249.288 28.9904 251.088 27.0545 252.104C26.9633 252.536 26.9516 253.001 27.0343 253.45C27.2346 254.535 28.0267 255.39 29.6335 254.972C31.5514 254.52 34.6844 251.526 38.0961 248.457C38.2632 248.304 38.5955 248.12 38.4415 248.344C38.0757 248.875 32.828 255.09 29.487 255.633ZM27.1941 251.273C28.3169 250.48 29.4826 249.655 30.319 248.5C30.5543 248.188 30.7313 247.692 30.6747 247.385C30.6442 247.22 30.5324 247.143 30.3436 247.178C30.1547 247.212 29.8846 247.335 29.5269 247.645C28.3507 248.546 27.6627 249.844 27.1941 251.273ZM40.0177 252.763C38.7654 252.458 38.0256 251.886 37.686 250.045C37.2202 247.52 38.5727 243.341 40.2396 239.544C37.5733 240.304 34.9287 241.182 32.7202 242.175C30.4567 241.812 32.4964 241.094 33.2578 240.856C34.4354 240.492 37.447 239.62 40.6003 238.721C41.9624 235.785 43.4283 233.147 44.3138 231.862C44.4336 231.717 44.2423 231.606 44.5074 231.191C44.811 230.72 45.3159 230.017 45.9002 229.348C46.2833 228.911 46.8864 228.873 47.2709 228.973C47.5803 229.063 47.5977 229.157 47.4244 229.409C46.2136 231.047 44.1379 234.481 42.3679 238.248C45.4784 237.382 48.4087 236.597 49.4708 236.401C50.6745 236.179 52.0193 236.59 52.2193 236.749C52.3591 236.845 52.338 236.995 52.1579 237.077C51.9306 237.168 51.671 237.216 51.4393 237.283C50.058 237.733 48.5929 238.125 47.1793 238.532C46.6495 238.703 45.9737 238.877 47.0842 238.282C47.8344 237.85 48.0381 237.764 48.3275 237.613C46.5145 237.972 44.2898 238.48 41.96 239.08C39.9002 243.658 38.4143 248.569 39.6255 251.298C40.0897 252.36 41.363 252.515 42.3965 252.032C42.9604 251.781 43.4597 251.445 43.9634 251.133C45.7743 249.969 47.0294 248.835 48.5993 247.422C49.1818 246.876 49.7127 246.314 50.2349 245.705C50.3163 245.617 50.4002 245.675 50.3468 245.782C49.9581 246.586 49.3738 247.255 48.7807 247.877C47.1836 249.538 45.4702 251.099 44.1008 252.01C42.4744 253.116 41.2743 253.093 40.0177 252.763ZM71.8991 247.811C69.8948 248.058 68.1685 247.034 67.8333 245.217C67.7723 244.887 67.7542 244.524 67.7833 244.152C66.889 244.464 66.1468 244.674 65.7219 244.752C64.5182 244.974 62.1498 244.703 61.3806 243.576L61.3552 243.703C60.683 246.145 59.7932 247.408 58.8494 248.509C58.4277 249.002 57.9415 249.409 57.3303 249.668C56.7428 249.923 56.5969 249.925 55.9825 249.77C55.4669 249.621 55.1377 249.291 55.014 248.753C54.8554 248.026 54.8192 247.3 54.8774 246.557C54.1118 247.699 53.4512 248.748 52.5241 249.676C52.1707 250.009 51.7894 250.324 51.2379 250.377C51.0254 250.416 50.8043 250.408 50.5745 250.353C49.7434 250.213 49.3687 249.77 49.358 248.918C49.1447 247.761 50.7144 242.908 51.9181 242.686C52.2014 242.634 52.681 242.984 52.7288 243.244C52.8072 243.669 52.5938 245.026 52.169 245.104C51.3665 245.252 50.7567 248.562 50.8612 249.128C50.9091 249.388 50.9588 249.525 51.0662 249.579C51.1694 249.608 51.2594 249.567 51.4929 249.378C51.9984 248.943 52.5504 248.231 53.0596 247.551C53.6265 246.788 54.8821 244.994 54.9783 244.855C55.1428 244.556 55.3981 244.484 55.7031 244.55C56.1304 244.618 56.2746 244.738 56.2821 245.176C56.2791 245.689 56.2289 246.21 56.2067 246.751C56.1783 247.391 56.2014 248.046 56.3469 248.702C56.4924 249.359 56.6278 249.431 57.1892 249.035C57.7314 248.667 58.1574 248.198 58.551 247.686C59.4731 246.466 60.0641 245.039 60.5651 243.653C60.8252 242.947 60.8703 242.133 60.8461 241.869C60.8218 241.605 60.8447 241.332 60.9148 241.051C61.0042 240.742 61.1328 240.645 61.4719 240.631C61.6179 240.628 61.7446 240.654 61.8756 240.703C62.0819 240.762 62.1657 240.82 62.1918 240.962C62.2006 241.009 62.19 241.084 62.1795 241.159C62.1373 241.46 62.1361 241.851 62.2101 242.252C62.4147 243.361 63.1349 244.619 65.4007 244.201C66.0615 244.08 66.9497 243.867 67.8913 243.547C68.0973 242.679 68.5499 241.693 69.3608 240.665C70.065 239.851 71.076 238.981 72.2325 238.768C72.917 238.642 74.0723 238.819 74.0657 239.577C74.0567 241.116 71.7762 242.513 69.5397 243.487C69.374 244.176 69.3115 244.896 69.4464 245.627C69.6467 246.713 70.4388 247.567 72.0456 247.149C73.9635 246.698 77.0964 243.704 80.5082 240.634C80.6753 240.481 81.0075 240.298 80.8536 240.522C80.4878 241.053 75.24 247.268 71.8991 247.811ZM69.757 242.812C71.5345 241.996 73.0622 240.885 73.0867 239.562C73.0799 239.393 72.9445 239.32 72.7556 239.355C72.5668 239.39 72.2967 239.513 71.939 239.823C71.1913 240.4 70.2666 241.474 69.757 242.812ZM83.3289 245.703C81.3246 245.95 79.5982 244.926 79.263 243.109C79.0367 241.882 79.432 240.32 80.7906 238.556C81.5184 237.739 82.5487 236.841 83.7095 236.651C84.3983 236.549 85.3648 236.761 85.4954 237.469C85.5303 237.658 85.5222 237.879 85.4198 238.117C84.9163 239.357 82.8322 241.157 80.8964 242.173C80.8052 242.605 80.7935 243.071 80.8762 243.519C81.0764 244.605 81.8686 245.459 83.4753 245.041C85.3933 244.59 88.5262 241.596 91.938 238.526C92.1051 238.373 92.4373 238.19 92.2833 238.413C91.9176 238.945 86.6698 245.16 83.3289 245.703ZM81.036 241.342C82.1588 240.549 83.3245 239.724 84.1609 238.569C84.3962 238.257 84.5731 237.761 84.5165 237.454C84.4861 237.289 84.3742 237.212 84.1854 237.247C83.9966 237.282 83.7264 237.405 83.3687 237.715C82.1925 238.615 81.5046 239.913 81.036 241.342ZM101.432 240.094C100.314 240.251 99.146 240.003 98.339 239.2C97.7407 238.603 97.3374 237.872 96.9813 237.132C96.8583 236.862 96.7483 236.663 96.4571 236.936C96.0416 237.33 95.7057 237.758 95.3741 238.209C94.6532 239.197 93.9323 240.184 93.207 241.147C93.0723 241.343 92.9332 241.515 92.7661 241.668C92.355 242.085 91.6855 242.16 91.1823 241.814C90.9866 241.679 90.9002 241.475 90.8846 241.258C90.8237 240.928 90.8659 240.627 90.9273 240.299C91.1617 238.791 91.7608 237.143 92.2736 236.219C92.53 235.757 93.5387 235.668 93.8978 235.895C94.0612 235.987 94.1065 236.1 94.0382 236.259C93.9551 236.47 93.8483 236.685 93.6434 237.162C93.0524 238.589 92.6837 239.633 92.4268 240.754C93.2762 239.67 95.0714 237.362 96.0861 236.248C96.7561 235.514 97.9848 235.824 98.4651 236.444C99.2641 237.468 99.3928 238.298 100.17 239.204C100.48 239.562 100.852 239.591 101.259 239.418C101.733 239.209 102.151 238.961 102.584 238.661C103.934 237.778 105.15 236.699 106.283 235.563C106.384 235.447 106.495 235.255 106.63 235.328C106.686 235.367 106.528 235.567 106.451 235.678C105.42 237.235 104.092 238.505 102.607 239.584C102.241 239.847 101.862 240.039 101.432 240.094ZM115.687 238.807C114.434 238.501 113.695 237.93 113.355 236.089C112.889 233.563 114.242 229.385 115.909 225.588C113.242 226.348 110.598 227.226 108.389 228.219C106.126 227.856 108.165 227.138 108.927 226.9C110.104 226.536 113.116 225.663 116.269 224.764C117.631 221.829 119.097 219.191 119.983 217.905C120.103 217.761 119.911 217.65 120.176 217.235C120.48 216.764 120.985 216.061 121.569 215.392C121.952 214.955 122.555 214.917 122.94 215.017C123.249 215.106 123.267 215.201 123.093 215.452C121.883 217.091 119.807 220.524 118.037 224.292C121.147 223.425 124.078 222.641 125.14 222.445C126.343 222.223 127.688 222.634 127.888 222.792C128.028 222.889 128.007 223.039 127.827 223.121C127.6 223.212 127.34 223.259 127.108 223.327C125.727 223.777 124.262 224.169 122.848 224.576C122.318 224.747 121.643 224.92 122.753 224.325C123.503 223.894 123.707 223.808 123.997 223.657C122.184 224.015 119.959 224.523 117.629 225.124C115.569 229.701 114.083 234.612 115.294 237.342C115.759 238.403 117.032 238.559 118.065 238.075C118.629 237.825 119.129 237.489 119.632 237.176C121.443 236.013 122.698 234.878 124.268 233.466C124.851 232.919 125.382 232.358 125.904 231.749C125.985 231.661 126.069 231.718 126.016 231.826C125.627 232.63 125.043 233.299 124.45 233.921C122.853 235.582 121.139 237.142 119.77 238.054C118.143 239.159 116.943 239.137 115.687 238.807ZM126.114 238.739C125.404 238.723 124.487 238.648 124.451 237.923C124.478 235.819 124.87 233.843 125.356 231.85C127.757 222.109 135.057 209.024 138.385 208.41C138.574 208.375 138.771 208.387 138.926 208.432C139.381 208.519 139.598 208.772 139.668 209.149C139.951 210.683 137.352 214.189 136.991 215.012C134.401 219.492 132.263 222.327 129.232 225.741C128.636 226.876 127.41 231.471 126.463 235.868C128.627 231.588 130.145 230.161 131.302 229.948C132.222 229.778 132.9 230.41 133.139 231.708C133.17 231.873 133.2 232.038 133.212 232.231C133.677 234.757 134.283 235.524 135.651 235.271C137.02 235.019 139.048 233.839 140.865 232.308C140.583 229.456 142.034 226.87 143.987 226.217C144.125 226.167 144.243 226.146 144.361 226.124C145.281 225.954 145.572 226.34 145.663 226.835C145.781 227.473 145.476 228.334 145.047 229.048C144.052 230.671 143.331 231.39 142.609 232.109C142.853 233.43 143.207 234.024 144.316 233.82C146.7 233.38 152.203 228.021 149.758 230.644C148.677 231.795 146.232 234.15 144.202 234.524C142.455 234.846 141.607 233.953 141.034 232.961C138.82 234.589 137.003 235.583 135.893 235.788C133.486 236.232 131.929 235.201 131.542 233.101C131.494 232.841 131.463 232.407 131.387 231.47C131.356 231.036 131.293 230.56 130.71 231.106C129.05 232.56 128.077 234.691 126.73 237.844C126.579 238.214 126.449 238.701 126.114 238.739ZM130.203 223.195C132.616 220.798 139.121 210.153 138.711 209.253C138.723 209.055 138.639 208.997 138.545 209.015C138.238 209.071 137.673 209.713 137.568 209.805C134.034 213.8 131.537 219.581 130.203 223.195ZM142.584 231.308C144.108 229.782 145.05 227.876 144.906 227.097C144.867 226.885 144.663 226.703 144.403 226.75C143.388 226.938 142.759 229.348 142.584 231.308ZM160.617 231.399C160.311 231.455 159.991 231.441 159.709 231.371C159.08 231.267 158.725 230.796 158.598 230.111C158.302 228.507 159.328 225.73 161.104 224.378C161.575 224.023 162.002 223.822 162.403 223.748C163.041 223.63 163.687 223.828 164.624 224.144C165.195 223.404 165.586 222.477 166.12 221.671C166.759 220.504 167.594 219.471 168.125 218.251C168.45 216.971 168.756 215.718 169.137 214.477C169.322 213.491 172.821 204.279 174.921 203.892C175.228 203.835 175.495 203.957 175.734 204.328C176.037 205.175 174.058 209.664 172.913 211.657C172.009 213.508 170.708 215.187 170.044 217.14C169.664 218.26 168.824 222.173 169.281 224.651C169.512 225.902 170.072 226.824 171.184 226.765C172.032 226.731 174.203 225.403 176.67 223.166L176.684 223.237C176.222 224.176 173.833 226.838 171.804 227.212C169.278 227.678 167.926 226.17 167.556 224.164C167.373 223.173 167.424 221.992 167.655 220.729C165.463 224.062 164.073 227.906 161.486 230.946C161.237 231.187 160.948 231.338 160.617 231.399ZM170.539 214.535C172.255 211.266 174.23 208.217 174.971 204.688C174.462 204.709 172.228 209.929 171.539 211.618C171.206 212.46 170.863 213.377 170.539 214.535ZM160.319 230.575C161.138 230.253 163.116 227.082 164.043 225.227C164.205 225.051 163.403 224.271 162.796 224.554C161.497 225.184 159.745 228.655 160.319 230.575ZM189.422 227.55C188.516 227.668 188.043 227.487 187.978 227.133C187.834 226.354 190.185 224.676 191.198 223.684C190.867 222.549 190.225 221.716 189.62 220.949C185.383 225.635 182.481 227.366 180.286 227.771C177.879 228.215 176.564 226.774 176.228 224.956C175.915 223.257 176.468 221.227 177.826 220.122C178.46 219.59 179.107 219.129 179.863 218.99C180.335 218.903 180.828 218.934 181.348 219.107C181.722 219.282 181.912 219.515 181.968 219.822C182.016 220.082 181.946 220.363 181.829 220.653C181.126 222.003 179.477 222.722 178.132 223.238C177.992 223.801 177.86 227.584 180.173 227.157C183.477 226.548 187.581 221.935 189.086 220.437C188.903 220.105 188.784 219.858 188.736 219.599C188.492 218.277 189.678 216.765 190.621 216.322C190.844 216.208 191.095 216.113 191.331 216.069C191.709 216 192.078 216.151 192.139 216.482C192.283 217.261 191.575 218.319 190.6 219.645C190.842 220.431 191.78 221.283 192.46 222.719C195.168 220.731 199.171 218.089 200.809 217.177C201.341 216.883 201.159 217.356 200.718 217.608C198.453 219.222 194.404 221.75 192.623 223.47C193.096 225.506 191.733 227.246 189.422 227.55ZM178.366 222.39C179.454 222.067 181.29 220.777 180.976 219.736C180.909 219.505 180.821 219.423 180.585 219.467L180.561 219.471C179.287 219.706 178.439 221.595 178.366 222.39ZM189.293 226.72C190.115 226.544 190.911 225.567 191.012 224.792C190.429 225.339 189.538 226.064 189.293 226.72ZM201.361 215.196C201.037 215.426 200.849 215.461 200.976 215.096C201.301 214.206 201.612 212.587 201.611 211.391C201.63 211.095 201.679 210.964 201.999 210.978C202.441 210.994 203.043 211.347 203.094 212.021C203.164 212.667 202.233 214.498 201.361 215.196ZM202.134 222.96C200.997 223.146 199.163 222.727 199.143 220.901C199.138 219.681 199.465 218.547 200.07 217.459C200.303 217.002 201.335 216.909 201.694 217.135C201.858 217.227 201.879 217.345 201.835 217.5C201.728 217.715 201.645 217.926 201.557 218.113C201.197 218.936 200.935 219.765 200.804 220.643C200.751 221.019 200.75 221.41 200.867 221.779C201.042 222.332 201.328 222.426 201.89 222.298C203.128 221.996 207.666 218.548 209.623 216.723C209.747 216.602 209.867 216.458 209.996 216.361C210.077 216.273 210.094 216.099 210.272 216.139C210.214 216.223 210.184 216.326 210.103 216.414C209.718 216.973 209.24 217.428 208.767 217.905C207.268 219.304 205.711 220.787 204.079 221.992C203.474 222.42 202.87 222.849 202.134 222.96ZM206.797 242.112C206.655 242.138 206.514 242.164 206.363 242.143C205.099 242.035 204.64 241.265 204.461 240.298C204.087 238.268 205.548 235.338 206.625 233.505C207.933 231.335 209.465 229.32 211.141 227.425C212.674 225.678 214.299 224.036 215.919 222.37C216.369 220.042 216.917 217.72 216.702 215.1C214.626 217.606 211.942 220.785 210.077 221.129C209.818 221.177 209.554 221.201 209.277 221.155C208.671 221.047 207.929 220.598 207.808 219.937C207.712 219.418 208.153 218.238 208.546 217.458C209.766 215.207 212.259 212.844 214.615 212.653C216.034 212.538 217.596 213.202 217.614 214.224C217.64 214.365 217.567 214.501 217.523 214.655C217.527 214.679 217.938 215.189 218.03 215.684C218.321 217.266 218.096 218.821 217.866 220.352C218.367 219.893 218.902 219.355 219.399 218.873C221.459 216.809 223.579 214.807 225.768 212.915C225.815 212.906 225.83 212.855 225.854 212.85C225.948 212.833 226.008 212.627 226.096 212.708C226.124 212.727 226.124 212.727 226.128 212.751C226.141 212.822 226.008 212.895 225.946 212.955C224.584 214.305 223.218 215.63 221.884 216.999C220.441 218.437 219.082 219.932 217.666 221.389C216.864 225.637 215.41 229.664 213.567 233.566C212.732 235.258 209.794 241.559 207.08 242.06L206.797 242.112ZM209.799 220.546C210.065 220.399 210.307 220.257 210.545 220.091C211.687 219.27 212.76 218.34 213.736 217.282L215.693 215.188C215.899 214.979 216.1 214.747 216.346 214.628C216.546 214.518 216.655 214.449 216.521 214.254L216.473 213.995C216.285 213.371 215.786 213.048 215.22 213.152C214.016 213.374 212.063 215.223 211.299 216.242C210.574 217.206 209.98 218.219 209.657 219.376C209.572 219.709 209.51 220.038 209.524 220.377L209.537 220.448C209.563 220.59 209.643 220.624 209.799 220.546ZM206.484 241.609C209.016 241.044 211.428 234.669 212.211 232.962C213.56 229.956 214.75 226.881 215.571 223.655C214.631 224.78 213.612 225.871 212.692 226.968C210.948 229.022 209.208 231.1 207.803 233.409C206.63 235.383 205.184 238.261 205.575 240.385C205.671 240.904 205.918 241.713 206.484 241.609ZM234.285 215.59C233.167 215.748 231.999 215.5 231.192 214.697C230.594 214.099 230.19 213.368 229.834 212.629C229.711 212.358 229.601 212.159 229.31 212.432C228.895 212.826 228.559 213.254 228.227 213.706C227.506 214.693 226.785 215.68 226.06 216.644C225.925 216.84 225.786 217.012 225.619 217.164C225.208 217.582 224.538 217.657 224.035 217.31C223.84 217.175 223.753 216.972 223.738 216.755C223.677 216.424 223.719 216.124 223.78 215.795C224.015 214.288 224.614 212.64 225.127 211.715C225.383 211.253 226.392 211.165 226.751 211.391C226.914 211.483 226.959 211.597 226.891 211.756C226.808 211.967 226.701 212.182 226.496 212.659C225.905 214.085 225.537 215.13 225.28 216.251C226.129 215.167 227.924 212.859 228.939 211.744C229.609 211.011 230.838 211.321 231.318 211.94C232.117 212.964 232.246 213.795 233.023 214.701C233.333 215.058 233.704 215.087 234.112 214.915C234.586 214.705 235.004 214.457 235.437 214.158C236.787 213.274 238.003 212.196 239.136 211.059C239.237 210.943 239.348 210.752 239.483 210.825C239.539 210.863 239.381 211.063 239.304 211.175C238.273 212.732 236.945 214.002 235.46 215.081C235.094 215.344 234.715 215.536 234.285 215.59ZM242.55 216.336C240.545 216.583 238.819 215.56 238.484 213.742C238.257 212.515 238.653 210.953 240.011 209.19C240.739 208.372 241.769 207.474 242.93 207.285C243.619 207.182 244.586 207.394 244.716 208.102C244.751 208.291 244.743 208.512 244.64 208.751C244.137 209.991 242.053 211.791 240.117 212.806C240.026 213.238 240.014 213.704 240.097 214.152C240.297 215.238 241.089 216.093 242.696 215.674C244.614 215.223 247.747 212.229 251.159 209.159C251.326 209.006 251.658 208.823 251.504 209.047C251.138 209.578 245.891 215.793 242.55 216.336ZM240.257 211.975C241.379 211.183 242.545 210.357 243.382 209.203C243.617 208.891 243.794 208.394 243.737 208.088C243.707 207.922 243.595 207.845 243.406 207.88C243.217 207.915 242.947 208.038 242.589 208.348C241.413 209.248 240.725 210.547 240.257 211.975ZM251.003 213.581C250.696 213.638 249.845 213.258 249.766 212.833C249.753 212.762 249.736 212.668 249.746 212.592C249.712 210.817 250.522 207.934 251.032 206.596C251.213 206.123 252.297 206.045 252.656 206.272C252.82 206.364 252.841 206.482 252.797 206.636C252.69 206.851 252.601 207.161 252.537 207.343C252.242 208.13 251.909 209.631 251.643 211.364C252.073 210.65 252.55 209.928 252.932 209.223C253.721 207.808 254.49 206.422 255.255 205.012C255.55 204.493 256.206 204.348 256.671 204.75C257.572 205.536 257.84 205.926 258.476 206.467C259.053 206.947 259.727 206.896 260.227 206.828C261.175 206.677 261.743 206.45 262.665 205.89C262.774 205.821 263.073 205.717 262.976 205.857C262.366 206.653 261.385 207.151 260.567 207.351C259.891 207.524 258.419 207.479 257.211 206.75C256.824 206.504 256.456 206.23 256.088 205.956C255.856 205.755 255.597 206.071 255.428 206.346C255.197 206.682 253.867 209.001 253.312 209.958C252.844 210.728 251.869 212.591 251.427 213.234C251.288 213.406 251.215 213.542 251.003 213.581Z" fill="#B0752A"/>
<path d="M6.61648 316.138C5.18295 316.305 4.53563 315.839 4.39198 315.06C4.06114 313.266 6.4654 309.894 8.01809 309.315C8.1982 309.233 8.40191 309.146 8.59073 309.112C9.27518 308.985 10.2671 309.071 10.9635 309.406C11.2962 308.564 11.7484 308.236 12.126 308.167C12.8576 308.032 13.1913 308.385 13.6456 309.79C14.1087 311.242 14.4308 312.989 15.0445 312.875C16.0594 312.688 19.3825 307.682 21.7466 305.416C22.1341 305.003 22.5242 304.736 22.9254 304.662C23.1378 304.623 23.3825 304.626 23.6167 304.705C24.1751 304.822 24.4379 305.188 24.5294 305.684C24.6991 306.604 24.2174 307.962 24.1095 308.568C23.6106 310.759 23.4344 311.523 23.6232 311.488C23.8356 311.449 23.9616 311.206 24.2206 310.89C26.4069 307.924 27.7092 306.781 28.7712 306.585C30.329 306.298 31.0878 308.428 32.7702 309.875C33.0348 310.119 33.3206 310.212 33.6274 310.156C34.3355 310.025 35.4253 308.921 35.5731 308.796C37.882 306.76 39.7814 304.091 39.838 304.398C39.8511 304.469 39.7679 304.679 39.55 305.085C38.4796 307.089 35.225 310.349 34.0492 310.59C31.2301 311.184 30.0599 308.544 29.315 307.681C29.0739 307.433 28.9745 307.158 28.7857 307.193C28.6913 307.21 28.3528 307.492 28.1001 307.71C26.0806 309.595 25.1108 311.483 23.8408 312.669C23.6266 312.83 23.3757 312.925 23.0645 312.958C22.2577 313.083 21.8166 312.676 21.686 311.968C21.4074 310.457 22.5745 307.655 22.8605 306.162C22.9114 305.909 22.9238 305.711 22.902 305.593C22.8541 305.334 22.4597 305.577 22.0722 305.991C20.4217 307.759 17.0272 313.437 14.9975 313.812C12.8969 314.199 12.3752 311.635 11.8026 309.325C8.55211 314.195 7.89098 315.903 6.61648 316.138ZM7.05165 315.057C8.38118 313.665 9.4149 311.595 10.45 310.062C10.3443 309.886 9.9878 309.806 9.82259 309.836C9.44496 309.906 8.96306 310.336 8.79601 310.489C7.77194 311.288 6.43575 313.438 6.29319 314.782C6.20885 315.384 6.47351 315.628 7.05165 315.057ZM38.8509 312.097C38.544 312.153 38.2242 312.139 37.9428 312.069C37.3136 311.965 36.9582 311.494 36.8319 310.809C36.5359 309.204 37.5614 306.428 39.3375 305.076C39.8089 304.72 40.2355 304.52 40.6368 304.446C41.274 304.328 41.9207 304.526 42.8574 304.841C43.4287 304.102 43.8192 303.175 44.3538 302.369C44.9927 301.202 45.8272 300.169 46.3586 298.949C46.6838 297.668 46.9898 296.416 47.3709 295.174C47.5551 294.189 51.0544 284.977 53.1549 284.59C53.4618 284.533 53.7283 284.655 53.9675 285.026C54.2701 285.873 52.2916 290.362 51.1461 292.355C50.2427 294.205 48.9419 295.885 48.2771 297.838C47.8978 298.958 47.0577 302.871 47.5147 305.349C47.7455 306.6 48.3059 307.522 49.4177 307.463C50.2656 307.429 52.4367 306.101 54.904 303.864L54.917 303.935C54.4557 304.874 52.0669 307.536 50.0371 307.91C47.5117 308.376 46.1598 306.868 45.7898 304.862C45.6069 303.871 45.6576 302.69 45.8884 301.427C43.6965 304.76 42.3067 308.604 39.7191 311.644C39.4707 311.885 39.1813 312.036 38.8509 312.097ZM48.7728 295.233C50.4882 291.964 52.464 288.915 53.2042 285.386C52.6955 285.407 50.4612 290.626 49.7721 292.315C49.4394 293.158 49.0961 294.075 48.7728 295.233ZM38.5525 311.273C39.3717 310.951 41.3493 307.78 42.2763 305.925C42.439 305.748 41.6363 304.969 41.0295 305.252C39.7303 305.882 37.9788 309.353 38.5525 311.273ZM64.5185 306.484C63.2663 306.178 62.5264 305.607 62.1868 303.766C61.721 301.24 63.0735 297.062 64.7404 293.264C62.0741 294.025 59.4295 294.903 57.221 295.896C54.9575 295.532 56.9972 294.814 57.7586 294.576C58.9362 294.213 61.9479 293.34 65.1011 292.441C66.4632 289.505 67.9291 286.868 68.8146 285.582C68.9344 285.438 68.7431 285.327 69.0082 284.912C69.3118 284.441 69.8167 283.738 70.401 283.068C70.7841 282.632 71.3872 282.594 71.7717 282.694C72.0811 282.783 72.0985 282.877 71.9253 283.129C70.7144 284.768 68.6388 288.201 66.8688 291.969C69.9792 291.102 72.9095 290.318 73.9716 290.122C75.1753 289.9 76.5201 290.311 76.7201 290.469C76.8599 290.565 76.8388 290.716 76.6587 290.798C76.4314 290.888 76.1718 290.936 75.9401 291.003C74.5588 291.453 73.0937 291.846 71.6801 292.253C71.1503 292.424 70.4745 292.597 71.585 292.002C72.3352 291.571 72.5389 291.484 72.8283 291.333C71.0153 291.692 68.7906 292.2 66.4609 292.801C64.401 297.378 62.9151 302.289 64.1263 305.019C64.5905 306.08 65.8638 306.236 66.8973 305.752C67.4612 305.502 67.9605 305.166 68.4642 304.853C70.2751 303.689 71.5302 302.555 73.1001 301.143C73.6826 300.596 74.2135 300.034 74.7358 299.426C74.8171 299.337 74.901 299.395 74.8476 299.503C74.4589 300.306 73.8746 300.975 73.2816 301.597C71.6844 303.259 69.971 304.819 68.6017 305.731C66.9752 306.836 65.7751 306.813 64.5185 306.484ZM74.946 306.415C74.2354 306.4 73.3186 306.325 73.2824 305.6C73.3093 303.496 73.7014 301.52 74.1879 299.527C76.5889 289.785 83.8886 276.7 87.2165 276.087C87.4053 276.052 87.6028 276.064 87.7575 276.109C88.2128 276.196 88.4303 276.448 88.4999 276.826C88.7829 278.36 86.1836 281.866 85.8229 282.689C83.2325 287.169 81.0953 290.004 78.0643 293.418C77.4683 294.553 76.2413 299.148 75.2951 303.544C77.4587 299.265 78.9771 297.838 80.1336 297.625C81.054 297.455 81.7318 298.086 81.9713 299.384C82.0017 299.55 82.0322 299.715 82.0434 299.908C82.5092 302.433 83.1144 303.2 84.4833 302.948C85.8522 302.695 87.8799 301.516 89.6964 299.985C89.4144 297.133 90.8654 294.547 92.8193 293.894C92.9566 293.844 93.0746 293.822 93.1926 293.8C94.113 293.631 94.4038 294.016 94.4952 294.512C94.6128 295.149 94.308 296.011 93.8783 296.725C92.8843 298.348 92.1627 299.067 91.4411 299.785C91.6849 301.107 92.0384 301.701 93.1477 301.496C95.5315 301.057 101.035 295.698 98.5899 298.32C97.5088 299.472 95.0633 301.826 93.0336 302.201C91.287 302.523 90.439 301.63 89.8655 300.637C87.6521 302.266 85.8343 303.26 84.725 303.465C82.3176 303.909 80.7608 302.878 80.3734 300.777C80.3255 300.518 80.2944 300.084 80.219 299.146C80.1879 298.713 80.1244 298.236 79.5419 298.783C77.8819 300.236 76.9085 302.368 75.562 305.521C75.4105 305.89 75.2808 306.378 74.946 306.415ZM79.0345 290.872C81.4477 288.474 87.9529 277.83 87.5428 276.929C87.5551 276.732 87.4713 276.674 87.3769 276.692C87.07 276.748 86.505 277.389 86.4 277.482C82.8661 281.477 80.3692 287.258 79.0345 290.872ZM91.4154 298.985C92.94 297.459 93.8818 295.553 93.7381 294.774C93.699 294.561 93.4946 294.379 93.2349 294.427C92.2201 294.614 91.5908 297.025 91.4154 298.985ZM117.116 296.978C116.528 297.233 116.247 297.163 115.633 297.007C115.117 296.859 114.788 296.529 114.664 295.99C114.506 295.263 114.469 294.538 114.528 293.795C113.762 294.936 113.101 295.986 112.174 296.913C111.821 297.247 111.44 297.561 110.888 297.614C110.676 297.653 110.454 297.645 110.225 297.59C109.394 297.45 109.019 297.007 109.008 296.155C108.795 294.998 110.365 290.145 111.568 289.923C111.852 289.871 112.331 290.222 112.379 290.481C112.457 290.906 112.244 292.263 111.819 292.342C111.017 292.49 110.407 295.799 110.511 296.366C110.559 296.625 110.609 296.763 110.716 296.816C110.819 296.846 110.91 296.805 111.143 296.615C111.649 296.18 112.201 295.468 112.71 294.789C113.277 294.025 114.532 292.232 114.628 292.092C114.793 291.793 115.048 291.722 115.353 291.788C115.781 291.855 115.925 291.975 115.932 292.413C115.929 292.926 115.879 293.448 115.857 293.989C115.828 294.629 115.852 295.283 115.997 295.94C116.143 296.596 116.278 296.669 116.839 296.272C117.382 295.904 117.808 295.435 118.201 294.923C119.123 293.704 119.798 292.334 120.215 290.891C120.405 290.197 120.5 289.789 120.519 289.493C120.328 288.722 120.71 288.017 121.229 287.922C121.607 287.852 121.711 288.15 121.573 288.859L121.497 289.239C121.834 290.275 123.44 290.906 124.667 290.68C125.965 290.44 127.372 289.864 129.408 288.732C129.631 288.617 129.53 288.733 128.84 289.227C126.98 290.522 125.541 291.055 124.597 291.23C123.295 291.445 122.15 291.193 121.287 290.351L121.141 291.013C120.469 293.455 119.579 294.718 118.635 295.819C118.213 296.312 117.727 296.719 117.116 296.978ZM138.186 293.36C138.068 293.382 137.95 293.404 137.8 293.383C137.274 293.309 136.696 293.22 136.721 292.825C136.975 291.29 137.347 290.001 137.622 288.583C138.245 285.345 138.343 283.887 138.229 283.273C138.164 282.919 138.029 282.846 137.887 282.873C136.613 283.108 130.503 286.504 130.812 287.911C131.074 288.01 131.299 288.041 131.321 288.159C131.347 288.301 131.109 288.467 131.004 288.559C131.311 289.162 131.417 289.606 131.467 290.011C131.608 291.303 130.169 293.423 129.225 293.598C127.95 293.833 127.222 293.455 127.052 292.534C126.851 291.448 127.519 289.91 128.052 289.226C128.643 288.458 129.048 288.139 129.575 287.822C129.799 286.39 134.257 283.835 135.625 283.046C136.219 282.692 136.939 282.364 137.624 282.238C138.709 282.038 139.571 282.342 139.788 283.522C140.071 285.057 139.445 287.613 139.298 289.201C140.444 286.55 141.134 285.129 142.118 283.849C142.2 283.761 142.29 283.72 142.431 283.694C142.856 283.616 143.503 283.814 143.632 283.985C144.177 284.69 144.418 285.597 145.08 286.012C145.766 286.422 146.512 286.236 147.108 286.028C148.921 285.401 149.977 284.645 150.568 284.145C150.759 283.988 150.824 284.074 150.684 284.246C149.812 285.603 148.097 286.358 146.586 286.637C145.099 286.911 143.71 286.655 142.109 285.12C139.042 290.591 138.824 293.243 138.186 293.36ZM128.918 292.995C129.626 292.865 130.791 290.844 130.56 289.593C130.508 289.31 130.422 289.106 130.237 288.896C129.673 289.146 128.473 291.637 128.682 292.77C128.716 292.959 128.824 293.013 128.918 292.995ZM153.063 290.738C151.199 291.082 149.563 290.017 149.136 287.704C148.418 283.81 155.199 268.575 158.81 267.909C159.211 267.835 159.845 267.962 159.928 268.411C160.424 271.102 152.594 281.575 151.434 283.229C151.081 284.49 150.752 285.747 150.652 287.059C150.546 289.128 151.116 290.634 153.028 290.281C155.506 289.824 159.321 285.899 161.387 283.468C162.067 282.659 162.472 282.34 162.494 282.458C162.507 282.529 162.381 282.772 162.088 283.168C160.064 285.957 156.462 290.111 153.063 290.738ZM152.056 281.309C156.185 275.642 158.179 272.296 159.121 269.463C159.526 268.217 158.88 268.287 158.259 269.158C157.37 270.42 156.166 272.497 155.222 274.257C153.987 276.56 152.87 278.84 152.056 281.309ZM161.793 289.421C161.486 289.478 161.166 289.463 160.885 289.393C160.256 289.29 159.9 288.818 159.774 288.134C159.478 286.529 160.503 283.753 162.28 282.4C162.751 282.045 163.178 281.844 163.579 281.77C164.216 281.653 164.863 281.851 165.799 282.166C166.371 281.426 166.761 280.5 167.296 279.694C167.935 278.526 168.769 277.494 169.301 276.273C169.626 274.993 169.932 273.741 170.313 272.499C170.497 271.513 173.996 262.302 176.097 261.914C176.404 261.858 176.67 261.979 176.909 262.35C177.212 263.197 175.234 267.687 174.088 269.679C173.185 271.53 171.884 273.21 171.219 275.163C170.84 276.282 170 280.195 170.457 282.674C170.687 283.925 171.248 284.846 172.36 284.788C173.208 284.753 175.379 283.425 177.846 281.189L177.859 281.26C177.398 282.199 175.009 284.86 172.979 285.235C170.454 285.7 169.102 284.193 168.732 282.186C168.549 281.195 168.6 280.014 168.83 278.752C166.639 282.084 165.249 285.928 162.661 288.968C162.413 289.209 162.123 289.36 161.793 289.421ZM171.715 272.558C173.43 269.288 175.406 266.239 176.146 262.711C175.637 262.731 173.403 267.951 172.714 269.64C172.381 270.482 172.038 271.4 171.715 272.558ZM161.495 288.598C162.314 288.276 164.291 285.104 165.218 283.249C165.381 283.073 164.578 282.294 163.971 282.576C162.672 283.206 160.921 286.678 161.495 288.598ZM179.978 285.555C179.454 285.627 178.529 285.505 178.525 285.09C178.556 284.596 178.956 283.717 179.22 283.693C180.574 283.492 181.059 283.744 181.125 284.098C181.234 284.688 180.236 285.629 179.978 285.555ZM184.953 265.894C183.767 265.551 185.587 260.066 185.817 259.463C186.053 258.76 187.058 258.916 187.469 259.158C187.581 259.235 187.588 259.404 187.475 259.718C186.608 262.294 184.878 264.956 184.953 265.894ZM188.729 265.197C187.544 264.855 189.363 259.37 189.593 258.766C189.83 258.064 190.835 258.22 191.245 258.461C191.357 258.538 191.364 258.708 191.251 259.022C190.384 261.598 188.654 264.26 188.729 265.197Z" fill="#B0752A"/>
<path d="M262.934 491.604C262.934 492.49 263.625 493.209 264.477 493.209C265.329 493.209 266.021 492.49 266.021 491.604C266.021 490.718 265.329 490 264.477 490C263.625 490 262.934 490.718 262.934 491.604Z" fill="#B0752A"/>
<path d="M233.535 491.604C233.535 492.49 234.226 493.209 235.079 493.209C235.931 493.209 236.622 492.49 236.622 491.604C236.622 490.718 235.931 490 235.079 490C234.226 490 233.535 490.718 233.535 491.604Z" fill="#B0752A"/>
<path d="M204.136 491.604C204.136 492.49 204.827 493.209 205.679 493.209C206.532 493.209 207.223 492.49 207.223 491.604C207.223 490.718 206.532 490 205.679 490C204.827 490 204.136 490.718 204.136 491.604Z" fill="#B0752A"/>
<path d="M173.69 491.604C173.69 492.49 174.404 493.209 175.283 493.209C176.163 493.209 176.876 492.49 176.876 491.604C176.876 490.718 176.163 490 175.283 490C174.404 490 173.69 490.718 173.69 491.604Z" fill="#B0752A"/>
<path d="M143.343 491.604C143.343 492.49 144.056 493.209 144.936 493.209C145.815 493.209 146.528 492.49 146.528 491.604C146.528 490.718 145.815 490 144.936 490C144.056 490 143.343 490.718 143.343 491.604Z" fill="#B0752A"/>
<path d="M112.996 491.604C112.996 492.49 113.709 493.209 114.589 493.209C115.469 493.209 116.182 492.49 116.182 491.604C116.182 490.718 115.469 490 114.589 490C113.709 490 112.996 490.718 112.996 491.604Z" fill="#B0752A"/>
<path d="M147.796 374.056V373.32H150.996V374.056H147.796ZM163.911 377L162.487 373.496H157.943L156.519 377H155.751L160.247 366.008L164.679 377H163.911ZM158.199 372.856H162.231L160.231 367.8L158.199 372.856ZM165.898 370.472H166.538V374.408C166.538 374.872 166.554 375.56 166.954 376.04C167.354 376.52 167.946 376.568 168.25 376.568C168.554 376.568 169.146 376.52 169.546 376.04C169.946 375.56 169.962 374.872 169.962 374.408V370.472H170.602V374.584C170.602 375.112 170.554 375.8 170.106 376.376C169.61 377.016 168.826 377.176 168.25 377.176C167.674 377.176 166.89 377.016 166.394 376.376C165.946 375.8 165.898 375.112 165.898 374.584V370.472ZM174.738 371.08H173.602V377H172.962V371.08H172.242V370.472H172.962V368.136H173.602V370.472H174.738V371.08ZM176.023 377V365.336H176.663V371.496C176.967 370.952 177.559 370.328 178.663 370.328C179.831 370.328 180.327 371.016 180.471 371.24C180.759 371.704 180.791 372.312 180.791 372.888V377H180.151V372.888C180.151 372.44 180.135 371.944 179.895 371.576C179.751 371.336 179.399 370.936 178.615 370.936C177.719 370.936 177.255 371.416 177.015 371.848C176.727 372.36 176.663 372.968 176.663 373.608V377H176.023ZM185.797 370.328C187.733 370.328 189.221 371.816 189.221 373.752C189.221 375.688 187.733 377.176 185.797 377.176C183.861 377.176 182.373 375.688 182.373 373.752C182.373 371.816 183.861 370.328 185.797 370.328ZM185.797 376.568C187.365 376.568 188.549 375.336 188.549 373.752C188.549 372.168 187.365 370.936 185.797 370.936C184.229 370.936 183.045 372.168 183.045 373.752C183.045 375.336 184.229 376.568 185.797 376.568ZM191.101 377V370.472H191.741V371.32C191.981 370.76 192.477 370.328 193.181 370.328C193.357 370.328 193.629 370.36 193.869 370.488L193.549 371.064C193.485 371.016 193.357 370.936 193.069 370.936C191.757 370.936 191.741 372.68 191.741 373.496V377H191.101ZM199.28 366.328H199.984V373C199.984 374.008 200.032 374.664 200.432 375.304C201.056 376.312 202.224 376.536 202.912 376.536C203.6 376.536 204.768 376.312 205.392 375.304C205.792 374.664 205.84 374.008 205.84 373V366.328H206.544V373C206.544 374.168 206.48 374.936 205.936 375.736C205.136 376.904 203.872 377.176 202.912 377.176C201.952 377.176 200.688 376.904 199.888 375.736C199.344 374.936 199.28 374.168 199.28 373V366.328ZM209.132 377V370.472H209.772V371.496C210.076 370.952 210.668 370.328 211.772 370.328C212.94 370.328 213.436 371.016 213.58 371.24C213.868 371.704 213.9 372.312 213.9 372.888V377H213.26V372.888C213.26 372.44 213.244 371.944 213.004 371.576C212.86 371.336 212.508 370.936 211.724 370.936C210.828 370.936 210.364 371.416 210.124 371.848C209.836 372.36 209.772 372.968 209.772 373.608V377H209.132ZM216.211 365.336H216.851V373.272L219.539 370.472H220.371L217.619 373.304L221.267 377H220.403L217.187 373.768L216.851 374.104V377H216.211V365.336ZM222.242 377V370.472H222.882V371.496C223.186 370.952 223.778 370.328 224.882 370.328C226.05 370.328 226.546 371.016 226.69 371.24C226.978 371.704 227.01 372.312 227.01 372.888V377H226.37V372.888C226.37 372.44 226.354 371.944 226.114 371.576C225.97 371.336 225.618 370.936 224.834 370.936C223.938 370.936 223.474 371.416 223.234 371.848C222.946 372.36 222.882 372.968 222.882 373.608V377H222.242ZM232.328 370.328C234.264 370.328 235.752 371.816 235.752 373.752C235.752 375.688 234.264 377.176 232.328 377.176C230.392 377.176 228.904 375.688 228.904 373.752C228.904 371.816 230.392 370.328 232.328 370.328ZM232.328 376.568C233.896 376.568 235.08 375.336 235.08 373.752C235.08 372.168 233.896 370.936 232.328 370.936C230.76 370.936 229.576 372.168 229.576 373.752C229.576 375.336 230.76 376.568 232.328 376.568ZM236.608 370.472H237.312L239.568 375.864L241.824 370.072L244.08 375.864L246.4 370.472H247.104L244.08 377.4L241.824 371.608L239.568 377.4L236.608 370.472ZM248.382 377V370.472H249.022V371.496C249.326 370.952 249.918 370.328 251.022 370.328C252.19 370.328 252.686 371.016 252.83 371.24C253.118 371.704 253.15 372.312 253.15 372.888V377H252.51V372.888C252.51 372.44 252.494 371.944 252.254 371.576C252.11 371.336 251.758 370.936 250.974 370.936C250.078 370.936 249.614 371.416 249.374 371.848C249.086 372.36 249.022 372.968 249.022 373.608V377H248.382Z" fill="#B0752A"/>
</svg>
