<svg width="25" height="25" viewBox="0 0 25 25" fill="none" xmlns="http://www.w3.org/2000/svg">
<path d="M3.15626 22.9279C3.01426 22.9279 2.89526 22.8803 2.79926 22.7849C2.70326 22.6896 2.65559 22.5706 2.65626 22.4279C2.65692 22.2853 2.70459 22.1663 2.79926 22.0709C2.89392 21.9756 3.01292 21.9279 3.15626 21.9279C3.61559 21.9279 4.06726 21.8643 4.51126 21.7369C4.95526 21.6089 5.38826 21.4283 5.81026 21.1949C5.90892 21.1376 6.02426 21.1089 6.15626 21.1089C6.28826 21.1089 6.40359 21.1376 6.50226 21.1949C6.92426 21.4283 7.35759 21.6089 7.80226 21.7369C8.24626 21.8643 8.69759 21.9279 9.15626 21.9279C9.61492 21.9279 10.0666 21.8643 10.5113 21.7369C10.9559 21.6096 11.3889 21.4289 11.8103 21.1949C11.9089 21.1376 12.0253 21.1089 12.1593 21.1089C12.2933 21.1089 12.4076 21.1376 12.5023 21.1949C12.9243 21.4283 13.3576 21.6089 13.8023 21.7369C14.2463 21.8643 14.6976 21.9279 15.1563 21.9279C15.6149 21.9279 16.0666 21.8643 16.5113 21.7369C16.9559 21.6096 17.3889 21.4289 17.8103 21.1949C17.9049 21.1376 18.0203 21.1089 18.1563 21.1089C18.2923 21.1089 18.4076 21.1376 18.5023 21.1949C18.9243 21.4283 19.3576 21.6089 19.8023 21.7369C20.2463 21.8643 20.6976 21.9279 21.1563 21.9279C21.2989 21.9279 21.4179 21.9756 21.5133 22.0709C21.6086 22.1663 21.6563 22.2853 21.6563 22.4279C21.6563 22.5706 21.6086 22.6896 21.5133 22.7849C21.4179 22.8803 21.2989 22.9279 21.1563 22.9279C20.6783 22.9279 20.1893 22.8623 19.6893 22.7309C19.1893 22.5996 18.6783 22.3963 18.1563 22.1209C17.6343 22.3963 17.1233 22.5996 16.6233 22.7309C16.1233 22.8623 15.6343 22.9279 15.1563 22.9279C14.6783 22.9279 14.1893 22.8623 13.6893 22.7309C13.1893 22.5996 12.6783 22.3963 12.1563 22.1209C11.6343 22.3963 11.1233 22.5996 10.6233 22.7309C10.1233 22.8623 9.63426 22.9279 9.15626 22.9279C8.67826 22.9279 8.18926 22.8623 7.68926 22.7309C7.18926 22.5996 6.67826 22.3963 6.15626 22.1209C5.63426 22.3963 5.12326 22.5996 4.62326 22.7309C4.12326 22.8623 3.63426 22.9279 3.15626 22.9279ZM12.1563 9.61992C11.6963 9.61992 11.2993 9.45326 10.9653 9.11992C10.6313 8.78592 10.4643 8.38859 10.4643 7.92792C10.4643 7.46726 10.6309 7.07026 10.9643 6.73692C11.2989 6.40292 11.6963 6.23592 12.1563 6.23592C12.6163 6.23592 13.0133 6.40259 13.3473 6.73592C13.6813 7.07059 13.8483 7.46792 13.8483 7.92792C13.8483 8.38792 13.6816 8.78492 13.3483 9.11892C13.0136 9.45292 12.6163 9.61992 12.1563 9.61992ZM9.15626 19.5439C8.70626 19.5439 8.25226 19.4733 7.79426 19.3319C7.33692 19.1906 6.90959 18.9613 6.51226 18.6439C6.40559 18.5573 6.28892 18.5139 6.16226 18.5139C6.03559 18.5139 5.91959 18.5573 5.81426 18.6439C5.72559 18.7206 5.63192 18.7903 5.53326 18.8529C5.43459 18.9156 5.32859 18.9756 5.21526 19.0329C4.94392 18.9796 4.66892 18.9196 4.39026 18.8529C4.11226 18.7863 3.83726 18.7113 3.56526 18.6279C3.04392 18.4779 2.78326 18.2479 2.78326 17.9379C2.78326 17.6273 3.04392 17.3973 3.56526 17.2479C4.22192 17.0526 4.89792 16.8719 5.59326 16.7059C6.28859 16.5399 6.97926 16.4033 7.66526 16.2959L9.20826 11.6389C9.34026 11.2649 9.58359 11.0023 9.93826 10.8509C10.2929 10.6996 10.6376 10.7086 10.9723 10.8779L13.7523 12.2939L16.7313 10.6009L18.5163 6.61292L18.1273 5.60492C18.0939 5.49759 18.0806 5.39192 18.0873 5.28792C18.0939 5.18392 18.1156 5.08459 18.1523 4.98992L18.7483 3.65992C18.8396 3.45792 18.9889 3.31659 19.1963 3.23592C19.4029 3.15526 19.6056 3.16026 19.8043 3.25092L20.9623 3.77992C21.1643 3.87126 21.3089 4.02026 21.3963 4.22692C21.4836 4.43359 21.4819 4.63659 21.3913 4.83592L20.7953 6.16492C20.7579 6.25959 20.6956 6.34226 20.6083 6.41292C20.5216 6.48359 20.4306 6.53726 20.3353 6.57392L19.3333 6.96292L15.2683 16.1009C16.2509 16.2049 17.2049 16.3609 18.1303 16.5689C19.0556 16.7763 19.9279 17.0023 20.7473 17.2469C21.2646 17.3969 21.5233 17.6239 21.5233 17.9279C21.5233 18.2319 21.2643 18.4586 20.7463 18.6079C20.4489 18.6919 20.1636 18.7706 19.8903 18.8439C19.6163 18.9166 19.3453 18.9799 19.0773 19.0339C18.9646 18.9886 18.8613 18.9356 18.7673 18.8749C18.6726 18.8143 18.5809 18.7433 18.4923 18.6619C18.3863 18.5633 18.2709 18.5139 18.1463 18.5139C18.0216 18.5139 17.9063 18.5573 17.8003 18.6439C17.3903 18.9613 16.9596 19.1906 16.5083 19.3319C16.0569 19.4733 15.6063 19.5439 15.1563 19.5439C14.7063 19.5439 14.2556 19.4733 13.8043 19.3319C13.3529 19.1906 12.9223 18.9546 12.5123 18.6239C12.4056 18.5379 12.2869 18.4949 12.1563 18.4949C12.0256 18.4949 11.9069 18.5383 11.8003 18.6249C11.3903 18.9549 10.9596 19.1906 10.5083 19.3319C10.0569 19.4733 9.60626 19.5439 9.15626 19.5439ZM14.3273 16.0219L16.0853 12.0699L13.7523 13.4279L11.7143 12.3739L10.4753 16.0239C10.7153 15.9986 10.9819 15.9763 11.2753 15.9569C11.5679 15.9376 11.8616 15.9279 12.1563 15.9279C12.4809 15.9279 12.8309 15.9353 13.2063 15.9499C13.5816 15.9646 13.9553 15.9886 14.3273 16.0219Z" fill="#415064"/>
</svg>
