<svg width="23" height="20" viewBox="0 0 23 20" fill="none" xmlns="http://www.w3.org/2000/svg">
<path d="M7.64583 18.028C7.97431 18.028 8.26076 18.0624 8.50521 18.1311C8.74965 18.1999 8.97882 18.2992 9.19271 18.429C9.4066 18.5589 9.60903 18.7155 9.8 18.8988C9.99097 19.0821 10.1972 19.2808 10.4187 19.4946H0.3125V1.89465H1.77917V18.028H7.64583ZM7.64583 0.427979C8.15764 0.427979 8.66181 0.48909 9.15833 0.611312C9.65486 0.733534 10.1285 0.924506 10.5792 1.18423V17.6269C10.1667 17.2832 9.70833 17.0196 9.20417 16.8363C8.7 16.653 8.18056 16.5613 7.64583 16.5613H3.24583V0.427979H7.64583ZM22.3125 1.89465V19.4946H12.2063C12.4201 19.2808 12.6226 19.0821 12.8135 18.8988C13.0045 18.7155 13.2069 18.5627 13.4208 18.4405C13.6347 18.3183 13.8639 18.219 14.1083 18.1426C14.3528 18.0662 14.6431 18.028 14.9792 18.028H20.8458V1.89465H22.3125ZM14.9792 16.5613C14.4444 16.5613 13.925 16.653 13.4208 16.8363C12.9167 17.0196 12.4583 17.2832 12.0458 17.6269V1.18423C12.4965 0.932145 12.9701 0.744992 13.4667 0.62277C13.9632 0.500548 14.4674 0.435617 14.9792 0.427979H19.3792V16.5613H14.9792Z" fill="#415064"/>
</svg>
