<svg width="25" height="25" viewBox="0 0 25 25" fill="none" xmlns="http://www.w3.org/2000/svg">
<path d="M10.7955 2.97832C8.90291 2.97832 7.18551 3.35379 5.90432 3.98908C4.62313 4.62429 3.71582 5.56132 3.71582 6.70929C3.71582 6.82976 3.72581 6.94807 3.74516 7.0638L3.74366 7.33919C3.71765 11.225 4.50538 15.0554 4.44538 18.8104C4.42795 19.9023 5.11541 20.8685 6.22663 21.5101C7.33785 22.1516 8.88899 22.5179 10.7794 22.5179C12.6711 22.5179 14.1233 22.1418 15.1343 21.4852C16.1454 20.8286 16.7003 19.8581 16.7003 18.8177C16.7003 18.6691 16.7029 18.5202 16.7062 18.3709C18.6816 18.3187 20.2366 17.2717 21.2589 15.9071C22.3012 14.5156 22.8539 12.799 22.8849 11.2371C22.9158 9.67521 22.4169 8.10068 21.0494 7.45924C20.3656 7.13852 19.6154 7.15113 18.7409 7.40651C18.4521 7.49079 18.1527 7.60572 17.8443 7.75221C17.8476 7.61486 17.8502 7.47752 17.8502 7.34205V7.02705C17.8656 6.92327 17.8736 6.81686 17.8736 6.70924C17.8736 5.56127 16.9663 4.62433 15.685 3.98908C14.4039 3.35374 12.688 2.97832 10.7955 2.97832ZM10.7955 3.85432C12.5706 3.85432 14.1746 4.21769 15.2969 4.77424C16.4192 5.33065 16.9975 6.03865 16.9975 6.70924C16.9975 7.37983 16.4192 8.08924 15.2969 8.64579C14.1746 9.20219 12.5706 9.56421 10.7955 9.56421C9.02034 9.56421 7.41627 9.20224 6.29399 8.64574C5.17166 8.08933 4.59182 7.37983 4.59182 6.70924C4.59182 6.03865 5.17166 5.33065 6.29399 4.77424C7.41627 4.21765 9.02024 3.85427 10.7954 3.85427L10.7955 3.85432ZM7.53032 5.68385C6.44329 5.99824 5.75343 6.46591 5.75343 6.98763C5.75343 7.93418 8.02209 8.70147 10.8203 8.70147C13.6186 8.70147 15.8858 7.93413 15.8858 6.98758C15.8858 6.50646 15.2989 6.07137 14.355 5.76007C14.6018 5.95249 14.7403 6.16751 14.7403 6.39583C14.7403 7.20143 13.0169 7.85477 10.8906 7.85477C8.7644 7.85477 7.04104 7.20143 7.04104 6.39579C7.04104 6.13713 7.2186 5.89451 7.53032 5.68385ZM19.8731 8.88457C20.0765 8.88349 20.2399 8.92174 20.3667 8.98127C20.8741 9.21921 21.2294 10.0505 21.2061 11.2371C21.1827 12.4236 20.7508 13.8391 19.9478 14.9109C19.1839 15.9304 18.1616 16.6149 16.8013 16.6877C17.0053 14.3513 17.4683 11.9772 17.705 9.75752C18.6764 9.10868 19.3875 8.88719 19.873 8.88452L19.8731 8.88457Z" fill="#415064"/>
</svg>
