<svg width="25" height="25" viewBox="0 0 25 25" fill="none" xmlns="http://www.w3.org/2000/svg">
<path d="M17.9148 4.70508L17.0711 4.71413L17.0908 6.54131C14.9452 7.16405 12.0033 7.46653 9.28731 7.6463C10.9325 12.1596 13.9447 15.7918 16.6863 19.6993C17.6575 18.7779 19.0821 18.2001 20.5985 18.0113C19.6235 17.1624 18.8813 16.7004 17.8407 14.7095C19.3065 16.4479 20.3053 16.9814 21.4793 17.616C21.6322 17.0023 21.8982 16.4611 22.3568 16.0845C22.7631 15.7507 23.2955 15.585 23.9285 15.5996C21.7313 12.7982 19.1628 10.1127 17.9365 6.71981L17.9148 4.70508ZM8.63805 5.25234L7.79439 5.26378C7.79439 5.26378 7.80611 6.12347 7.82064 6.99675C7.82795 7.43344 7.83587 7.87345 7.84356 8.21217C7.84637 8.33573 7.84905 8.42686 7.85172 8.51883C6.24025 12.4438 4.61013 16.0654 2.04297 19.4614C3.61961 19.3964 5.152 19.405 6.66259 19.4595C7.70617 16.5243 7.75694 13.1382 8.33261 9.99047C8.86778 13.2043 8.82789 16.527 9.90212 19.6388C11.916 19.7832 13.9188 19.9762 15.9654 20.1509C13.3559 16.4407 10.4242 12.8835 8.69425 8.46192C8.69191 8.37839 8.68956 8.30273 8.68713 8.193C8.67953 7.85756 8.67152 7.41848 8.66425 6.98269C8.64972 6.11109 8.63805 5.25234 8.63805 5.25234Z" fill="#415064"/>
</svg>
