<svg width="25" height="25" viewBox="0 0 25 25" fill="none" xmlns="http://www.w3.org/2000/svg">
<path d="M18.7544 1.30591H18.6981L20.7044 9.652C20.9106 9.47388 21.1216 9.29106 21.3419 9.10825L19.495 1.40716C19.2466 1.34341 18.9981 1.30778 18.7544 1.30591ZM17.8731 1.47091C17.5638 1.59747 17.2778 1.80044 17.0341 2.09247C11.1981 8.992 9.03252 11.1529 2.13393 16.9936C-0.839823 19.5061 5.39033 25.7358 7.90283 22.7639C12.8669 16.8998 15.1731 14.4529 19.9872 10.2717L19.6122 8.71075L16.6122 10.1311L14.7981 10.9936L14.4138 11.1764L13.4435 11.6358L13.0778 10.8764L14.0716 10.4029C13.8325 9.77481 13.7294 9.10919 13.8231 8.47169C13.9403 7.70294 14.3763 6.98106 15.1638 6.56388H15.1731L15.1778 6.55919C15.4825 6.41388 15.7919 6.33888 16.0919 6.3295C16.1247 6.3295 16.1528 6.3295 16.1856 6.32481C16.6591 6.32481 17.1138 6.46075 17.5075 6.69981C18.0653 7.03263 18.5247 7.54356 18.8622 8.1295L19.4106 7.87169L17.8731 1.47091ZM20.456 1.78544L22.0638 8.49044C22.3075 8.28419 22.5466 8.07794 22.8044 7.86232C24.745 6.22169 22.7622 3.00044 20.456 1.78544ZM16.1388 7.15919C15.9513 7.16856 15.7544 7.22013 15.5481 7.31856C14.9997 7.61388 14.7419 8.04513 14.6622 8.59825C14.5966 9.03419 14.6669 9.54044 14.8403 10.042L16.5091 9.24981L18.0935 8.49513C17.8169 8.04044 17.456 7.65138 17.0716 7.42169C16.7856 7.24825 16.4997 7.1545 16.1997 7.15919H16.1388ZM10.7575 13.192L11.5169 13.5576L11.0575 14.5279L9.77315 17.2373L8.30127 20.3358L7.54189 19.9701L8.01064 18.9764C7.42471 18.6389 6.91377 18.1795 6.58096 17.6217C6.17783 16.9467 6.05596 16.1029 6.44033 15.2967V15.2873L6.44502 15.2779C6.86221 14.4904 7.58877 14.0545 8.35283 13.9373C8.49815 13.9186 8.64346 13.9045 8.79346 13.9045H8.93877C9.38877 13.9186 9.84815 14.0217 10.2888 14.1858L10.7575 13.192ZM8.79815 14.7529C8.69033 14.7529 8.58252 14.7576 8.47939 14.7764C7.93096 14.8561 7.49502 15.1139 7.19971 15.6623C6.9419 16.2154 7.0169 16.7029 7.30283 17.1858C7.53721 17.5701 7.92158 17.9311 8.37627 18.2076L9.14971 16.5811L9.92315 14.9545C9.58096 14.8326 9.23877 14.7623 8.91065 14.7529H8.79815Z" fill="#415064"/>
</svg>
