<svg width="25" height="25" viewBox="0 0 25 25" fill="none" xmlns="http://www.w3.org/2000/svg">
<path d="M9.98421 21.2779C11.7642 20.5779 11.3742 18.6479 10.4742 17.4279C9.58421 16.1779 8.35421 15.3179 7.11421 14.4879C6.22928 13.9305 5.43929 13.2351 4.77421 12.4279C4.49421 12.0979 3.92421 11.4879 4.50421 11.3679C5.09421 11.2479 6.11421 11.8279 6.63421 12.0479C7.54421 12.4279 8.44421 12.8679 9.28421 13.3879L10.2942 11.6879C8.73421 10.6579 6.73421 9.74794 4.87421 9.47794C3.81421 9.31794 2.69421 9.53794 2.33421 10.6879C2.01421 11.6779 2.52421 12.6779 3.10421 13.4579C4.47421 15.2879 6.60421 16.1679 8.19421 17.7479C8.53421 18.0779 8.94421 18.4679 9.14421 18.9279C9.35421 19.3679 9.30421 19.3979 8.83421 19.3979C7.59421 19.3979 6.04421 18.4279 5.03421 17.7879L4.02421 19.4879C5.55421 20.4279 8.11421 21.8979 9.98421 21.2779ZM21.0742 5.67794C21.2942 5.45794 21.2942 5.09794 21.0742 4.88794L19.7742 3.58794C19.6697 3.48653 19.5298 3.42981 19.3842 3.42981C19.2386 3.42981 19.0987 3.48653 18.9942 3.58794L17.9742 4.60794L20.0542 6.68794M11.2342 11.3479V13.4279H13.3142L19.4642 7.27794L17.3842 5.19794L11.2342 11.3479Z" fill="#415064"/>
</svg>
