<svg width="24" height="24" viewBox="0 0 24 24" fill="none" xmlns="http://www.w3.org/2000/svg">
<path d="M8.64583 20.028C8.97431 20.028 9.26076 20.0624 9.50521 20.1311C9.74965 20.1999 9.97882 20.2992 10.1927 20.429C10.4066 20.5589 10.609 20.7155 10.8 20.8988C10.991 21.0821 11.1972 21.2808 11.4187 21.4946H1.3125V3.89465H2.77917V20.028H8.64583ZM8.64583 2.42798C9.15764 2.42798 9.66181 2.48909 10.1583 2.61131C10.6549 2.73353 11.1285 2.92451 11.5792 3.18423V19.6269C11.1667 19.2832 10.7083 19.0196 10.2042 18.8363C9.7 18.653 9.18056 18.5613 8.64583 18.5613H4.24583V2.42798H8.64583ZM23.3125 3.89465V21.4946H13.2063C13.4201 21.2808 13.6226 21.0821 13.8135 20.8988C14.0045 20.7155 14.2069 20.5627 14.4208 20.4405C14.6347 20.3183 14.8639 20.219 15.1083 20.1426C15.3528 20.0662 15.6431 20.028 15.9792 20.028H21.8458V3.89465H23.3125ZM15.9792 18.5613C15.4444 18.5613 14.925 18.653 14.4208 18.8363C13.9167 19.0196 13.4583 19.2832 13.0458 19.6269V3.18423C13.4965 2.93215 13.9701 2.74499 14.4667 2.62277C14.9632 2.50055 15.4674 2.43562 15.9792 2.42798H20.3792V18.5613H15.9792Z" fill="#415064"/>
</svg>
