<svg width="24" height="25" viewBox="0 0 24 25" fill="none" xmlns="http://www.w3.org/2000/svg">
<path d="M10.904 7.42799H13.096V5.23599H10.904V7.42799ZM12 12.813C10.926 12.813 9.88733 12.6273 8.884 12.256C7.882 11.8847 6.92067 11.4127 6 10.84V9.04298C6 8.59898 6.158 8.21899 6.474 7.90299C6.79 7.58699 7.17067 7.42865 7.616 7.42799H9.904V5.00499C9.904 4.79832 9.98067 4.61832 10.134 4.46499C10.2873 4.31165 10.467 4.23499 10.673 4.23499H13.327C13.5337 4.23499 13.7137 4.31165 13.867 4.46499C14.0203 4.61832 14.097 4.79832 14.097 5.00499V7.42799H16.385C16.829 7.42799 17.209 7.58632 17.525 7.90299C17.841 8.21965 17.9993 8.59965 18 9.04298V10.84C17.08 11.4133 16.1187 11.8853 15.116 12.256C14.1133 12.6273 13.0747 12.813 12 12.813ZM7.616 21.428V20.428C7.17133 20.428 6.791 20.2697 6.475 19.953C6.159 19.6363 6.00067 19.2567 6 18.814V12.014C6.85667 12.5033 7.74233 12.9067 8.657 13.224C9.57167 13.54 10.5193 13.7327 11.5 13.802V14.813H12.5V13.802C13.4807 13.7327 14.4283 13.5397 15.343 13.223C16.2583 12.9063 17.144 12.503 18 12.013V18.813C18 19.2577 17.8417 19.638 17.525 19.954C17.2083 20.27 16.8283 20.4283 16.385 20.429V21.429H15.385V20.429H8.615V21.429L7.616 21.428Z" fill="#415064"/>
</svg>
