<svg width="42" height="42" viewBox="0 0 42 42" fill="none" xmlns="http://www.w3.org/2000/svg">
<path d="M8.3125 4.8125C7.38424 4.8125 6.494 5.18125 5.83763 5.83763C5.18125 6.494 4.8125 7.38424 4.8125 8.3125V33.6875C4.8125 34.6158 5.18125 35.506 5.83763 36.1624C6.494 36.8188 7.38424 37.1875 8.3125 37.1875H33.6875C34.6158 37.1875 35.506 36.8188 36.1624 36.1624C36.8188 35.506 37.1875 34.6158 37.1875 33.6875V8.3125C37.1875 7.38424 36.8188 6.494 36.1624 5.83763C35.506 5.18125 34.6158 4.8125 33.6875 4.8125H8.3125Z" stroke="#B0752A" stroke-width="1.5" stroke-linecap="round" stroke-linejoin="round"/>
<path d="M29.7542 25.9446C29.4651 26.4515 29.0469 26.8729 28.5422 27.166C28.0376 27.459 27.4643 27.6133 26.8807 27.6132C26.0037 27.6132 25.1625 27.2649 24.5423 26.6448C23.922 26.0247 23.5735 25.1836 23.5732 24.3066V22.1576C23.5732 21.2804 23.9217 20.4391 24.542 19.8188C25.1623 19.1986 26.0035 18.8501 26.8807 18.8501C27.7579 18.8501 28.5992 19.1986 29.2195 19.8188C29.8398 20.4391 30.1882 21.2804 30.1882 22.1576V23.2321H23.5732" stroke="#B0752A" stroke-width="1.5" stroke-linecap="round" stroke-linejoin="round"/>
<path d="M17.269 21.0001C17.7078 20.993 18.1437 21.0732 18.5512 21.2362C18.9586 21.3992 19.3296 21.6417 19.6425 21.9495C19.9553 22.2573 20.2038 22.6243 20.3734 23.029C20.543 23.4338 20.6303 23.8683 20.6303 24.3072C20.6303 24.746 20.543 25.1805 20.3734 25.5853C20.2038 25.9901 19.9553 26.3571 19.6425 26.6649C19.3296 26.9727 18.9586 27.2151 18.5512 27.3781C18.1437 27.5411 17.7078 27.6214 17.269 27.6142H11.8125V14.3869H17.269C17.7096 14.3767 18.1478 14.4548 18.5579 14.6164C18.9679 14.778 19.3416 15.0199 19.6568 15.328C19.972 15.636 20.2225 16.004 20.3935 16.4102C20.5645 16.8164 20.6526 17.2527 20.6526 17.6935C20.6526 18.1342 20.5645 18.5705 20.3935 18.9768C20.2225 19.383 19.972 19.7509 19.6568 20.059C19.3416 20.367 18.9679 20.609 18.5579 20.7706C18.1478 20.9322 17.7096 21.0102 17.269 21.0001ZM17.269 21.0001H11.8125" stroke="#B0752A" stroke-width="1.5" stroke-linecap="round" stroke-linejoin="round"/>
<path d="M23.5742 14.3867H30.1875" stroke="#B0752A" stroke-width="1.5" stroke-linecap="round" stroke-linejoin="round"/>
</svg>
