<svg width="42" height="42" viewBox="0 0 42 42" fill="none" xmlns="http://www.w3.org/2000/svg">
<path d="M22.214 19.5475V19.4985L22.1816 19.5484L22.214 19.5475Z" fill="#B0752A"/>
<path d="M13.5908 11.78C13.5908 11.7283 13.6328 11.6863 13.6846 11.6863C13.7363 11.6863 13.7783 11.7283 13.7783 11.78C13.7783 11.8318 13.7363 11.8738 13.6846 11.8738C13.6328 11.8738 13.5908 11.8318 13.5908 11.78Z" fill="#B0752A" stroke="#B0752A" stroke-width="1.5"/>
<path d="M13.6846 14.8137V27.9229M28.9708 27.9229V19.5159C28.9709 18.8467 28.8392 18.1841 28.5832 17.5658C28.3272 16.9476 27.9519 16.3858 27.4788 15.9126C27.0057 15.4393 26.4439 15.064 25.8257 14.8078C25.2075 14.5517 24.5449 14.4199 23.8757 14.4199C23.2064 14.4198 22.5437 14.5515 21.9254 14.8076C21.3071 15.0637 20.7453 15.439 20.272 15.9122C19.7988 16.3855 19.4234 16.9473 19.1674 17.5656C18.9113 18.184 18.7796 18.8467 18.7797 19.5159M18.7797 19.5159V27.9229M18.7797 19.5159V14.8137" stroke="#B0752A" stroke-width="1.5" stroke-linecap="round" stroke-linejoin="round"/>
<path d="M33.6875 4.8125H8.3125C7.38424 4.8125 6.494 5.18125 5.83763 5.83763C5.18125 6.494 4.8125 7.38424 4.8125 8.3125V33.6875C4.8125 34.6158 5.18125 35.506 5.83763 36.1624C6.494 36.8188 7.38424 37.1875 8.3125 37.1875H33.6875C34.6158 37.1875 35.506 36.8188 36.1624 36.1624C36.8188 35.506 37.1875 34.6158 37.1875 33.6875V8.3125C37.1875 7.38424 36.8188 6.494 36.1624 5.83763C35.506 5.18125 34.6158 4.8125 33.6875 4.8125Z" stroke="#B0752A" stroke-width="1.5" stroke-linecap="round" stroke-linejoin="round"/>
</svg>
