<svg width="46" height="46" viewBox="0 0 46 46" fill="none" xmlns="http://www.w3.org/2000/svg">
<path d="M35.3379 40.1293H10.6628C9.39193 40.1293 8.17315 39.6245 7.27454 38.7259C6.37593 37.8273 5.87109 36.6085 5.87109 35.3377V10.6625C5.87109 9.39169 6.37593 8.17291 7.27454 7.2743C8.17315 6.37568 9.39193 5.87085 10.6628 5.87085H35.3379C36.6088 5.87085 37.8275 6.37568 38.7261 7.2743C39.6248 8.17291 40.1296 9.39169 40.1296 10.6625V35.3377C40.1296 36.6085 39.6248 37.8273 38.7261 38.7259C37.8275 39.6245 36.6088 40.1293 35.3379 40.1293ZM10.6628 7.78752C9.90026 7.78752 9.169 8.09042 8.62983 8.62958C8.09066 9.16875 7.78776 9.90002 7.78776 10.6625V35.3377C7.78776 36.1002 8.09066 36.8314 8.62983 37.3706C9.169 37.9098 9.90026 38.2127 10.6628 38.2127H35.3379C36.1004 38.2127 36.8317 37.9098 37.3709 37.3706C37.91 36.8314 38.2129 36.1002 38.2129 35.3377V10.6625C38.2129 9.90002 37.91 9.16875 37.3709 8.62958C36.8317 8.09042 36.1004 7.78752 35.3379 7.78752H10.6628Z" fill="#B0752A"/>
<path d="M22.9997 31.8051C21.2581 31.8032 19.5562 31.285 18.1091 30.316C16.662 29.3471 15.5347 27.9708 14.8696 26.3612C14.2046 24.7517 14.0316 22.9811 14.3727 21.2733C14.7137 19.5654 15.5535 17.9971 16.7858 16.7664C18.018 15.5357 19.5875 14.698 21.2958 14.3592C23.004 14.0204 24.7744 14.1956 26.3831 14.8628C27.9918 15.5299 29.3666 16.6591 30.3337 18.1074C31.3007 19.5558 31.8167 21.2584 31.8163 22.9999C31.8133 25.3362 30.883 27.5758 29.2299 29.2268C27.5768 30.8778 25.336 31.8051 22.9997 31.8051ZM22.9997 16.0999C21.6377 16.1018 20.3068 16.5073 19.1752 17.2652C18.0435 18.023 17.1618 19.0992 16.6415 20.3579C16.1212 21.6166 15.9855 23.0012 16.2517 24.3369C16.5179 25.6726 17.1739 26.8995 18.137 27.8626C19.1 28.8257 20.3269 29.4817 21.6626 29.7479C22.9984 30.0141 24.383 29.8784 25.6417 29.3581C26.9003 28.8377 27.9766 27.9561 28.7344 26.8244C29.4923 25.6928 29.8978 24.3619 29.8997 22.9999C29.8997 21.1699 29.1727 19.4149 27.8787 18.1209C26.5847 16.8269 24.8296 16.0999 22.9997 16.0999Z" fill="#B0752A"/>
<path d="M32.9667 15.1514C34.1046 15.1514 35.0271 14.2289 35.0271 13.0909C35.0271 11.953 34.1046 11.0305 32.9667 11.0305C31.8287 11.0305 30.9062 11.953 30.9062 13.0909C30.9062 14.2289 31.8287 15.1514 32.9667 15.1514Z" fill="#B0752A"/>
</svg>
