<svg width="42" height="42" viewBox="0 0 42 42" fill="none" xmlns="http://www.w3.org/2000/svg">
<path d="M11.7163 10.6313V33.7226H6.1775C5.58643 33.7226 5.01932 33.489 4.59974 33.0727C4.18015 32.6564 3.94212 32.0911 3.9375 31.5001V14.7176M30.2838 10.6313V33.7226H35.8225C36.4136 33.7226 36.9807 33.489 37.4003 33.0727C37.8198 32.6564 38.0579 32.0911 38.0625 31.5001V14.7176" stroke="#B0752A" stroke-width="1.5" stroke-miterlimit="10"/>
<path d="M21 27.5188L38.0625 14.875V11.725C38.0609 11.0877 37.8827 10.4634 37.5477 9.92124C37.2126 9.37913 36.7339 8.94048 36.1646 8.65403C35.5953 8.36758 34.9578 8.24452 34.3228 8.29854C33.6878 8.35256 33.0802 8.58152 32.5675 8.96002L21 17.5525L9.4325 8.96002C8.91978 8.58152 8.31219 8.35256 7.67719 8.29854C7.0422 8.24452 6.40466 8.36758 5.83538 8.65403C5.2661 8.94048 4.78736 9.37913 4.45233 9.92124C4.1173 10.4634 3.93909 11.0877 3.9375 11.725V14.875L21 27.5188Z" stroke="#B0752A" stroke-width="1.5" stroke-miterlimit="10"/>
</svg>
