<svg width="608" height="156" viewBox="0 0 608 156" fill="none" xmlns="http://www.w3.org/2000/svg">
<path d="M16.9798 79.6C13.3898 78.67 10.1098 77.2 7.12977 75.19C4.14977 73.18 1.80977 70.64 0.119766 67.57L1.56977 65.64C3.09977 68.62 5.29977 71.06 8.15977 72.95C11.0198 74.84 14.1398 76.25 17.5298 77.18C20.9198 78.11 24.1398 78.57 27.1998 78.57C32.6798 78.57 37.0098 77.3 40.1998 74.76C43.3798 72.22 44.9798 68.58 44.9798 63.82C44.9798 60.11 43.3098 56.83 39.9598 53.97C36.6098 51.11 31.5598 48.27 24.7898 45.45C19.4698 43.2 14.9598 41.02 11.2498 38.92C7.53977 36.83 4.73977 34.47 2.84977 31.85C0.959766 29.23 0.00976562 26.03 0.00976562 22.24C0.00976562 17.33 1.27977 13.23 3.81977 9.97C6.35977 6.71 9.67977 4.23 13.7898 2.54C17.8898 0.85 22.2798 0 26.9598 0C30.5098 0 33.9898 0.54 37.4198 1.63C40.8398 2.72 43.9098 4.31 46.6098 6.4C49.3098 8.5 51.3798 10.99 52.8398 13.9L51.2698 15.83C49.8998 12.85 47.8898 10.37 45.2298 8.4C42.5698 6.43 39.6698 4.94 36.5298 3.93C33.3898 2.92 30.2798 2.42 27.2198 2.42C21.6598 2.42 17.2498 3.53 13.9798 5.74C10.7198 7.96 9.07977 11.28 9.07977 15.71C9.07977 18.53 10.0298 20.91 11.9198 22.84C13.8098 24.77 16.5098 26.59 20.0198 28.28C23.5298 29.97 27.6498 31.95 32.4098 34.2C37.0798 36.3 41.1298 38.45 44.5598 40.67C47.9798 42.89 50.6398 45.34 52.5398 48.04C54.4298 50.74 55.3798 53.94 55.3798 57.65C55.3798 61.92 54.2498 65.83 51.9998 69.38C49.7398 72.93 46.5198 75.75 42.3298 77.84C38.1398 79.94 33.0998 80.98 27.2198 80.98C23.9998 80.98 20.5898 80.52 17.0098 79.59L16.9798 79.6Z" fill="#3E4F63"/>
<path d="M133.22 0.720215V80.2602H130.8L74.71 20.6602V80.2602H72.29V0.720215H74.71L130.8 60.3202V0.720215H133.22Z" fill="#3E4F63"/>
<path d="M197.179 77.8501C196.929 78.6301 196.669 79.4401 196.399 80.2701H203.209V77.8501H197.179Z" fill="#3E4F63"/>
<path d="M166.58 3.14998V39.29H194.14V41.71H166.58V77.85H197.18C196.93 78.63 196.67 79.44 196.4 80.27H152.92V0.72998H203.21V3.14998H166.58Z" fill="#3E4F63"/>
<path d="M239.88 77.8501C239.38 78.6401 238.84 79.4501 238.26 80.2701H279.73V77.8501H239.88Z" fill="#3E4F63"/>
<path d="M236.64 76.25L235.73 77.85H239.88C239.38 78.64 238.84 79.45 238.26 80.27H218.68L262.57 3.14998H218.68V0.72998H279.73L239.98 70.4L236.64 76.25Z" fill="#3E4F63"/>
<path d="M345.369 0.720215H359.029V80.2602H345.369V41.8202H311.639V80.2602H297.979V0.720215H311.639V39.4002H345.369V0.720215Z" fill="#3E4F63"/>
<path d="M430.83 80.27L420.68 57.18H387.07L376.43 80.27H373.77L410.64 0L445.7 80.27H430.83ZM388.16 54.76H419.71L404.36 19.58L388.16 54.76Z" fill="#3E4F63"/>
<path d="M520.65 0.720215V80.2602H518.23L462.14 20.6602V80.2602H459.72V0.720215H462.14L518.23 60.3202V0.720215H520.65Z" fill="#3E4F63"/>
<path d="M592.339 80.27L582.189 57.18H548.579L537.939 80.27H535.279L572.149 0L607.209 80.27H592.339ZM549.659 54.76H581.209L565.859 19.58L549.659 54.76Z" fill="#3E4F63"/>
<path d="M215.949 103.23C215.709 103.08 215.019 102.97 213.789 102.92C213.349 102.9 212.369 102.84 210.859 102.78C207.389 102.64 201.149 102.5 192.469 102.85C194.859 97.2298 198.489 88.4398 201.429 80.2698C201.729 79.4498 202.009 78.6498 202.289 77.8498C204.269 72.1798 205.809 67.0098 206.229 63.6798C206.299 58.9998 204.279 56.9098 200.099 55.4698C193.549 53.0898 183.469 56.6898 176.049 60.0098C172.799 61.4798 169.639 63.1298 166.579 64.9398V69.8898C170.999 66.9298 175.569 64.3198 180.229 62.1698C185.919 59.7198 191.679 57.2698 198.089 56.9798C200.679 57.0498 201.399 59.1398 201.469 61.7298C201.509 63.5598 199.849 69.5398 197.179 77.8498C196.929 78.6298 196.669 79.4398 196.399 80.2698C194.229 86.8898 191.529 94.7598 188.579 103.07C173.169 103.93 151.209 106.38 124.209 112.79C131.689 101.98 141.649 90.2598 153.089 80.2698H152.919V74.3798C149.439 77.1398 146.089 80.0998 142.859 83.1898C132.639 92.6998 124.209 103.79 116.219 115.31C115.639 116.24 106.929 117.68 97.7093 121.07C95.1893 122 88.2793 123.44 96.4893 125.6C97.4193 125.82 96.9193 124.81 98.9393 124.09C102.819 122.8 107.139 121.35 113.189 120.27C110.669 124.38 104.549 131.94 99.0093 144.33C97.9993 147.57 93.3193 155.7 100.019 155.77C101.459 155.85 100.879 153.9 101.379 152.82C102.969 145.48 112.329 129.85 120.539 117.76C134.219 112.71 164.249 108.32 187.579 105.95C182.899 119.05 177.779 133.02 173.319 144.97C172.309 147.78 175.259 144.83 179.009 136.12C182.099 128.92 183.829 124.09 190.099 108.54C190.239 108.11 190.669 107.1 191.389 105.59C198.689 104.87 205.179 104.4 210.019 104.21C210.579 104.18 211.119 104.16 211.629 104.15C213.619 104.08 215.109 103.85 215.729 103.6C216.049 103.47 216.139 103.34 215.949 103.23Z" fill="#B0752A"/>
<path d="M241.579 116.77C241.309 116.98 241.019 117.22 240.709 117.47C233.289 123.52 219.899 133.02 212.339 133.02C206.499 133.02 205.639 128.27 207.079 122.22C208.089 118.4 209.739 114.87 211.469 111.35C214.799 108.07 232.719 91.4597 240.719 80.2697C241.319 79.4297 241.869 78.6197 242.349 77.8497C243.749 75.5797 244.589 73.6497 244.589 72.2497C244.589 70.8497 242.789 70.1597 241.569 70.1597C241.069 70.1597 240.539 70.2397 239.979 70.3997L236.639 76.2497C237.579 75.2397 238.459 74.3297 239.269 73.5397C241.569 71.3097 243.509 71.4497 241.639 74.9097C241.109 75.8697 240.529 76.8497 239.879 77.8497C239.379 78.6397 238.839 79.4497 238.259 80.2697C233.569 86.8997 226.259 94.7197 214.349 106.02C214.799 105.2 215.259 104.39 215.729 103.6C215.799 103.47 215.869 103.35 215.949 103.23C219.359 97.4897 223.309 92.2097 227.529 86.9397C229.249 84.7897 231.169 82.4697 233.069 80.2697H227.409C221.659 86.5497 215.589 94.9097 210.859 102.78C210.569 103.26 210.289 103.74 210.019 104.21H210.009C205.399 112.1 202.249 119.33 202.249 123.3C202.249 130.36 206.499 134.39 212.189 134.39C221.119 134.39 231.909 126.76 239.519 120.09C240.749 119.01 241.899 117.95 242.939 116.96C244.019 115.95 244.519 115.31 244.519 115.09C244.519 114.78 243.469 115.29 241.579 116.77Z" fill="#B0752A"/>
<path d="M238.179 125.53C238.179 121.79 240.199 117.39 245.159 112.93C247.749 110.91 251.279 108.83 254.809 108.9C256.899 108.97 259.629 110.12 259.629 112.28C259.629 112.86 259.489 113.5 259.049 114.15C256.889 117.53 249.759 121.71 243.499 123.65C242.999 124.87 242.709 126.24 242.709 127.61C242.709 130.92 244.579 133.87 249.549 133.51C255.449 133.22 266.329 126.09 278.059 118.89C278.639 118.53 279.719 118.17 279.139 118.75C277.769 120.12 258.909 135.6 248.749 135.38C242.699 135.02 238.169 131.06 238.169 125.52L238.179 125.53ZM255.099 114.8C255.959 114.01 256.759 112.64 256.759 111.7C256.759 111.2 256.469 110.91 255.899 110.91C255.329 110.91 254.459 111.13 253.239 111.85C249.279 113.87 246.539 117.32 244.379 121.28C248.119 119.55 252.009 117.75 255.109 114.8H255.099Z" fill="#B0752A"/>
<path d="M272.949 132.15C272.809 129.77 273.169 127.61 274.169 124.81C278.489 112.57 289.289 96.5096 299.229 85.0596C302.249 81.5296 306.359 77.2796 310.179 74.6896C310.899 74.1896 311.619 73.8996 312.409 74.0396C313.489 74.1796 313.129 75.4096 312.269 77.2096C310.899 79.8696 309.029 82.1096 307.159 84.1896C306.439 84.9096 305.579 85.6996 304.859 86.3496C304.139 86.9996 303.419 86.9296 302.269 86.3496C291.329 99.9596 282.609 114.43 278.149 128.19C277.359 130.57 277.429 132.01 280.019 129.2C284.769 124.3 298.669 110.12 305.939 110.12C307.379 110.12 308.609 110.26 309.759 111.06C309.979 111.13 310.189 111.35 310.119 111.56C310.049 111.85 309.829 111.92 309.619 111.99C308.469 112.35 307.319 112.64 306.159 113C301.189 114.51 297.229 117.82 292.979 120.78C294.129 124.31 296.219 127.04 298.599 129.64C299.679 130.94 301.049 131.37 302.629 131.37C304.859 131.37 306.879 130.79 308.749 130C313.069 128.34 317.169 126.26 321.279 124.24C324.229 122.73 327.179 121.22 330.059 119.63C330.199 119.49 330.419 119.41 330.559 119.63L330.339 119.99C329.619 120.64 328.759 121.21 327.889 121.79C323.069 124.96 318.099 127.98 312.979 130.72C311.399 131.58 309.809 132.3 308.079 132.74C302.249 134.32 297.349 132.88 293.389 128.35C292.089 126.91 290.869 125.33 289.929 123.6C287.189 125.98 284.819 128.71 282.299 131.38C281.219 132.53 280.139 133.61 278.839 134.55C277.259 135.7 273.079 134.55 272.939 132.17L272.949 132.15Z" fill="#B0752A"/>
<path d="M325.729 132.15C325.659 131.5 326.229 131.07 326.739 130.85C327.459 130.42 329.119 130.2 329.979 129.99C331.709 129.49 332.569 128.33 332.999 126.61C333.579 123.73 332.419 120.56 331.419 117.82C330.269 114.72 331.129 112.2 333.579 110.12C335.379 108.46 337.609 107.67 339.919 107.31C340.999 107.17 341.939 107.45 342.729 108.17C343.089 108.46 343.089 108.75 342.729 109.03C342.299 109.32 341.789 109.46 341.289 109.68C339.559 110.33 338.049 111.34 336.829 112.78C335.679 114.22 335.099 115.88 335.679 117.6C337.339 122.57 337.979 124.8 337.909 127.25C343.309 125.16 348.639 123.15 353.969 120.91C356.989 119.61 359.949 118.32 362.899 116.95C363.039 116.88 363.189 116.73 363.259 116.81C363.479 117.03 363.189 117.17 363.119 117.24C362.689 117.6 362.179 117.96 361.679 118.25C357.939 120.55 353.969 122.5 350.009 124.44C345.619 126.53 341.229 128.62 336.619 130.34C334.889 132.14 332.519 133.8 329.129 133.8C328.119 133.8 325.749 133.15 325.749 132.14L325.729 132.15Z" fill="#B0752A"/>
<path d="M357.699 125.24C358.349 121.64 359.929 118.47 362.309 115.59C363.249 114.37 366.339 114.65 367.279 115.52C367.709 115.88 367.709 116.24 367.499 116.67C367.069 117.25 366.709 117.82 366.349 118.33C364.839 120.56 363.609 122.87 362.749 125.39C362.389 126.47 362.169 127.62 362.319 128.77C362.539 130.5 363.329 130.93 365.059 130.86C368.879 130.64 384.139 122.94 390.909 118.62C391.339 118.33 391.769 117.97 392.209 117.76C392.499 117.54 392.639 117.04 393.149 117.26C392.929 117.48 392.789 117.76 392.499 117.98C391.059 119.42 389.399 120.5 387.749 121.65C382.569 124.96 377.169 128.49 371.689 131.15C369.669 132.09 367.659 133.02 365.429 132.95C361.969 132.88 356.789 130.65 357.719 125.24H357.699ZM366.259 109.11C367.699 106.66 369.499 102.05 370.149 98.5299C370.369 97.6699 370.579 97.3099 371.519 97.5199C372.819 97.8099 374.399 99.1799 374.189 101.19C374.049 103.13 370.299 108.03 367.349 109.61C366.269 110.11 365.689 110.11 366.269 109.11H366.259Z" fill="#B0752A"/>
<path d="M386.999 125.53C386.999 121.79 389.019 117.39 393.989 112.93C396.579 110.91 400.109 108.83 403.639 108.9C405.729 108.97 408.459 110.12 408.459 112.28C408.459 112.86 408.319 113.5 407.879 114.15C405.719 117.53 398.589 121.71 392.329 123.65C391.829 124.87 391.539 126.24 391.539 127.61C391.539 130.92 393.409 133.87 398.379 133.51C404.289 133.22 415.159 126.09 426.889 118.89C427.469 118.53 428.549 118.17 427.969 118.75C426.599 120.12 407.739 135.6 397.579 135.38C391.529 135.02 386.999 131.06 386.999 125.52V125.53ZM403.919 114.8C404.779 114.01 405.579 112.64 405.579 111.7C405.579 111.2 405.289 110.91 404.719 110.91C404.149 110.91 403.279 111.13 402.059 111.85C398.099 113.87 395.359 117.32 393.199 121.28C396.939 119.55 400.829 117.75 403.929 114.8H403.919Z" fill="#B0752A"/>
<path d="M423.719 132.44C422.569 131.43 422.349 129.99 422.279 128.41C422.059 122.94 426.169 112.57 428.399 112.57C429.479 112.57 430.339 112.93 431.139 113.58C431.569 113.94 431.639 114.37 431.359 114.73C429.629 116.82 427.829 124.09 427.329 126.68C426.969 128.7 426.899 130.14 426.899 130.86C426.899 131.94 427.119 132.01 427.979 131.44C428.839 130.87 429.639 130.29 430.359 129.57C435.179 124.96 439.429 119.92 442.739 114.16C443.169 113.44 443.459 112.65 443.529 111.86C443.599 111.07 443.819 110.28 444.179 109.48C444.609 108.62 445.039 108.4 446.049 108.54C446.479 108.61 446.839 108.76 447.199 108.97C447.989 109.4 448.139 109.69 447.849 110.48C447.059 112.64 447.199 116.39 448.499 119.05C449.359 120.85 451.239 121.57 453.399 120.99C458.299 119.77 462.829 117.82 467.149 115.3L468.009 114.8C468.079 114.73 468.229 114.73 468.229 114.8C468.369 114.87 468.369 115.02 468.229 115.16L467.649 115.81C467.069 116.46 466.349 117.11 465.629 117.61C462.749 119.63 459.649 121.28 456.339 122.43C451.589 124.09 446.329 122 444.169 117.17C441.219 121.56 437.979 125.88 434.309 129.7C433.009 130.92 431.789 132.15 430.279 133.16C428.259 134.46 425.459 134.02 423.729 132.44H423.719Z" fill="#B0752A"/>
<path d="M461.879 129.42C460.729 128.7 460.579 127.33 460.579 126.18C460.579 124.74 461.079 123.37 461.659 122.08C462.809 119.7 464.399 117.54 466.339 115.74C469.509 112.86 474.979 109.4 479.519 109.48C481.539 109.48 483.769 109.98 485.139 110.99C484.919 109.77 485.569 109.48 486.359 109.48C487.299 109.55 488.159 109.91 488.949 110.42C489.449 110.78 489.669 111.28 489.739 111.86C489.959 115.1 491.319 120 492.839 122.44C493.919 124.31 495.649 125.18 497.949 125.18C502.269 125.18 507.309 122.3 510.479 119.92C511.059 119.49 511.699 118.91 512.349 118.41C512.489 118.34 512.569 118.27 512.709 118.34C512.929 118.48 512.709 118.63 512.709 118.7C512.349 119.56 511.769 120.28 511.199 120.93C508.969 123.45 502.989 126.83 498.599 126.83C495.359 126.83 492.549 125.68 489.739 123.3C487.649 121.5 486.279 117.4 485.349 114.16C480.019 120.71 476.489 124.24 472.099 127.99C471.019 128.85 469.799 129.57 468.569 130.15C467.629 130.58 466.769 130.8 465.909 130.8C464.539 130.8 463.169 130.3 461.879 129.43V129.42ZM477.069 120.13C479.519 117.97 480.959 115.95 483.259 113.43C482.679 112.71 481.959 112.13 480.669 112.21C476.419 112.35 469.439 118.47 466.559 123.88C465.699 125.54 465.339 127.05 465.339 127.7C465.339 128.35 466.059 128.2 466.559 127.99C470.809 126.26 474.339 122.59 477.069 120.14V120.13Z" fill="#B0752A"/>
</svg>
