<svg width="90" height="90" viewBox="0 0 90 90" fill="none" xmlns="http://www.w3.org/2000/svg">
<path d="M19.703 33.008C19.799 32.816 19.991 32.528 20.183 32.144C24.695 27.824 32.183 27.152 37.655 27.632C38.903 27.824 39.767 27.152 40.535 26.288C49.559 16.784 65.975 4.688 76.631 2.768C78.167 2.384 79.607 2.096 81.047 1.424C81.911 0.943996 82.103 1.808 81.719 2.096C78.743 3.72799 76.631 5.936 74.327 8.336C69.911 12.752 66.071 17.84 62.423 23.024C60.887 25.52 58.967 27.92 57.527 30.224C62.135 30.416 66.551 29.36 70.391 27.152C71.063 26.576 70.871 27.632 70.295 27.92C66.455 29.744 62.999 30.416 58.871 30.704L57.335 30.896C55.799 31.952 50.807 41.456 49.655 43.568C45.431 51.92 42.263 60.272 40.439 69.2C39.863 71.888 41.495 75.248 44.279 75.248C47.255 75.44 50.615 71.696 51.863 69.2C52.535 67.856 53.015 66.32 53.495 65.168C53.495 65.168 53.783 65.168 53.975 65.168C52.919 69.392 50.615 72.752 46.775 75.152C41.399 77.36 37.847 71.408 38.519 66.8C39.575 59.504 41.783 52.592 45.047 45.872C47.351 41.168 49.463 36.56 53.399 30.704C48.695 30.032 44.855 29.168 40.247 28.4C39.383 28.304 38.903 28.592 38.615 29.072C36.119 31.664 34.199 34.352 32.279 37.232C25.655 45.968 19.799 55.856 11.639 63.344C10.199 64.496 8.759 65.36 6.647 65.36C0.310999 64.88 5.303 57.104 7.415 54.992C8.663 53.648 10.199 54.896 8.855 56.144C7.991 57.104 3.191 63.92 6.263 64.688C8.087 65.168 9.815 63.92 11.159 62.864C20.279 54.512 26.519 43.472 34.007 33.776C34.967 32.336 36.311 30.896 37.463 29.552C37.751 29.264 38.135 28.688 38.423 28.208C30.359 27.248 26.423 28.88 23.735 30.224C22.487 30.896 21.143 31.568 20.279 32.816C20.183 33.008 20.183 33.2 20.183 33.296C19.991 33.2 19.799 33.2 19.703 33.008ZM79.127 2.96C79.607 2.576 77.687 2.96 77.111 3.152C64.727 5.744 50.423 17.36 40.823 26.96C40.631 27.152 40.151 27.632 40.055 27.824C44.183 28.592 48.215 29.072 53.783 30.128C54.071 29.936 54.359 29.264 54.647 28.88C58.007 23.792 62.327 19.184 66.359 14.768C68.471 12.272 70.775 10.16 73.175 7.856C74.519 6.608 75.959 5.456 77.399 4.112C77.783 3.824 78.839 3.248 79.127 2.96ZM67.7278 42.896C67.5358 43.088 65.9037 43.664 67.4398 42.608C69.0718 41.264 74.7358 36.464 76.4638 35.216C78.0958 33.968 79.9198 33.008 81.7438 32.336C82.1278 32.24 82.6078 32.144 82.9918 32.144C83.5678 32.144 83.9518 32.528 83.9518 33.104C84.0478 34.736 82.8958 36.656 80.4958 39.056C77.6158 41.936 73.6797 44.24 70.8958 45.392C71.6638 46.16 72.6238 47.216 72.5278 48.464C72.5278 48.752 72.5278 49.136 72.5278 49.424C72.7198 49.328 73.0078 49.232 73.1998 49.136C75.4078 48.08 84.8158 44.816 86.7358 43.568C87.9838 42.704 89.6158 42.224 88.6558 42.992C83.6638 46.064 79.9198 46.544 75.0238 48.848C74.3518 49.232 73.5838 49.52 72.9118 49.904C72.7198 50 72.5278 50.288 72.4318 50.576C70.3198 58.736 65.0397 67.28 60.7197 73.424C56.5917 78.992 49.9677 88.208 42.8637 89.264C41.5197 89.456 40.3677 88.88 39.5037 87.824C39.0237 87.152 39.0237 86.384 39.3117 85.616C39.5997 84.272 39.9837 83.024 40.4637 81.776C40.8477 80.72 41.3277 79.664 41.7117 78.608C42.2877 77.072 43.1517 75.728 44.1117 74.48C45.2637 72.848 46.4157 71.12 47.6637 69.584C49.0077 67.952 50.5437 66.416 51.7917 64.784C53.9037 62.192 56.3997 60.08 58.9917 58.064C61.2957 56.432 63.5997 54.8 65.9037 53.264C67.2477 52.4 68.5918 51.632 70.0318 50.864C70.7998 50.48 71.1838 49.808 71.3758 48.944C71.6638 47.888 71.6638 46.832 70.6078 45.776C70.2238 45.392 70.2238 45.392 70.6078 45.008C73.3918 43.088 75.8878 40.88 78.2878 38.48C79.7278 36.944 81.0718 35.504 82.4158 33.968C83.8558 32.144 80.6878 33.2 79.8238 33.776C77.9038 34.736 76.1758 35.984 74.4478 37.424C72.6238 39.056 69.5518 41.264 67.7278 42.896ZM70.5117 51.44C70.5117 51.344 70.5117 51.344 70.4158 51.248C70.2238 51.44 69.9358 51.44 69.7438 51.632C67.2477 53.168 64.6557 54.704 62.2557 56.336C60.5277 57.488 58.8957 58.832 57.2637 60.176C56.0157 61.232 54.7677 62.288 53.6157 63.536C52.1757 65.072 50.8317 66.8 49.3917 68.432C48.8157 69.104 48.1437 69.68 47.6637 70.448C46.2237 72.368 44.7837 74.384 43.4397 76.4C43.0557 76.976 42.7677 77.552 42.5757 78.224C42.2877 78.8 42.0957 79.472 41.8077 79.952C40.9437 81.776 40.2717 83.6 39.8877 85.52C39.5997 86.96 40.0797 87.92 41.2317 88.304C41.9998 88.496 42.7677 88.496 43.5357 88.208C45.1677 87.536 46.6077 86.384 47.8557 85.04C48.2397 84.656 48.6237 84.176 49.0077 83.696C50.9277 81.584 52.8477 79.28 54.4797 76.88C56.3997 74.288 58.3197 71.696 60.0477 69.008C62.0637 65.936 63.8877 62.864 65.8077 59.792C66.9597 57.872 68.0158 55.952 69.1678 54.128C69.6478 53.264 70.0318 52.304 70.5117 51.44Z" fill="#B0752A"/>
</svg>
