<svg width="56" height="42" viewBox="0 0 56 42" fill="none" xmlns="http://www.w3.org/2000/svg">
<path d="M0.498906 36.929C0.834906 35.081 2.10691 33.545 2.99491 31.889C6.21091 26.105 9.71491 20.513 13.2909 14.921C21.4989 2.201 20.4909 3.017 22.0269 3.49699C22.3389 3.641 22.4109 3.761 22.3869 4.049C22.0749 5.297 21.5949 6.281 21.2349 7.433C19.9389 11.129 18.7629 14.753 17.7309 18.497C17.0349 21.161 16.3629 24.401 17.2749 26.369C17.4669 26.729 17.6829 27.233 18.1149 27.185C20.4909 26.441 23.2029 23.393 24.1389 22.505C31.0989 14.873 34.9149 9.425 42.2589 3.401C43.7949 2.153 45.0669 1.145 45.9549 0.976997C48.4749 0.808995 48.1149 2.537 47.9949 3.257C47.0829 8.561 40.9869 19.913 40.0749 22.025C38.4669 25.313 37.0989 28.697 35.5389 32.009C31.4349 41.225 37.0269 25.481 37.5549 24.209C38.4669 21.713 39.5229 19.265 40.6749 16.865C41.7549 14.705 47.5149 2.705 46.3149 2.033C35.2989 9.881 28.5309 21.401 22.1469 26.273C18.7389 29.249 15.2589 28.097 15.3309 23.393C15.6669 18.137 18.0429 12.977 19.4349 7.961C13.7469 16.649 8.01091 25.385 2.89891 34.433C2.87491 34.817 3.93091 33.329 4.24291 33.641C2.61091 35.993 1.74691 38.345 0.498906 36.929ZM48.9761 30.161C46.4801 30.113 44.9201 28.793 44.9201 26.945C44.9201 25.697 45.5921 24.233 47.2481 22.745C48.1121 22.073 49.2881 21.377 50.4641 21.401C51.1601 21.425 52.0721 21.809 52.0721 22.529C52.0721 22.721 52.0241 22.937 51.8801 23.153C51.1601 24.281 48.7841 25.673 46.6961 26.321C46.5281 26.729 46.4321 27.185 46.4321 27.641C46.4321 28.745 47.0561 29.609 48.7121 29.609C50.6321 29.609 53.2001 28.001 54.7841 26.777C54.9761 26.633 55.1921 26.441 55.4081 26.273C55.4561 26.249 55.4801 26.225 55.5281 26.249C55.6001 26.297 55.5281 26.345 55.5281 26.369C55.4081 26.657 55.2161 26.897 55.0241 27.113C54.5921 27.617 54.0401 28.049 53.4881 28.433C52.0961 29.321 50.3681 30.185 48.9761 30.161ZM46.9841 25.529C48.2321 24.953 49.5281 24.353 50.5601 23.369C50.8481 23.105 51.1121 22.649 51.1121 22.337C51.1121 22.169 51.0161 22.073 50.8241 22.073C50.6321 22.073 50.3441 22.145 49.9361 22.385C48.6161 23.057 47.7041 24.209 46.9841 25.529Z" fill="#B0752A"/>
</svg>
