<svg width="213" height="99" viewBox="0 0 213 99" fill="none" xmlns="http://www.w3.org/2000/svg">
<path d="M76.8866 39.416L76.9826 39.896C72.8546 43.448 56.6306 66.008 52.0226 70.808C50.9666 71.96 49.7186 72.92 48.2786 73.688C42.2306 76.376 39.8306 68.504 41.3666 62.936C42.1346 60.152 42.9026 57.368 44.0546 54.776C45.1106 52.376 46.1666 50.072 47.3186 47.672C48.0866 46.136 48.8546 44.696 49.8146 43.16C50.8706 41.144 52.0226 39.128 53.1746 37.208C53.9426 36.056 54.6146 34.808 55.3826 33.656C55.9586 32.792 56.5346 31.928 57.2066 30.968C57.6866 30.296 58.2626 29.624 58.6466 28.952C60.3746 26.456 62.0066 23.96 63.7346 21.56C65.1746 19.544 66.5186 17.624 67.9586 15.608C70.2626 12.632 72.2786 9.464 74.2946 6.392C74.7746 5.528 75.4466 4.568 75.4466 3.704C75.3506 1.976 72.1826 3.41599 71.3186 3.896C62.8706 7.256 48.4706 22.712 42.9986 29.72C42.1346 30.872 41.3666 32.024 40.5026 33.272C39.4466 34.712 38.3906 36.248 37.3346 37.688C36.4706 38.648 29.4626 53.816 28.5986 55.352C27.6386 57.752 26.6786 59.96 26.0066 62.264C25.8146 62.84 24.8546 62.936 24.4706 62.552C23.9906 61.88 23.6066 61.304 23.9906 60.44C24.7586 58.52 25.4306 56.6 26.1026 54.584C29.1746 47.576 32.2466 40.28 36.0866 33.464C37.3346 31.064 38.6786 28.472 40.0226 26.072C40.5026 25.208 40.9826 24.248 41.4626 23.384C42.2306 22.232 42.8066 20.984 43.5746 19.64C44.7266 17.816 45.8786 15.896 47.1266 13.976C47.7986 12.92 49.4306 10.808 50.0066 9.656C49.8146 9.656 48.1826 10.904 47.9906 11C45.4946 12.632 43.1906 14.072 40.8866 15.128C39.1586 16.28 13.1426 28.184 7.67062 35.384C4.88662 38.36 2.87062 41.336 1.23862 43.736C0.950625 43.064 1.14262 42.872 1.43062 42.392C2.87062 39.896 4.98262 37.496 6.80662 35.48C13.6226 27.512 32.8226 19.064 40.5986 14.648C41.7506 13.976 42.9026 13.304 44.0546 12.536C44.9186 12.056 45.8786 11.576 46.6466 10.904C47.8946 10.136 49.2386 9.272 50.3906 8.504C52.7906 6.584 54.1346 3.512 56.2466 1.112C56.7266 0.535997 57.0146 0.344 57.5906 0.344C58.6466 0.151997 55.3826 5.048 54.6146 6.2C49.8146 13.4 46.4546 19.832 42.8066 26.264C41.3666 28.664 39.3506 32.408 38.2946 34.904C40.2146 33.08 42.1346 30.104 43.6706 28.088C50.3906 19.832 62.4866 8.12 68.6306 4.76C69.7826 3.992 77.4626 0.247995 76.3106 4.568C76.0226 5.816 75.6386 7.16 75.0626 8.312C74.1986 10.136 73.3346 11.768 72.2786 13.304C71.4146 15.032 70.3586 16.568 69.2066 18.296C67.0946 21.368 65.0786 24.44 62.9666 27.608C61.5266 29.912 59.8946 32.024 58.5506 34.328C57.2066 36.344 55.8626 38.552 54.6146 40.664C52.9826 43.64 51.3506 46.712 49.7186 49.688C48.6626 51.8 47.7026 53.816 46.6466 55.928C46.2626 56.792 45.9746 57.56 45.5906 58.424C44.7266 60.728 43.7666 63.128 43.0946 65.528C42.1346 68.6 43.1906 77.144 49.7186 72.152C53.9426 69.272 73.2386 42.104 76.8866 39.416ZM73.7539 49.88C75.4819 47.96 76.9219 46.808 77.8819 45.464C80.9539 41.144 83.8339 36.248 87.0979 31.16C84.4099 33.368 79.7059 37.976 76.9219 39.992L76.8259 39.704C79.8979 37.208 83.6419 33.56 86.7139 30.584C88.2499 29.048 89.3059 27.128 90.4579 25.496C91.0339 24.632 91.8979 22.808 92.7619 23.192C93.3379 23.384 92.2819 25.688 92.0899 26.168C90.6499 28.76 89.3059 31.256 87.8659 33.752C87.0019 35.192 86.3299 36.344 85.5619 37.688L83.5459 41.336C85.2739 39.896 87.1939 38.36 89.0179 37.016C90.1699 36.152 91.8979 34.616 93.4339 34.04C94.7779 33.56 95.8339 34.328 95.5459 35.384C95.1619 36.728 92.1859 41.336 91.0339 42.104C90.8419 42.2 92.4739 42.008 92.9539 42.008C95.4499 41.72 99.3859 41.048 101.498 40.184C102.938 39.416 104.282 39.8 102.074 40.28C99.2899 41.24 95.0659 42.296 92.0899 42.296C91.6099 42.296 91.2259 42.392 90.7459 42.392C90.6499 42.392 90.4579 42.584 90.2659 42.776C89.1139 43.832 81.9139 49.112 83.6419 45.272C84.5059 44.024 86.1379 43.064 87.5779 42.392C88.3459 42.008 88.9219 41.432 89.1139 41.144C89.6899 40.472 96.1219 32.792 92.2819 35.096C90.5539 36.152 88.3459 38.072 86.7139 39.224C85.5619 40.088 84.6979 41.048 83.7379 41.816C83.3539 42.2 82.9699 42.584 82.5859 42.968C79.9939 45.944 77.6899 50.072 75.6739 53.336C68.9539 64.28 57.6259 84.152 51.9619 91.16C49.0819 94.904 42.7459 98.456 44.7619 90.872C47.8339 79.544 62.1379 63.032 73.7539 49.88ZM55.8979 72.344C50.4259 79.544 45.2419 87.992 44.9539 92.888C44.7619 96.824 48.4099 93.944 49.8499 91.832C58.3939 78.68 65.2099 65.528 73.1779 52.952L76.9219 47.192C70.2019 54.008 61.3699 65.048 55.8979 72.344ZM88.1539 42.584C86.4259 43.064 83.9299 44.792 83.7379 45.56C83.0659 47.096 87.8659 43.832 88.1539 42.584ZM117.494 39.992C120.086 38.744 118.262 40.28 117.014 40.568C115.094 41.336 113.174 41.624 111.254 41.816C110.39 41.912 109.622 42.008 108.662 41.816C107.414 43.736 105.782 45.656 103.958 46.904C102.806 47.672 100.886 47.48 100.31 46.232C99.7339 44.216 101.27 41.432 102.422 40.088L103.478 38.648C101.078 35.192 102.422 30.104 107.03 29.528C112.118 28.952 111.83 37.304 108.854 41.432C109.046 41.432 109.238 41.528 109.526 41.528C112.214 41.528 114.902 41.048 117.494 39.992ZM104.63 30.776C102.71 32.312 101.75 35.768 103.862 38.264C105.014 37.208 106.07 36.152 107.318 35.576C108.47 35.096 108.47 36.536 107.894 37.112C107.222 37.784 106.646 38.456 105.974 39.224L105.494 39.8C105.782 39.992 106.358 40.568 106.934 40.856C107.51 41.144 108.182 41.336 108.47 41.336C111.35 38.264 112.31 26.36 104.63 30.776ZM108.182 41.72C107.894 41.72 107.222 41.432 106.646 41.144C106.07 40.856 105.494 40.376 105.206 40.184C105.11 40.28 104.726 40.76 104.246 41.528C103.286 43.064 102.326 44.312 102.038 45.656C101.942 46.712 102.518 47.384 103.958 46.424C105.398 45.56 106.55 44.024 107.51 42.68L108.182 41.72ZM128.634 31.064C131.61 31.352 128.73 35.096 125.274 35.288C121.242 35.768 116.73 47.384 120.09 47.384C121.338 47.48 122.01 46.712 123.066 45.944C126.33 43.352 130.17 41.816 134.106 39.704C134.586 39.416 135.066 39.608 134.394 39.992C130.266 42.2 125.754 44.12 122.394 46.904C121.626 47.576 120.666 47.768 119.706 47.672C116.634 47.096 116.826 42.392 117.786 40.472C119.706 36.536 123.45 30.2 128.634 31.064ZM128.442 31.832C127.194 32.12 126.234 33.176 125.37 34.136L124.794 34.712C124.122 35.384 127.194 34.712 128.346 33.656C129.114 33.176 130.554 31.448 128.442 31.832ZM156.475 40.76C155.803 41.432 154.939 42.008 154.171 42.584C150.427 45.272 144.187 53.336 140.635 56.12C135.931 60.536 134.683 54.968 136.603 51.032C137.947 48.248 142.651 42.2 140.347 39.992C139.963 39.512 139.387 40.088 139.003 40.952C138.811 41.432 136.795 45.464 136.027 44.984C133.819 44.504 134.683 42.872 135.067 42.296C136.411 40.376 138.043 38.744 139.291 36.92C140.731 34.232 135.643 39.128 134.491 39.896C133.243 40.664 133.435 40.088 134.491 39.512C136.219 38.168 139.099 35 141.595 35.384C143.419 35.672 140.347 38.744 140.827 38.744C143.899 37.688 146.683 34.616 148.411 31.736C148.411 31.736 148.795 31.736 148.891 31.928C147.355 34.424 145.339 36.92 142.747 38.36C142.363 38.552 140.923 39.224 140.827 39.32C140.539 39.608 140.923 39.992 141.115 40.376C142.363 43.448 141.019 46.52 140.059 49.688C139.099 51.992 138.427 52.76 137.947 55.16C137.755 57.464 137.467 58.136 141.307 54.68C145.627 51.32 149.947 44.696 155.515 41.048C157.627 39.032 158.395 38.744 156.475 40.76ZM163.412 38.648C162.26 40.088 161.3 41.624 160.148 43.256C158.996 45.08 157.652 43.544 158.708 42.2C160.052 40.184 161.3 38.168 162.644 36.056C163.028 35.384 163.7 33.656 162.356 34.616C160.244 36.056 158.996 38.264 157.268 39.992C156.884 40.376 156.884 39.704 158.612 37.88C159.668 36.728 162.836 33.08 163.796 34.04C164.564 34.808 163.508 37.112 163.22 38.072C164.084 37.496 165.428 36.344 166.388 36.152C168.02 35.96 167.252 37.496 167.156 38.36C166.964 39.128 167.924 38.456 168.308 38.168C172.148 35.48 175.22 32.024 179.54 30.296C182.324 29.144 181.556 32.504 180.596 33.752C177.716 38.36 174.74 42.968 171.86 47.576C166.964 54.968 170.228 59.096 176.756 52.28C178.964 49.688 181.268 47 183.572 44.408C189.812 37.592 189.908 38.168 184.148 44.408C181.94 47 179.828 49.592 177.524 52.184C174.932 55.352 169.172 58.712 167.732 53.336C167.54 52.28 167.732 51.128 168.02 49.976C168.692 47.384 170.132 45.08 171.764 42.776C174.644 38.744 177.14 35.192 179.54 31.544C181.556 27.992 169.268 37.4 167.156 40.184C166.484 40.952 166.004 41.816 165.332 42.488C164.084 43.832 163.124 42.584 163.604 41.816C164.18 40.664 164.948 39.608 165.62 38.456C165.812 38.168 166.1 37.784 166.196 37.304C166.772 35.576 163.7 38.168 163.412 38.648ZM192.621 33.848C193.581 32.984 195.501 33.464 194.349 34.616C192.525 36.92 190.797 39.032 189.261 41.432C188.973 41.912 188.301 43.448 189.453 43.64C191.085 43.544 194.733 39.512 196.269 37.784C197.517 36.248 198.765 34.904 200.109 33.464C202.317 31.064 204.237 31.736 202.605 33.752C200.589 36.152 198.861 38.552 197.229 41.144C196.461 42.584 192.621 49.592 196.557 49.592C200.013 49.496 205.965 43.352 208.365 41.528C212.301 38.168 210.957 39.8 208.845 41.624C205.389 44.504 201.741 48.344 197.709 49.88C193.005 51.224 193.293 44.888 194.061 42.584C194.253 41.624 195.885 38.936 194.061 40.76C193.197 41.528 192.333 42.296 191.373 43.064C190.509 43.832 189.357 44.12 188.781 43.832C184.845 42.104 191.469 34.904 192.621 33.848Z" fill="#B0752A"/>
</svg>
