<svg width="117" height="46" viewBox="0 0 117 46" fill="none" xmlns="http://www.w3.org/2000/svg">
<path d="M9.98491 38.44C8.28091 38.392 7.72891 37.336 7.72891 35.992C7.72891 33.856 9.14491 31.048 11.4969 27.04C10.7049 26.68 8.54491 25.672 8.54491 24.208C8.54491 24.04 8.56891 23.872 8.64091 23.68C8.97691 25.12 10.5369 25.696 11.8569 26.368C17.4009 17.56 24.3849 9.64003 26.0169 9.64003C26.6889 9.64003 27.4089 10.336 27.4089 10.648C27.4089 10.744 27.3369 10.816 27.1929 10.816C26.4969 10.816 19.5369 17.56 13.8009 26.752C23.1369 27.568 39.8169 16.912 39.8169 7.76803C39.8169 3.68803 36.2889 0.928034 30.6009 0.928034C29.7129 0.928034 28.7769 1.00003 27.7929 1.14403C18.8889 2.44003 9.04891 7.40803 3.36091 13.456C3.02491 13.864 1.94491 14.872 1.94491 15.424C1.94491 15.592 2.01691 15.712 2.23291 15.76C2.54491 15.976 2.16091 16.048 1.77691 16.048C1.56091 16.048 1.36891 16.024 1.32091 15.976C0.912906 15.832 0.744906 15.568 0.744906 15.232C0.744906 13.888 3.67291 11.32 4.12891 10.864C10.3689 5.03203 21.4089 0.232033 29.4489 0.136034C35.6649 0.112033 41.7369 2.60804 41.7369 8.58403C41.7369 16.792 26.5449 27.712 15.7929 27.712C14.9529 27.712 14.1369 27.664 13.3689 27.544C11.7369 30.376 10.0089 33.112 9.26491 36.28C9.14491 36.712 9.07291 37.048 9.07291 37.312C9.07291 38.584 10.3209 38.032 9.98491 38.44ZM37.0575 27.808C36.7455 27.808 35.9775 27.28 35.9775 26.848C35.9775 26.776 35.9775 26.68 36.0015 26.608C36.2895 24.856 37.6095 22.168 38.3535 20.944C38.6175 20.512 39.6975 20.632 40.0095 20.92C40.1535 21.04 40.1535 21.16 40.0815 21.304C39.9375 21.496 39.7935 21.784 39.6975 21.952C39.2655 22.672 38.6655 24.088 38.0895 25.744C38.6415 25.12 39.2415 24.496 39.7455 23.872C40.7775 22.624 41.7855 21.4 42.7935 20.152C43.1775 19.696 43.8495 19.672 44.2335 20.152C44.9775 21.088 45.1695 21.52 45.6975 22.168C46.1775 22.744 46.9695 22.984 47.9535 23.008C49.1775 23.032 50.4735 23.008 51.9135 22.528C51.9615 22.528 52.0335 22.504 52.1055 22.504C52.1295 22.504 52.1535 22.528 52.1775 22.528C52.2015 22.576 52.1775 22.6 52.1535 22.624C51.9135 22.84 51.6255 22.984 51.3135 23.08C50.5695 23.344 48.7695 23.752 47.8335 23.728C46.6815 23.704 45.4575 23.152 44.4015 22.216C44.0655 21.904 43.7535 21.568 43.4415 21.232C43.2495 20.992 42.9375 21.256 42.7215 21.496C42.4335 21.784 40.7055 23.824 39.9855 24.664C39.3855 25.336 38.0895 26.992 37.5375 27.544C37.3695 27.688 37.2735 27.808 37.0575 27.808ZM64.8939 15.352C64.5339 15.52 64.3419 15.52 64.5339 15.184C65.0139 14.368 65.6139 12.832 65.8299 11.656C65.9019 11.368 65.9739 11.248 66.2859 11.32C66.7179 11.416 67.2459 11.872 67.1739 12.544C67.1259 13.192 65.8779 14.824 64.8939 15.352ZM50.5179 45.952C49.1979 45.952 48.7899 44.992 48.7899 43.888C48.7899 41.968 50.3979 39.664 51.8859 38.128C53.8539 36.088 56.1819 34.432 58.1739 32.512C59.3019 30.304 63.2859 21.736 63.2859 19.24C63.2859 18.952 63.1419 18.808 62.8299 18.808C60.7659 18.808 54.6699 19.96 53.4219 22.792C53.9259 23.464 54.0699 24.328 54.0459 24.856C53.9979 26.008 52.4379 27.712 51.3819 28.288C51.1179 28.408 50.8059 28.456 50.5419 28.456C50.1579 28.432 49.7979 28.288 49.4619 28.12C48.8139 27.88 48.5739 27.352 48.6219 26.776C48.7179 25.816 49.1739 24.856 49.4619 24.328C50.9019 21.928 52.0059 21.448 52.4859 21.472C52.7499 21.472 52.8939 21.592 53.1099 21.688C55.0059 19.312 60.5739 18.376 62.6619 18.376C63.0699 18.376 63.3099 18.424 63.4539 18.472C64.2459 18.712 64.5339 19.192 64.5339 19.768C64.5339 20.56 63.0459 25.552 60.9339 30.424C62.7819 28.864 64.6059 27.352 66.4299 25.792C67.3419 25.024 68.2299 24.232 69.1179 23.44C69.2139 23.344 69.3339 23.248 69.4299 23.176C69.4779 23.152 69.5259 23.104 69.5499 23.152C69.5979 23.176 69.5499 23.224 69.5259 23.272C68.9979 23.896 68.3979 24.496 67.7979 25.072C65.3739 27.472 62.8539 29.824 60.1899 32.008C58.9419 34.6 57.5979 37.144 56.1339 39.64C55.0299 41.488 53.8299 43.24 52.4139 44.872C52.0059 45.328 51.2859 45.952 50.5179 45.952ZM49.9899 27.544C51.2379 27.952 53.0619 25.6 53.0619 24.616C53.0619 23.8 52.4859 23.488 52.3419 23.488C51.9579 23.464 49.9899 26.248 49.9899 27.544ZM50.2779 45.328C50.9499 45.328 51.8859 43.648 52.7739 42.352C54.0939 40.432 55.6299 37.336 57.0939 34.552C55.6779 35.728 54.2859 36.952 52.9899 38.248C51.4779 39.76 49.7739 42.088 49.7739 44.08C49.7739 44.728 49.8699 45.328 50.2779 45.328ZM71.5106 28.984C69.4946 28.864 67.9826 27.544 67.9826 25.696C67.9826 24.448 68.6546 22.984 70.3106 21.496C71.1746 20.824 72.3506 20.128 73.5266 20.152C74.2226 20.176 75.1346 20.56 75.1346 21.28C75.1346 21.472 75.0866 21.688 74.9426 21.904C74.2226 23.032 71.8466 24.424 69.7586 25.072C69.5906 25.48 69.4946 25.936 69.4946 26.392C69.4946 27.496 70.1186 28.48 71.7746 28.36C73.7426 28.264 77.3666 25.888 81.2786 23.488C81.4706 23.368 81.8306 23.248 81.6386 23.44C81.1826 23.896 74.8946 29.056 71.5106 28.984ZM70.0466 24.28C71.2946 23.704 72.5906 23.104 73.6226 22.12C73.9106 21.856 74.1746 21.4 74.1746 21.088C74.1746 20.92 74.0786 20.824 73.8866 20.824C73.6946 20.824 73.4066 20.896 72.9986 21.136C71.6786 21.808 70.7666 22.96 70.0466 24.28ZM94.4351 30.856C93.4511 30.856 92.8991 29.608 92.8991 27.592C92.8991 24.784 94.8671 21.304 96.4991 18.448C92.6351 21.52 86.2751 27.376 82.4831 27.376C81.4991 27.376 80.5391 27.088 80.1791 26.2C80.0831 25.912 80.0351 25.576 80.0351 25.24C80.0351 23.056 82.3631 20.224 84.4031 20.224C84.8591 20.224 85.3391 20.32 85.8431 20.536C86.1551 20.608 86.5631 20.968 86.5631 21.328C86.5631 21.472 86.4911 21.592 86.3231 21.712C86.0351 21.832 85.7711 21.208 85.4591 21.136C83.8031 20.92 81.4751 24.04 81.4751 25.72C81.4751 26.32 81.6431 26.56 82.2191 26.56C84.5951 26.56 90.1391 22.84 91.7951 21.448C93.6431 19.936 95.7551 18.472 97.4591 16.816C97.6511 16.552 98.2271 15.76 98.9951 14.68C95.1311 15.088 91.2431 15.616 87.6431 16.12C87.0431 16.216 86.1791 16.36 85.2431 16.264C85.0271 16.312 83.4431 15.856 83.4671 15.472C83.4671 15.4 83.5391 15.328 83.6591 15.28C84.0191 15.328 84.3791 15.352 84.7391 15.376C85.2431 15.4 85.7711 15.424 86.2991 15.352C90.6911 14.728 95.1311 14.248 99.5711 13.912C102.091 10.552 106.027 5.60803 107.539 5.60803C107.923 5.60803 108.043 6.01603 108.043 6.30403C108.043 7.12003 105.763 9.11203 104.419 10.624C102.787 12.352 101.995 13.12 101.419 13.768C102.787 13.672 104.179 13.6 105.547 13.528C108.475 13.456 111.451 13.072 114.403 13.288C115.099 13.36 116.443 13.864 116.419 14.296C116.395 14.488 116.155 14.656 115.555 14.728C109.987 15.4 105.019 15.616 106.387 15.352C107.707 15.088 110.155 14.704 113.131 14.032C109.339 13.888 105.115 14.104 100.843 14.512C99.2591 16.72 94.3151 24.088 93.9071 28.96C93.8831 29.296 93.9071 30.424 94.4351 30.424C94.4831 30.424 94.5791 30.424 94.6511 30.376C94.9631 30.28 95.2271 30.064 95.4911 29.896C95.7071 29.776 95.8511 29.992 95.6831 30.184C95.2751 30.64 94.8431 30.856 94.4351 30.856ZM102.82 29.488C102.484 29.488 102.172 29.416 101.884 29.296C101.356 29.104 100.972 28.768 101.092 28.336C101.644 26.824 104.404 25.312 105.028 24.784C105.028 23.536 103.348 22.84 103.348 21.664C103.348 21.544 103.348 21.4 103.396 21.28C103.684 20.056 105.676 18.88 107.116 18.88C107.74 18.88 108.268 19.096 108.508 19.624C108.148 19.864 107.644 19.744 107.212 19.888C106.228 20.152 105.34 21.016 105.052 21.856C105.028 21.928 105.028 22.024 105.028 22.096C105.028 22.816 105.844 23.32 106.228 23.968C107.044 23.392 108.364 22.72 109.132 22.36C109.924 22 109.612 22.36 108.1 23.464C107.812 23.68 107.044 24.184 106.612 24.544C107.116 26.176 106.372 27.496 105.436 28.408C104.788 29.008 103.756 29.488 102.82 29.488ZM102.484 28.648C103.012 28.648 104.476 27.64 105.052 25.936C105.052 25.888 105.028 25.864 105.028 25.84C102.988 27.328 102.316 28.192 102.316 28.504C102.316 28.6 102.388 28.648 102.484 28.648Z" fill="#B0752A"/>
</svg>
