<svg width="460" height="152" viewBox="0 0 460 152" fill="none" xmlns="http://www.w3.org/2000/svg">
<path d="M161.25 0.25V2.625C147.583 2.625 118.125 10.1875 72.875 25.3125C30.0833 43.7708 6.58333 58.5 2.375 69.5C2.375 74.0417 12.3333 79.2292 32.25 85.0625C47.5417 93.5208 55.8958 101.479 57.3125 108.938H59.75L58.5 106.562V63.5625C58.5 59.3958 58.1042 52.625 57.3125 43.25L59.75 42.0625L60.9375 44.4375V81.5C60.9375 94.5 62.125 110.021 64.5 128.062L62.125 129.25C60.0833 126.583 57.2917 119.021 53.75 106.562C49.875 97.1875 34.3542 88.0208 7.1875 79.0625C2.39583 77.1042 0 73.5208 0 68.3125V64.75C16.2083 49.6667 42.875 34.9375 80 20.5625C95.375 14.1875 122.458 7.41667 161.25 0.25ZM114.062 28.625H117.562C119.896 29 121.062 30.1667 121.062 32.125C115.812 34.625 104.104 60.9375 85.9375 111.062L101.75 97.0625C104.083 97.3958 105.25 98.5625 105.25 100.562V102.312L103.5 112.812C105.25 117.521 107 119.875 108.75 119.875L133.312 104.062V105.812C122.271 117.521 113.5 123.375 107 123.375C102.333 123.375 100 116.938 100 104.062C97.2083 104.854 89.0208 114.208 75.4375 132.125H73.6875V130.375L114.062 28.625ZM149.562 90.875H151.625C152.667 90.875 153.729 91.9375 154.812 94.0625V101.5C151.979 111.958 150.562 117.604 150.562 118.438C151.646 121.271 152.708 122.688 153.75 122.688H158C163.667 118.938 168.271 116.458 171.812 115.25C165.146 122.333 159.125 125.875 153.75 125.875C150.25 125.083 148.5 122.25 148.5 117.375C142.75 124.458 139.562 128 138.938 128H135.75C134.625 128 133.208 126.583 131.5 123.75V120.562C133.292 100.771 139.312 90.875 149.562 90.875ZM137.875 104.688V109.938C139.292 112.771 141.417 114.188 144.25 114.188C149.875 108.146 152.688 102.5 152.688 97.25V94.0625C147.438 94.0625 144.271 95.8333 143.188 99.375C141.271 99.375 139.5 101.146 137.875 104.688ZM134.688 111L133.625 118.438C134.333 123.396 135.396 125.875 136.812 125.875C138.146 125.625 140.979 122.438 145.312 116.312C142.312 116.312 138.771 114.542 134.688 111ZM176.312 91.25H181.5V93C181.5 95.7083 177.479 103.188 169.438 115.438V117.125C182.354 105.625 189.833 99.875 191.875 99.875L193.562 103.312C192.438 109.562 191.875 114.75 191.875 118.875C191.875 120.5 193.583 122.229 197 124.062C201.625 124.062 209.104 122.896 219.438 120.562H221.188V122.312C212.312 125.771 204.25 127.5 197 127.5C190.125 127.5 186.688 122.896 186.688 113.688C187.812 111.688 188.375 109.375 188.375 106.75C186.625 106.75 177.438 114.812 160.812 130.938H159.062C159.062 128.729 164.812 115.5 176.312 91.25ZM246.562 47.6875C246.562 49.4375 238.375 71.25 222 113.125C236.542 97.375 246.083 88.2917 250.625 85.875H254.75C247.083 91.1667 238 99.7917 227.5 111.75V114.5C227.5 116.583 229.771 117.938 234.312 118.562C235.438 118.562 239.979 118.125 247.938 117.25C249.688 118.125 251.042 118.562 252 118.562V119.938C249.958 119.938 248.146 120.396 246.562 121.312L243.812 119.938C240.229 120.854 237.062 121.312 234.312 121.312C231.396 121.312 227.75 119.5 223.375 115.875C217.25 129.5 213.625 136.312 212.5 136.312H209.75V134.938C223.375 101.521 234.729 72.4375 243.812 47.6875H246.562ZM328.25 33.9375L330 37.375C325.458 52.2083 323.188 64.125 323.188 73.125C325.438 73.5 326.562 74.6458 326.562 76.5625C336.188 72.5208 349.25 58.3125 365.75 33.9375H367.5V35.625C360.667 53.125 348.729 91.7708 331.688 151.562C329.396 151.562 328.25 150.417 328.25 148.125C338.5 119.5 347.042 89.3958 353.875 57.8125C340.625 72.5625 330.958 79.9375 324.875 79.9375C321.458 78.8125 319.75 75.4167 319.75 69.75V68.0625C321.792 45.3125 324.625 33.9375 328.25 33.9375ZM377.812 91.75C383.896 91.75 388.854 95.6042 392.688 103.312C386.271 119.771 375.833 128 361.375 128H358.062C355.562 128 353.917 125.25 353.125 119.75C357.167 102.167 363.75 93.375 372.875 93.375C372.875 92.2917 374.521 91.75 377.812 91.75ZM367.938 98.3125L372.875 104.938C366.292 107.146 363 109.333 363 111.5V113.188L367.938 119.75H364.688L359.688 116.438L358.062 119.75V121.438C358.062 123.604 359.708 124.688 363 124.688C371.958 124.688 380.208 118.646 387.75 106.562C386.333 101.062 384.688 98.3125 382.812 98.3125H367.938ZM411.812 83.625H415.938C415.938 85.0417 410.458 96.0208 399.5 116.562L398.125 124.75V127.5H400.875C407.583 122.625 416.271 112.104 426.938 95.9375H428.312V97.3125C422.812 108.854 420.062 116.188 420.062 119.312C420.354 121.104 421.271 122 422.812 122L429.688 120.625V122C429.688 122.917 427.854 124.292 424.188 126.125C419.604 126.125 417.312 122.479 417.312 115.188C407.604 126.146 401.667 131.625 399.5 131.625C397.708 130.708 396.333 130.25 395.375 130.25V124.75C395.375 119.208 400.854 105.958 411.812 85V83.625ZM455.75 29.4375H459.188C453.854 48.3542 448.896 73.9583 444.312 106.25H442C445.833 79.75 450.417 54.1458 455.75 29.4375ZM437.438 122.25H440.875V124.562C440.875 126.312 438.958 127.458 435.125 128L434 125.688C434 124.604 435.146 123.458 437.438 122.25Z" fill="#415064"/>
</svg>
