<svg width="454" height="108" viewBox="0 0 454 108" fill="none" xmlns="http://www.w3.org/2000/svg">
<path d="M44.672 98.688C40.448 98.56 37.44 93.312 37.44 86.912C37.44 83.584 38.4 80.256 39.616 76.544C47.808 52.288 66.496 32.448 66.496 19.52C66.496 18.24 66.304 17.088 65.92 15.936C51.648 18.944 37.696 24.192 23.36 27.456C19.136 28.416 15.296 28.8 12.096 28.672C5.184 28.416 0.96 25.856 0.96 21.952C0.96 18.56 4.224 14.08 11.904 9.216C20.224 3.904 31.744 0.959999 42.432 1.28C52.736 1.66399 62.336 5.12 67.456 12.864C94.336 6.784 121.472 3.584 132.352 3.77599C136.832 3.84 139.904 4.48 140.224 6.208C132.416 10.432 122.432 12.928 113.472 14.336L113.28 13.696C120.192 11.392 129.344 9.088 136.128 6.144C124.672 6.39999 100.928 8.256 82.304 12.608C68.16 32.192 57.408 47.936 47.872 68.288C44.544 74.944 41.28 85.12 41.28 91.392C41.28 94.592 42.112 96.832 44.352 96.896C46.464 96.896 49.92 94.912 55.104 89.792C51.392 96.32 47.744 98.816 44.672 98.688ZM10.432 26.56C14.976 26.752 22.528 25.408 33.728 21.888C44.032 18.816 54.4 16 64.768 13.312C59.392 6.016 51.84 3.072 44.032 2.81599C25.344 2.17599 4.544 16.384 4.544 23.104C4.544 25.152 6.336 26.496 10.432 26.56ZM69.312 23.808C72.192 19.84 73.216 18.432 76.672 13.568C72.128 14.528 70.912 14.656 68.672 15.36C69.76 17.728 69.952 20.864 69.312 23.808ZM69.464 79.744C67.864 79.808 67.16 78.976 67.16 77.504C67.16 73.728 73.816 62.016 75.224 59.2C77.592 54.4 104.984 11.776 113.624 11.328C114.264 11.264 114.84 11.52 115.224 11.904C115.416 12.096 115.48 12.352 115.544 12.608C115.8 17.536 96.088 38.976 86.488 48.768C80.792 57.92 75.672 67.008 72.536 73.664C75.352 70.976 85.336 60.288 88.28 60.288C90.648 60.288 91.544 61.76 92.184 63.488C93.208 66.176 93.272 68.608 94.488 71.296C95.32 73.024 96.152 73.536 98.2 73.536C103.32 73.536 110.168 69.312 114.392 66.048C114.904 65.664 115.48 65.152 116.056 64.704C116.184 64.64 116.248 64.576 116.376 64.64C116.568 64.768 116.376 64.896 116.376 64.96C116.056 65.728 115.544 66.368 115.032 66.944C113.88 68.288 112.408 69.44 110.936 70.464C107.224 72.832 103.064 75.264 99.352 75.264C96.472 75.264 92.952 74.624 90.712 71.616C89.56 70.016 88.856 67.008 88.472 64.128C88.28 62.656 88.152 61.888 86.488 63.232C79.32 69.056 76.632 73.088 73.624 76.352C72.088 78.016 70.424 79.744 69.464 79.744ZM91.544 40.96C100.632 30.656 112.536 16.384 113.368 13.312C108.696 16.64 99.992 28.096 91.544 40.96ZM116.799 75.008C112.959 74.752 111.487 73.216 111.487 71.104C111.487 66.24 119.424 58.56 123.776 57.792C124.288 57.664 124.864 57.536 125.376 57.536C127.232 57.536 129.792 58.24 131.456 59.456C132.736 57.408 134.08 56.768 135.104 56.768C137.088 56.768 137.792 57.856 138.304 61.76C138.816 65.792 138.816 70.528 140.48 70.528C143.232 70.528 154.368 59.008 161.664 54.208C162.88 53.312 164.032 52.8 165.12 52.8C165.696 52.8 166.336 52.928 166.912 53.248C168.32 53.824 168.832 54.912 168.832 56.256C168.832 58.752 166.912 62.08 166.336 63.616C163.968 69.12 163.136 71.04 163.648 71.04C164.224 71.04 164.672 70.464 165.504 69.76C172.672 63.04 176.64 60.672 179.52 60.672C183.743 60.672 184.704 66.624 188.416 71.232C188.992 72 189.696 72.384 190.528 72.384C192.448 72.384 195.84 70.016 196.288 69.76C203.328 65.536 209.6 59.456 209.6 60.288C209.6 60.48 209.28 60.992 208.512 61.952C204.736 66.688 194.624 73.664 191.424 73.728C183.743 73.92 181.951 66.432 180.416 63.808C179.904 63.04 179.776 62.272 179.264 62.272C179.007 62.272 177.984 62.848 177.216 63.296C171.008 67.264 167.552 71.744 163.648 74.24C163.008 74.56 162.304 74.688 161.472 74.624C159.296 74.56 158.336 73.28 158.336 71.36C158.336 67.264 162.752 60.48 164.224 56.704C164.48 56.064 164.608 55.552 164.608 55.232C164.608 54.528 163.456 54.976 162.24 55.872C157.056 59.712 145.408 72.96 139.904 72.96C134.208 72.96 134.08 65.984 133.696 59.648C122.816 70.848 120.256 75.008 116.799 75.008ZM118.464 72.384C122.624 69.376 126.336 64.448 129.792 60.928C129.6 60.416 128.704 60.032 128.256 60.032C127.232 60.032 125.76 60.928 125.248 61.248C122.176 62.848 117.632 67.84 116.608 71.296C116.096 72.832 116.672 73.6 118.464 72.384ZM205.911 79.36C204.503 80.384 200.791 79.36 200.663 77.248C200.535 75.136 200.919 73.152 201.751 70.72C203.415 66.496 205.655 62.592 208.087 58.816C213.655 50.176 219.799 42.304 227.223 35.136C230.167 32.256 232.727 30.144 236.311 28.16C236.951 27.776 237.655 27.584 238.359 27.776C239.255 27.968 238.871 29.056 237.911 30.528C236.503 32.768 234.647 34.624 232.855 36.288C232.151 36.864 231.319 37.504 230.615 38.016C229.911 38.528 229.271 38.4 228.311 37.824C217.495 48.96 209.239 61.504 205.271 73.728C204.567 75.84 204.631 77.12 206.935 74.624C211.159 70.272 223.511 57.664 229.975 57.664C231.255 57.664 232.343 57.792 233.367 58.496C233.559 58.56 233.751 58.752 233.687 58.944C233.623 59.2 233.431 59.264 233.239 59.328C232.215 59.648 231.191 59.904 230.167 60.224C225.751 61.568 222.231 64.512 218.455 67.136C219.479 70.336 222.807 76.8 227.671 76.8C232.151 76.8 239.383 72.576 243.607 69.312C244.119 68.928 244.695 68.416 245.271 67.968C245.399 67.904 245.463 67.84 245.591 67.904C245.783 68.032 245.591 68.16 245.591 68.224C245.271 68.992 244.759 69.632 244.247 70.208C243.095 71.552 241.623 72.704 240.151 73.728C236.439 76.096 231.703 78.336 227.991 78.336C224.471 78.336 221.463 76.864 218.839 73.856C217.687 72.576 216.599 71.168 215.767 69.632C213.335 71.744 211.223 74.176 208.983 76.544C208.023 77.568 207.063 78.528 205.911 79.36ZM281.3 107.584C272.98 107.584 260.884 103.232 260.884 97.92C260.884 96.448 262.036 96.384 262.996 96.32C263.252 100.16 272.532 104.96 280.084 104.96C312.084 104.96 343.828 51.072 343.828 22.784C343.828 21.376 343.7 20.16 343.444 19.2C343.444 18.944 343.316 18.816 343.124 18.816C340.564 18.816 324.948 36.672 323.988 37.568C308.628 54.144 298.836 65.92 287.508 74.432C283.988 77.056 280.788 78.016 278.1 78.016C273.748 78.016 270.804 75.392 270.356 73.088C270.164 72.448 270.1 71.744 270.1 70.912C270.1 62.912 278.932 47.168 280.596 43.2C280.98 42.496 281.428 41.728 281.3 40.832C280.852 30.912 295.956 1.216 303.636 1.216C304.212 1.216 304.724 1.408 305.172 1.728C306.068 2.048 306.388 2.688 306.388 3.45599C306.388 5.632 304.084 9.02399 303.636 10.24C301.204 15.04 298.58 19.648 296.084 24.32C289.94 35.584 275.284 63.232 274.9 71.04C274.772 74.624 275.412 75.776 276.692 75.776C277.588 75.776 278.804 75.2 280.276 74.56C292.884 67.84 310.548 46.464 317.332 39.744C324.5 32.192 335.316 20.032 339.476 17.664C340.628 17.152 341.716 16.896 342.612 16.896C346.26 16.896 347.86 20.736 347.86 24.448C347.86 24.896 347.86 25.344 347.796 25.792C346.58 59.136 312.148 107.584 281.3 107.584ZM286.036 32.512C291.092 23.872 295.892 15.104 300.82 6.528C300.82 6.39999 300.756 6.336 300.756 6.272C294.356 11.264 284.884 32.896 286.036 32.512ZM358.591 77.632C356.479 77.632 354.687 76.544 354.047 74.944C353.855 74.432 353.791 73.92 353.791 73.344C353.791 68.928 357.951 63.552 360.191 61.568C361.535 60.224 363.327 60.032 364.415 58.304C368.959 53.504 384.639 48.832 389.631 48.576C391.231 48.512 392.639 49.216 392.639 51.072C392.767 54.848 383.871 65.728 382.591 71.68C382.271 73.28 382.719 74.304 385.151 73.28C386.815 72.576 393.215 67.648 394.879 65.728C396.543 63.936 398.911 59.328 400.959 59.328C401.279 59.328 401.599 59.456 401.919 59.712C402.175 59.968 402.175 60.288 401.919 60.608C398.143 65.728 396.543 70.144 396.543 72.768C396.543 74.56 397.375 75.456 399.231 75.456C408.127 75.264 417.791 67.584 415.615 69.824C411.519 74.048 405.567 76.672 401.407 76.672C396.159 76.672 392.639 73.984 393.663 69.376C390.015 72.576 386.815 75.392 383.551 75.456C381.503 75.456 378.943 74.048 378.623 71.68C378.239 67.136 384.639 58.24 387.647 53.312C388.351 52.096 389.055 51.136 389.055 50.56C389.055 49.344 368.447 54.848 366.271 59.904C366.399 60.48 367.167 60.48 367.167 61.12C367.167 61.888 365.951 61.888 365.375 62.272C366.655 64.448 367.423 65.152 367.423 67.52C367.423 72.448 361.791 77.632 358.591 77.632ZM358.975 75.776C363.391 73.088 365.055 69.184 365.055 66.752C365.055 65.792 364.735 64.64 363.775 63.36C361.023 67.072 358.399 71.36 357.631 75.2C357.503 75.776 357.375 76.736 358.975 75.776ZM427.076 58.432C426.82 58.88 426.372 58.88 426.436 58.368C426.884 55.872 429.828 49.536 429.7 49.472C434.628 37.952 439.428 29.632 445.124 21.632C445.06 21.568 444.996 21.568 444.996 21.504C437.764 28.288 436.932 31.936 435.972 30.72C435.78 30.4 435.78 30.144 436.036 29.824C440.132 23.936 447.876 15.168 449.732 14.08C451.588 13.568 453.572 14.336 452.932 15.744C451.012 20.48 447.876 23.872 445.444 28.096C438.98 38.144 433.028 48.576 427.076 58.432ZM419.268 79.808C415.556 79.04 415.876 77.12 418.308 75.136C419.652 74.24 422.404 74.368 423.172 75.776C423.044 76.032 422.788 76.16 422.532 76.224C420.42 76.544 422.724 78.016 421.636 79.232C421.124 79.936 420.1 80 419.268 79.808Z" fill="#415064"/>
</svg>
