<svg width="390" height="104" viewBox="0 0 390 104" fill="none" xmlns="http://www.w3.org/2000/svg">
<path d="M54.528 39.808C52.416 40.48 50.112 40.768 48 41.536C47.424 41.728 47.04 41.632 46.752 42.016C42.144 52.096 27.456 73.312 15.36 71.68C13.44 71.584 11.424 70.624 11.616 68.896C13.44 59.872 35.328 44.512 43.104 41.92C43.68 41.728 44.16 41.344 44.448 40.768C50.592 26.944 33.12 31.072 22.656 39.232C19.584 41.632 20.736 40.576 18.24 43.168C17.184 44.416 16.32 45.664 15.36 46.912C10.56 53.248 7.2 60.064 3.264 66.784C2.4 68.128 0 68.224 0.864 66.4C12.288 45.376 27.456 24.736 41.376 5.056C29.376 4.096 18.336 2.17599 8.832 9.568C5.376 12.16 4.896 15.136 4.512 18.688C4.416 19.072 4.032 19.072 4.032 18.784C3.84 13.312 7.2 8.896 12.384 6.784C21.504 2.56 25.248 3.424 36.384 4.192C38.88 4.288 38.688 4.384 41.376 4.48C42.72 4.576 43.296 1.31199 44.736 1.888L46.368 2.464C45.792 3.136 45.408 3.712 44.928 4.576C55.968 4.48 65.088 4.768 75.168 0.735996C75.84 0.543999 76.224 0.447994 76.992 0.543999L76.896 0.735996C75.456 1.408 73.824 1.888 72.48 2.272C62.304 5.44 56.928 4.672 47.136 5.248C46.368 5.248 44.832 4.768 44.448 5.44C35.52 16.672 27.456 30.016 19.872 40.576C24.864 35.776 34.848 31.36 41.568 30.88C46.848 30.496 50.208 32.992 47.136 41.056C53.568 39.52 55.008 39.328 54.528 39.808ZM43.392 42.496C33.12 45.088 2.208 70.528 15.264 71.2C18.72 71.2 19.872 70.72 23.04 69.376C30.72 65.44 39.744 49.888 43.392 42.496ZM55.0087 47.296C54.6247 46.144 55.4887 43.936 56.9288 44.8C58.1768 45.472 55.8727 47.104 56.4488 47.872C56.7368 48.16 57.0248 47.968 57.3128 47.776C58.1768 47.2 59.1367 46.528 59.8088 45.76C62.2088 43.264 64.8968 41.152 67.4888 39.04C68.6407 38.176 69.9848 37.6 71.3288 37.12C72.0968 36.832 76.5128 35.488 74.4008 37.696C71.3288 41.344 68.1608 45.856 65.4728 50.368C60.3848 58.144 64.0328 62.08 70.3688 55.84C72.8648 52.96 76.6088 49.024 79.2008 46.912C80.1608 46.048 81.2168 45.472 82.3688 44.896C84.8648 44.032 82.7528 45.088 81.8888 45.568C80.9288 45.856 80.2568 46.528 79.4888 47.104C77.3768 48.544 69.8888 57.088 68.6407 57.76C65.2808 60.16 62.4008 59.68 61.8248 55.84C61.4408 53.536 62.3047 51.04 63.4568 49.024C64.6088 46.816 69.6008 39.616 70.9448 37.792C70.1768 37.792 68.3528 39.04 67.7768 39.424C64.9928 41.44 62.3047 43.744 60.0008 46.24C59.2328 46.912 58.3688 47.584 57.5048 48.16C56.0648 49.12 55.2007 48.16 55.0087 47.296ZM84.6945 47.584C83.5425 47.968 82.8705 47.68 82.6785 46.528C82.3905 44.416 84.5985 42.688 85.7505 41.728C88.2465 39.904 91.3185 39.712 91.4145 41.632C91.4145 41.728 91.6065 41.536 92.1825 41.056C93.0465 40.384 93.3345 39.808 94.2945 39.04C94.8705 38.56 96.5025 38.944 95.8305 40C92.6625 43.84 89.3985 47.584 87.4785 52.288C86.0385 57.376 91.3185 53.056 93.8145 51.328C96.4065 49.312 98.9985 47.296 101.879 45.76C104.855 44.224 105.239 44.224 103.223 45.568C100.919 46.624 99.6705 47.488 97.8465 48.832C95.5425 50.368 93.2385 52.192 90.9345 53.728C85.0785 57.856 85.2705 51.424 86.9025 47.968C87.1905 47.392 87.4785 46.624 87.8625 46.048C86.8065 46.528 85.6545 47.296 84.6945 47.584ZM88.4385 41.248C86.9985 42.88 85.3665 44.608 84.1185 46.432C83.8305 46.912 83.7345 47.776 84.6945 47.296C87.5745 46.144 89.1105 44.512 90.7425 42.4C91.7985 40.672 89.6865 39.904 88.4385 41.248ZM111.361 53.728C107.521 55.168 106.561 51.904 107.617 49.216C109.249 44.8 115.969 40.768 118.081 38.176C119.905 35.776 116.353 36.832 115.585 37.408C110.785 40.384 104.065 45.28 103.873 45.088L103.681 44.896C106.465 43.456 111.457 39.52 114.049 37.984C115.393 37.12 117.121 36.256 118.753 36.256C120.001 36.256 121.249 36.64 120.865 37.696C120.097 40.864 107.233 49.696 109.729 52.672C110.401 53.536 112.609 52.768 114.721 51.616C118.849 49.408 122.785 47.104 126.529 44.704L126.625 44.992C121.729 48.448 116.833 51.232 111.361 53.728ZM141.635 44.992C144.227 43.744 142.403 45.28 141.155 45.568C139.234 46.336 137.315 46.624 135.395 46.816C134.531 46.912 133.763 47.008 132.803 46.816C131.555 48.736 129.923 50.656 128.099 51.904C126.947 52.672 125.026 52.48 124.45 51.232C123.874 49.216 125.41 46.432 126.562 45.088L127.619 43.648C125.218 40.192 126.562 35.104 131.171 34.528C136.259 33.952 135.971 42.304 132.995 46.432C133.187 46.432 133.379 46.528 133.667 46.528C136.355 46.528 139.043 46.048 141.635 44.992ZM128.771 35.776C126.851 37.312 125.89 40.768 128.003 43.264C129.155 42.208 130.211 41.152 131.459 40.576C132.611 40.096 132.611 41.536 132.035 42.112C131.363 42.784 130.787 43.456 130.115 44.224L129.635 44.8C129.923 44.992 130.499 45.568 131.075 45.856C131.651 46.144 132.323 46.336 132.611 46.336C135.491 43.264 136.451 31.36 128.771 35.776ZM132.323 46.72C132.035 46.72 131.363 46.432 130.787 46.144C130.211 45.856 129.635 45.376 129.347 45.184C129.251 45.28 128.867 45.76 128.387 46.528C127.427 48.064 126.466 49.312 126.178 50.656C126.082 51.712 126.659 52.384 128.099 51.424C129.539 50.56 130.691 49.024 131.651 47.68L132.323 46.72ZM148.838 46.144C148.454 46.528 147.302 47.584 147.014 47.872C143.846 51.04 139.814 52.864 141.35 48.16C141.638 47.488 141.83 46.912 142.022 46.336C142.598 44.8 143.174 43.84 144.23 42.784C144.998 42.016 145.862 41.152 146.726 40.384C147.398 39.808 148.262 39.328 149.03 38.848C149.99 38.464 152.198 38.464 151.91 40.192C151.814 41.248 151.334 40.576 151.43 40.192C151.334 39.616 150.854 39.328 150.374 39.616C150.086 39.808 149.798 40 149.51 40.288C147.686 42.016 145.766 43.84 144.422 46.144C143.942 46.816 143.366 47.584 142.982 48.256C142.694 48.736 141.83 51.04 143.078 50.272C143.942 49.696 144.902 49.216 145.67 48.544C146.726 47.584 147.686 46.528 148.646 45.472C151.526 42.496 154.022 39.328 156.998 36.544C157.958 35.296 159.11 36.352 158.438 37.12C156.998 39.136 155.558 41.152 154.118 43.168C153.542 44.032 152.87 44.8 152.198 45.664C151.238 47.2 150.182 48.832 149.222 50.368C149.03 50.752 148.262 52 148.358 52.096C149.606 52.096 159.782 46.144 160.742 45.472C163.622 43.648 162.95 45.088 160.646 46.048C157.286 48.256 154.31 49.696 151.142 51.424C150.182 51.904 149.222 52.384 148.262 52.864C147.878 53.056 147.494 53.344 147.302 53.728C145.094 56.992 142.886 60.256 140.678 63.52C139.142 65.92 137.51 68.32 135.974 70.72C134.63 72.64 133.382 74.656 132.038 76.576C129.542 79.744 127.43 83.296 124.934 86.56C123.494 88.576 121.766 90.4 120.134 92.32C119.558 92.992 118.982 93.664 118.31 94.336C117.542 95.2 116.774 96.064 115.91 96.832C114.662 98.08 113.51 99.232 112.166 100.384C111.206 101.248 110.054 101.728 108.806 102.016C108.23 102.112 107.846 101.824 107.558 101.536C104.966 98.944 106.118 94.912 106.982 91.84C107.654 89.056 108.71 86.368 110.15 83.872C112.55 79.84 114.95 75.808 118.118 72.448C119.078 71.392 120.038 70.336 121.19 69.376C124.838 66.4 128.102 63.04 132.23 60.64C134.726 59.104 137.318 57.664 139.91 56.224C140.87 55.648 141.926 55.264 142.886 54.784C143.27 54.592 143.558 54.304 143.75 54.016C144.902 52.288 146.054 50.464 147.206 48.736C147.398 48.448 147.59 48.256 147.782 47.968C148.166 47.296 149.222 46.24 148.838 46.144ZM142.886 55.264C142.598 55.264 141.734 55.744 141.446 55.84C140.87 56.128 140.294 56.416 139.718 56.704C138.086 57.76 136.358 58.72 134.726 59.68C133.766 60.256 132.902 60.64 132.038 61.216C130.502 62.08 120.806 70.24 119.654 71.296C119.078 71.968 118.502 72.544 117.926 73.216C117.062 74.272 116.198 75.328 115.43 76.384C111.782 81.856 102.662 96.64 108.038 101.248C108.998 102.208 111.398 99.904 111.878 99.328C113.702 97.408 115.526 95.392 117.254 93.376C119.078 91.072 120.998 88.768 122.726 86.368C125.51 82.24 128.294 78.112 130.982 73.984C132.518 71.584 133.958 69.184 135.494 66.784C137.606 63.328 139.91 59.872 142.118 56.416C142.214 56.224 142.79 55.456 142.886 55.264ZM164.007 47.584C162.855 47.968 162.183 47.68 161.991 46.528C161.703 44.416 163.911 42.688 165.063 41.728C167.559 39.904 170.631 39.712 170.727 41.632C170.727 41.728 170.919 41.536 171.495 41.056C172.359 40.384 172.647 39.808 173.607 39.04C174.183 38.56 175.815 38.944 175.143 40C171.975 43.84 168.711 47.584 166.791 52.288C165.351 57.376 170.631 53.056 173.127 51.328C175.719 49.312 178.311 47.296 181.191 45.76C184.167 44.224 184.551 44.224 182.535 45.568C180.231 46.624 178.983 47.488 177.159 48.832C174.855 50.368 172.551 52.192 170.247 53.728C164.391 57.856 164.583 51.424 166.215 47.968C166.503 47.392 166.791 46.624 167.175 46.048C166.119 46.528 164.967 47.296 164.007 47.584ZM167.751 41.248C166.311 42.88 164.679 44.608 163.431 46.432C163.143 46.912 163.047 47.776 164.007 47.296C166.887 46.144 168.423 44.512 170.055 42.4C171.111 40.672 168.999 39.904 167.751 41.248ZM180.02 54.88C181.747 52.96 183.188 51.808 184.148 50.464C187.22 46.144 190.1 41.248 193.364 36.16C190.676 38.368 185.972 42.976 183.188 44.992L183.091 44.704C186.164 42.208 189.908 38.56 192.98 35.584C194.516 34.048 195.572 32.128 196.724 30.496C197.299 29.632 198.164 27.808 199.028 28.192C199.604 28.384 198.548 30.688 198.356 31.168C196.916 33.76 195.572 36.256 194.132 38.752C193.268 40.192 192.596 41.344 191.828 42.688L189.812 46.336C191.54 44.896 193.46 43.36 195.284 42.016C196.436 41.152 198.164 39.616 199.7 39.04C201.044 38.56 202.1 39.328 201.812 40.384C201.428 41.728 198.452 46.336 197.299 47.104C197.108 47.2 198.74 47.008 199.22 47.008C201.716 46.72 205.652 46.048 207.764 45.184C209.204 44.416 210.548 44.8 208.34 45.28C205.556 46.24 201.332 47.296 198.356 47.296C197.876 47.296 197.492 47.392 197.012 47.392C196.916 47.392 196.724 47.584 196.532 47.776C195.38 48.832 188.18 54.112 189.908 50.272C190.772 49.024 192.404 48.064 193.844 47.392C194.612 47.008 195.188 46.432 195.38 46.144C195.956 45.472 202.388 37.792 198.548 40.096C196.82 41.152 194.612 43.072 192.98 44.224C191.828 45.088 190.964 46.048 190.004 46.816C189.62 47.2 189.236 47.584 188.852 47.968C186.26 50.944 183.956 55.072 181.939 58.336C175.219 69.28 163.891 89.152 158.227 96.16C155.347 99.904 149.011 103.456 151.027 95.872C154.099 84.544 168.403 68.032 180.02 54.88ZM162.163 77.344C156.691 84.544 151.507 92.992 151.219 97.888C151.027 101.824 154.675 98.944 156.115 96.832C164.659 83.68 171.475 70.528 179.443 57.952L183.188 52.192C176.467 59.008 167.635 70.048 162.163 77.344ZM194.42 47.584C192.692 48.064 190.196 49.792 190.004 50.56C189.332 52.096 194.132 48.832 194.42 47.584ZM215.888 40.096C216.752 40.768 218.096 40.768 219.248 39.808C222.128 37.6 224.816 32.128 223.088 32.896C219.824 34.336 215.023 38.848 215.888 40.096ZM222.224 40.384C221.264 40.096 220.4 39.616 219.92 40.096C219.536 40.48 218.96 40.864 218.48 41.248C216.752 42.976 214.736 44.416 212.72 46.144C211.952 46.912 209.84 47.968 208.88 47.008C208.303 46.432 208.111 45.664 208.111 45.088C208.111 43.936 210.704 42.976 210.416 44.128C210.128 45.28 209.84 45.856 209.84 46.72C209.84 47.392 210.896 46.816 211.568 46.336C213.584 44.896 215.888 42.976 217.904 40.96C217.616 40.96 217.328 40.96 216.752 40.96C215.023 40.96 213.68 39.808 214.544 38.08C215.984 34.912 219.056 32.8 222.512 32.32C223.664 32.128 224.528 32.896 223.952 34.048C223.088 36.064 221.648 37.792 220.496 39.52C223.664 40.096 224.24 40.672 222.224 43.552C220.496 46.432 218.48 49.024 216.752 51.904C215.6 53.632 214.736 55.648 213.872 57.376C213.584 58.528 213.296 59.392 214.448 60.256C215.312 61.12 216.464 60.544 217.328 59.968C220.496 57.088 223.952 54.208 227.408 51.328C229.424 49.312 232.88 46.24 235.184 44.224C235.184 44.512 235.472 44.512 235.472 44.8C235.472 44.8 234.031 46.144 233.744 46.432C230 49.888 226.544 53.056 222.799 56.224C221.072 57.664 219.632 59.104 217.904 60.256C216.752 61.12 215.312 61.696 213.872 60.832C212.432 59.68 212.144 58.24 212.432 56.512C213.296 52.192 215.312 48.736 218.192 45.28C219.344 43.84 220.784 42.112 222.224 40.384ZM306.041 20.32C311.225 21.088 314.681 25.408 314.777 30.112V31.36C314.969 31.456 315.449 31.36 316.025 31.264C317.273 30.976 318.617 30.688 319.769 30.208C321.305 29.44 322.937 28.384 324.473 27.52C324.473 27.616 324.665 27.616 324.665 27.808C321.977 29.824 319.577 30.976 316.601 31.648L314.873 32.032C314.681 32.128 314.681 32.992 314.585 33.568C312.281 50.656 299.417 64.096 285.497 71.68C278.681 75.232 271.097 77.248 263.32 77.056C253.24 76.96 250.456 65.152 255.544 56.608C259.48 48.448 265.912 43.456 273.497 39.904C277.529 37.696 281.849 36.064 286.265 35.104C287.129 34.912 287.705 34.336 288.281 33.664C290.297 30.592 291.929 28.096 294.137 25.216C296.825 21.184 299.897 17.248 302.777 13.408C303.929 11.776 305.465 10.336 306.617 8.8C307.385 7.84 307.769 6.976 306.521 8.032C296.536 17.824 278.393 18.496 270.521 29.056C269.849 30.112 269.369 29.248 270.041 28.768C272.825 25.312 276.665 22.72 280.889 20.704C291.545 16.096 303.065 12.256 310.553 3.712C311.129 2.944 312.089 3.136 311.417 4C309.689 6.784 307.001 10.912 305.369 13.408C306.041 13.12 306.425 12.736 307.097 12.352C309.785 10.72 312.953 8.032 315.737 7.744C318.713 7.36 316.217 11.392 315.161 12.64C312.185 15.904 309.401 18.016 306.041 20.32ZM305.465 20.704C304.025 21.184 302.777 21.472 301.433 21.76C300.377 21.952 300.857 21.28 301.913 20.896C303.161 20.128 304.601 19.456 305.945 18.688C309.209 16.576 311.993 13.792 314.585 10.912C315.161 10.336 317.273 7.744 315.257 8.224C313.529 8.608 311.801 9.664 310.361 10.624C306.809 13.12 303.929 15.808 301.241 19.168C300.089 20.416 299.225 21.856 298.169 23.296C295.673 27.136 292.889 30.688 290.777 34.432C291.257 34.432 291.833 34.24 292.312 34.24C298.841 33.568 305.273 32.608 311.897 31.84L312.953 31.648C313.049 31.456 313.049 31.072 313.049 30.688C312.761 26.944 312.953 21.76 305.465 20.704ZM287.033 35.296C286.649 35.296 286.265 35.392 285.977 35.488C281.657 36.64 278.105 38.272 274.648 39.904C270.617 41.728 266.872 43.936 263.704 46.816C260.536 49.696 257.944 53.152 255.928 56.992C251.896 63.808 252.76 76.096 263.032 76.288C270.137 76.864 277.625 74.56 283.769 70.72C292.505 65.824 299.129 58.432 305.081 50.656C309.209 45.376 311.321 39.52 312.665 33.088L312.857 32.32C312.473 32.416 312.377 32.32 311.993 32.416C305.273 33.184 298.841 33.952 292.025 34.72L290.489 34.912C290.201 35.2 289.817 35.776 289.529 36.256C283.577 45.568 277.625 54.592 271.673 63.616C270.425 65.44 268.505 64.576 269.177 63.52C275.129 54.208 281.369 44.608 287.033 35.296ZM329.543 38.848C330.503 37.984 332.423 38.464 331.271 39.616C329.447 41.92 327.719 44.032 326.183 46.432C325.895 46.912 325.223 48.448 326.375 48.64C328.007 48.544 331.655 44.512 333.191 42.784C334.439 41.248 335.687 39.904 337.031 38.464C339.239 36.064 341.159 36.736 339.527 38.752C337.511 41.152 335.783 43.552 334.151 46.144C333.383 47.584 329.543 54.592 333.479 54.592C336.935 54.496 342.887 48.352 345.287 46.528C349.223 43.168 347.879 44.8 345.767 46.624C342.311 49.504 338.663 53.344 334.631 54.88C329.927 56.224 330.215 49.888 330.983 47.584C331.175 46.624 332.807 43.936 330.983 45.76C330.119 46.528 329.255 47.296 328.295 48.064C327.431 48.832 326.279 49.12 325.703 48.832C321.767 47.104 328.391 39.904 329.543 38.848ZM355.115 46.816L354.539 46.72C356.747 40.192 381.323 10.912 385.547 8.992C385.547 8.992 389.099 9.856 389.195 10.048C383.819 14.368 357.515 40.096 355.115 46.816ZM354.155 52.576C354.731 50.752 353.963 49.984 351.851 51.424C347.915 55.072 353.579 53.824 354.155 52.576Z" fill="#415064"/>
</svg>
