<svg width="517" height="152" viewBox="0 0 517 152" fill="none" xmlns="http://www.w3.org/2000/svg">
<path d="M89.9375 0.296875H90.9219V1.23438C47.1094 13.4219 19.3281 26.8437 7.57812 41.5C6.29688 41.5 5.65625 40.8594 5.65625 39.5781C21.8125 22.9531 49.9062 9.85938 89.9375 0.296875ZM26.75 28.0938H27.6875V46.2812H28.6719C36.8906 43.0938 44.5469 41.5 51.6406 41.5C63.1406 41.5 68.8906 44.375 68.8906 50.125C68.8906 55.0312 56.4375 65.5625 31.5312 81.7188L23.8438 86.5V85.5625C23.8438 84.9062 25.125 83.625 27.6875 81.7188C26.4062 61.2812 25.125 51.0625 23.8438 51.0625C10.4375 58.2812 3.73438 63.7031 3.73438 67.3281H0.875V65.4062C3.59375 61.4062 11.5781 55.3438 24.8281 47.2188C25.4531 46.0938 25.7656 44.8125 25.7656 43.375V33.8125L24.8281 29.0312L26.75 28.0938ZM27.6875 52C27.6875 64.3125 28.9688 73.2656 31.5312 78.8594C47.9688 69.4844 59.4531 60.2188 65.9844 51.0625L66.9688 49.1406C65.7812 45.2969 60.3594 43.375 50.7031 43.375C35.3594 45.2812 27.6875 48.1562 27.6875 52ZM98.4219 52.7969H101.234V54.2031C101.234 57.6719 97.9688 63.7188 91.4375 72.3438V79.3281H94.25C96.0625 79.3281 106.766 74.6719 126.359 65.3594C111.828 76.5469 100.656 82.1406 92.8438 82.1406H91.4375L85.8594 77.9219C85.8594 79.2969 82.5938 82.5625 76.0625 87.7188H71.8906V86.3125L73.2969 79.3281H80.2812C83.5 78.6719 88.1562 70.7656 94.25 55.6094L98.4219 52.7969ZM131.891 53.875H137.094C138.156 53.875 139.531 55.25 141.219 58V64.1875C138.469 71.75 137.094 75.8906 137.094 76.6094C138.406 77.2969 139.438 77.6406 140.188 77.6406L158.75 69.3438V70.4219C148.938 76.6094 142.406 79.7031 139.156 79.7031C138.625 79.7031 136.547 79.3594 132.922 78.6719C130.547 82.7969 127.109 84.8594 122.609 84.8594C120.703 82.6406 119.328 79.8906 118.484 76.6094C118.484 65.9219 122.953 58.3438 131.891 53.875ZM123.641 68.3125V72.4844C123.859 73.8594 124.547 74.5469 125.703 74.5469H127.766C131.203 73.4531 134.312 69.3125 137.094 62.125H139.156V60.0625C139.156 59.0938 138.125 58.0625 136.062 56.9688C131.562 56.9688 127.422 60.75 123.641 68.3125ZM125.703 76.6094L121.578 74.5469V76.6094L122.609 81.7656H123.641C127.891 81.7656 131.344 79.0156 134 73.5156H132.922C130.422 75.5781 128.016 76.6094 125.703 76.6094ZM166.953 53.3125C170.141 54.0938 171.734 56.4844 171.734 60.4844L163.391 79.6094C183.547 73.2344 195.094 70.0469 198.031 70.0469H202.812V71.2188C199.438 71.2188 186.297 74.8125 163.391 82H161C159.406 82 158.609 81.2031 158.609 79.6094C164.984 69.9844 168.172 63.6094 168.172 60.4844V56.875H166.953C164.047 56.875 160.469 58.4688 156.219 61.6562H155C155 59.0625 158.984 56.2812 166.953 53.3125ZM222.406 54.1562H223.578C226.672 55.6875 228.219 58 228.219 61.0938C224.562 68.4062 217.594 75.375 207.312 82H201.547C199.984 77.1875 199.203 73.3125 199.203 70.375C206.016 59.5625 213.75 54.1562 222.406 54.1562ZM203.844 76.1875V77.3594L205.016 79.6562C210.234 77.9375 216.812 72.5312 224.75 63.4375V58.7969L220.109 57.625C209.266 62.6562 203.844 68.8438 203.844 76.1875ZM246.688 54.0156H248.047C249.484 54.0156 251.281 57.1562 253.438 63.4375C253.438 64.9062 250.281 70.2969 243.969 79.6094C243.094 81.1094 242.656 83.3594 242.656 86.3594V91.75C249.312 89.9688 253.797 89.0781 256.109 89.0781C256.109 90.6406 251.172 92.875 241.297 95.7812C225.297 123.656 213.609 137.594 206.234 137.594C204.953 137.594 203.609 136.25 202.203 133.562V130.844C202.203 120.156 214.328 107.125 238.578 91.75L239.938 82.3281H235.906C231.406 82.3281 228.703 80.5312 227.797 76.9375C232.516 61.6562 238.812 54.0156 246.688 54.0156ZM243.969 59.4062L242.656 66.1562V72.9062H243.969C245 72.9062 247.25 70.2031 250.719 64.7969C249.812 63.2344 249.359 61.4375 249.359 59.4062H243.969ZM237.266 62.125C233.672 69.0312 231.875 73.5156 231.875 75.5781V76.9375C232.156 78.7188 233.047 79.6094 234.547 79.6094H235.906C237.188 79.6094 238.531 78.2656 239.938 75.5781V62.125H237.266ZM207.594 132.203C208.5 132.203 208.953 132.656 208.953 133.562C215.766 130.094 224.297 119.312 234.547 101.219V99.8594H231.875C215.688 109.422 207.594 120.203 207.594 132.203ZM267.078 53.875H272.281C273.344 53.875 274.719 55.25 276.406 58V64.1875C273.656 71.75 272.281 75.8906 272.281 76.6094C273.594 77.2969 274.625 77.6406 275.375 77.6406L293.938 69.3438V70.4219C284.125 76.6094 277.594 79.7031 274.344 79.7031C273.812 79.7031 271.734 79.3594 268.109 78.6719C265.734 82.7969 262.297 84.8594 257.797 84.8594C255.891 82.6406 254.516 79.8906 253.672 76.6094C253.672 65.9219 258.141 58.3438 267.078 53.875ZM258.828 68.3125V72.4844C259.047 73.8594 259.734 74.5469 260.891 74.5469H262.953C266.391 73.4531 269.5 69.3125 272.281 62.125H274.344V60.0625C274.344 59.0938 273.312 58.0625 271.25 56.9688C266.75 56.9688 262.609 60.75 258.828 68.3125ZM260.891 76.6094L256.766 74.5469V76.6094L257.797 81.7656H258.828C263.078 81.7656 266.531 79.0156 269.188 73.5156H268.109C265.609 75.5781 263.203 76.6094 260.891 76.6094ZM316.156 41.7344C321.844 41.7344 325.344 45.625 326.656 53.4062C326.656 62.125 317.719 72.2188 299.844 83.6875V82.5625C316.938 69.5312 325.484 59.4219 325.484 52.2344C325.484 47.7969 320.828 45.0781 311.516 44.0781C281.984 51.4531 267.219 60.7812 267.219 72.0625H266.047C264.484 72.0625 263.703 71.2812 263.703 69.7188V66.2031C276.359 53.8594 289.578 46.4844 303.359 44.0781C306.391 42.5156 310.656 41.7344 316.156 41.7344ZM297.5 59.2188L299.844 60.3906C296.75 76.4531 293.641 106.766 290.516 151.328H289.344V147.812C291.688 100.75 294.406 71.2188 297.5 59.2188ZM348.828 51.5312C351.078 51.5312 352.203 53.0312 352.203 56.0312L343.203 85.3281V90.9531C341.703 90.9531 340.953 90.2031 340.953 88.7031V86.4531C340.953 82.6406 342.078 76.625 344.328 68.4062C331.266 77.4375 324.5 81.9531 324.031 81.9531H320.656V79.7031C329.062 77.0156 337.703 71 346.578 61.6562L344.328 62.7812H343.203C341.703 62.7812 340.953 62.0312 340.953 60.5312V59.4062C340.953 54.1562 343.578 51.5312 348.828 51.5312ZM344.328 56.0312V59.4062C348.016 57.4375 349.891 55.9375 349.953 54.9062H347.703C346.234 55.6562 345.109 56.0312 344.328 56.0312ZM429.5 15.1094H430.531C439.688 15.9844 444.266 19.5 444.266 25.6562C443.578 32.0625 437.953 39.4375 427.391 47.7812C438.641 47.7812 444.266 50.9375 444.266 57.25C444.266 62.5938 435.828 71.0312 418.953 82.5625C418.297 82.5625 415.141 83.6094 409.484 85.7031C408.109 85.0156 407.047 84.6719 406.297 84.6719V83.5938C409.109 83.5938 411.578 62.875 413.703 21.4375C412.984 21.4375 412.625 21.0781 412.625 20.3594C399.906 24.6719 389.719 30.2969 382.062 37.2344H381.031V35.125C398.156 21.7812 414.312 15.1094 429.5 15.1094ZM415.812 22.4688V33.0156C415.812 36.5469 415.453 41.8125 414.734 48.8125H416.844C423.625 48.8125 431.703 42.1406 441.078 28.7969V25.6562C441.078 20.0312 437.219 17.2188 429.5 17.2188C420.375 18.2187 415.812 19.9688 415.812 22.4688ZM411.594 82.5625H412.625C431.594 73.3125 441.078 64.5312 441.078 56.2188C441.078 52 437.562 49.8906 430.531 49.8906H428.422C418.609 50.8281 413.703 52.9375 413.703 56.2188C412.297 70.9688 411.594 79.75 411.594 82.5625ZM463.203 53.5938V57.1562C454.922 67.0625 450.781 74.1562 450.781 78.4375H452.562C456.688 78.4375 464.969 72.5156 477.406 60.6719C477.406 61.8594 478 62.4531 479.188 62.4531L473.844 71.3594V76.6562H475.625C478.156 76.6562 485.844 74.8906 498.688 71.3594C498.688 74.8906 489.812 78.4375 472.062 82C469.719 79.125 468.547 76.75 468.547 74.875H466.766L456.078 82H450.781C448.406 82 447.219 80.8125 447.219 78.4375C453.281 61.875 458.609 53.5938 463.203 53.5938ZM513.969 8.07812H516.547C512.547 22.2656 508.828 41.4688 505.391 65.6875H503.656C506.531 45.8125 509.969 26.6094 513.969 8.07812ZM500.234 77.6875H502.812V79.4219C502.812 80.7344 501.375 81.5938 498.5 82L497.656 80.2656C497.656 79.4531 498.516 78.5938 500.234 77.6875Z" fill="#415064"/>
</svg>
