<svg width="383" height="149" viewBox="0 0 383 149" fill="none" xmlns="http://www.w3.org/2000/svg">
<path d="M36.568 95.36C35.416 94.08 34.52 93.184 33.112 92.416C31.32 91.776 31.32 92.16 30.68 92.8C29.528 94.464 28.504 95.872 27.352 97.408L26.712 98.304C26.968 98.304 27.608 98.176 27.864 98.048C30.424 97.408 32.6 96.384 36.568 95.36ZM36.824 95.872C36.056 96 33.112 96.768 32.472 97.024C30.424 97.792 28.248 98.304 26.328 99.584C25.688 100.224 24.92 100.864 24.28 101.504C23.64 101.76 21.592 100.992 22.104 100.224C23.384 97.536 25.304 95.232 26.712 93.056C27.352 91.904 27.864 91.648 27.224 91.648C24.28 91.136 21.464 91.008 18.648 90.368C16.472 89.856 14.68 89.088 12.632 88.192C7.128 86.144 3.416 82.048 1.752 76.288C0.6 72.192 0.472 67.968 1.112 63.616C2.008 58.496 3.672 53.76 6.104 49.024C7.256 46.976 8.408 44.8 9.816 42.752C10.968 40.704 12.376 38.784 14.04 36.992C15.704 34.816 17.496 32.768 19.288 30.72C22.104 27.904 25.304 25.6 28.632 23.296C31.832 21.248 35.416 19.456 39 18.048C41.944 16.768 45.144 16.128 48.344 15.744C50.776 15.36 53.208 15.104 55.64 15.104C60.888 15.232 65.624 16.512 69.976 19.072C71.512 20.096 72.28 20.992 73.56 22.144C74.2 22.784 76.248 19.456 76.632 18.944C77.656 18.56 79.32 19.584 79.064 20.224C78.552 21.248 77.4 22.784 76.76 23.808C76.504 24.32 76.76 24.704 77.016 24.96C85.208 35.456 79.576 57.344 74.072 67.2C66.264 81.152 51.544 91.392 37.208 95.616C38.104 97.28 38.104 98.816 38.232 100.096C38.232 100.096 37.72 100.096 37.592 100.096C37.592 98.816 37.336 97.28 36.824 95.872ZM55.64 16.256C51.8 16 48.472 16.64 45.016 17.408C40.792 18.432 36.952 20.352 33.24 22.656C28.12 26.112 23.64 30.08 19.928 34.432C16.088 39.168 12.376 44.032 9.56 49.408C7.896 52.48 6.36 55.68 5.08 59.008C4.184 62.208 3.032 65.408 2.52 68.736C2.008 73.6 2.264 78.08 5.208 82.048C6.616 83.84 8.152 85.248 10.072 86.4C14.04 88.832 17.752 89.728 22.104 90.496C24.024 90.752 26.712 91.136 27.864 91.136C28.248 91.136 30.936 86.656 32.472 84.352C41.176 70.528 59.992 41.984 70.36 27.136C71.512 25.6 73.56 23.04 73.432 22.912C71.384 20.992 69.464 19.456 66.648 18.432C63.064 16.768 59.352 16.256 55.64 16.256ZM76.12 24.96C75.992 24.96 75.48 25.6 75.352 25.856C64.856 41.856 41.944 75.904 32.856 89.856L31.832 91.392C34.392 92.032 35.672 93.44 37.08 95.232C51.416 90.496 66.264 80.64 73.304 67.072C79.192 55.68 84.696 35.584 76.12 24.96ZM103.096 70.656C106.552 68.992 104.12 71.04 102.456 71.424C99.896 72.448 97.336 72.832 94.776 73.088C93.624 73.216 92.6 73.344 91.32 73.088C89.656 75.648 87.48 78.208 85.048 79.872C83.512 80.896 80.952 80.64 80.184 78.976C79.416 76.288 81.464 72.576 83 70.784L84.408 68.864C81.208 64.256 83 57.472 89.144 56.704C95.928 55.936 95.544 67.072 91.576 72.576C91.832 72.576 92.088 72.704 92.472 72.704C96.056 72.704 99.64 72.064 103.096 70.656ZM85.944 58.368C83.384 60.416 82.104 65.024 84.92 68.352C86.456 66.944 87.864 65.536 89.528 64.768C91.064 64.128 91.064 66.048 90.296 66.816C89.4 67.712 88.632 68.608 87.736 69.632L87.096 70.4C87.48 70.656 88.248 71.424 89.016 71.808C89.784 72.192 90.68 72.448 91.064 72.448C94.904 68.352 96.184 52.48 85.944 58.368ZM90.68 72.96C90.296 72.96 89.4 72.576 88.632 72.192C87.864 71.808 87.096 71.168 86.712 70.912C86.584 71.04 86.072 71.68 85.432 72.704C84.152 74.752 82.872 76.416 82.488 78.208C82.36 79.616 83.128 80.512 85.048 79.232C86.968 78.08 88.504 76.032 89.784 74.24L90.68 72.96ZM106.429 79.232C103.997 79.872 101.693 78.208 102.077 75.52C102.461 72.448 103.613 69.76 105.533 67.84C108.221 64.768 110.397 63.616 114.237 62.848C115.773 62.464 118.333 62.464 118.717 64.384C120.637 58.624 123.325 52.352 124.477 46.976C126.013 40.832 126.397 34.304 127.165 28.16C127.933 23.168 129.853 20.096 135.613 20.48C137.533 20.48 139.453 20.864 140.989 21.248C148.669 22.784 155.965 24.32 163.261 23.936C165.565 23.552 167.869 23.168 170.173 22.784C171.709 22.016 173.245 20.864 174.781 20.096C174.781 20.096 174.781 20.096 175.165 20.096C174.397 20.864 173.629 22.016 172.861 22.4C170.941 23.168 168.637 23.936 166.717 24.32C159.037 25.472 151.741 24.32 144.445 22.4C142.141 22.016 139.837 21.632 137.533 21.248C130.237 20.864 128.573 23.04 128.189 29.184C126.653 43.904 123.581 62.464 113.085 74.88C112.701 75.392 111.549 76.672 109.245 77.952C115.005 76.032 126.525 73.216 132.669 70.144C132.285 70.912 132.925 70.656 132.541 71.04C123.069 74.24 108.605 78.72 106.429 79.232ZM104.125 76.928C103.357 78.08 104.125 79.232 106.045 78.592C109.117 77.44 111.421 75.52 113.469 72.96C114.493 71.68 118.589 65.28 117.565 63.616C115.645 62.72 109.245 69.632 107.965 71.168C106.429 73.088 105.277 75.008 104.125 76.928ZM128.151 83.84C130.455 81.28 132.375 79.744 133.655 77.952C137.751 72.192 141.591 65.664 145.943 58.88C142.359 61.824 136.087 67.968 132.375 70.656L132.247 70.272C136.343 66.944 141.335 62.08 145.431 58.112C147.479 56.064 148.887 53.504 150.423 51.328C151.191 50.176 152.343 47.744 153.495 48.256C154.263 48.512 152.855 51.584 152.599 52.224C150.679 55.68 148.887 59.008 146.967 62.336C145.815 64.256 144.919 65.792 143.895 67.584L141.207 72.448C143.511 70.528 146.071 68.48 148.503 66.688C150.039 65.536 152.343 63.488 154.391 62.72C156.183 62.08 157.591 63.104 157.207 64.512C156.695 66.304 152.727 72.448 151.191 73.472C150.935 73.6 153.111 73.344 153.751 73.344C157.079 72.96 162.327 72.064 165.143 70.912C167.063 69.888 168.855 70.4 165.911 71.04C162.199 72.32 156.567 73.728 152.599 73.728C151.959 73.728 151.447 73.856 150.807 73.856C150.679 73.856 150.423 74.112 150.167 74.368C148.631 75.776 139.031 82.816 141.335 77.696C142.487 76.032 144.663 74.752 146.583 73.856C147.607 73.344 148.375 72.576 148.631 72.192C149.399 71.296 157.975 61.056 152.855 64.128C150.551 65.536 147.607 68.096 145.431 69.632C143.895 70.784 142.743 72.064 141.463 73.088C140.951 73.6 140.439 74.112 139.927 74.624C136.471 78.592 133.399 84.096 130.711 88.448C121.751 103.04 106.647 129.536 99.095 138.88C95.255 143.872 86.807 148.608 89.495 138.496C93.591 123.392 112.663 101.376 128.151 83.84ZM104.343 113.792C97.047 123.392 90.135 134.656 89.751 141.184C89.495 146.432 94.359 142.592 96.279 139.776C107.671 122.24 116.759 104.704 127.383 87.936L132.375 80.256C123.415 89.344 111.639 104.064 104.343 113.792ZM147.351 74.112C145.047 74.752 141.719 77.056 141.463 78.08C140.567 80.128 146.967 75.776 147.351 74.112ZM180.199 58.752C184.167 59.136 180.327 64.128 175.719 64.384C170.343 65.024 164.327 80.512 168.807 80.512C170.471 80.64 171.367 79.616 172.775 78.592C177.127 75.136 182.247 73.088 187.495 70.272C188.135 69.888 188.775 70.144 187.879 70.656C182.375 73.6 176.359 76.16 171.879 79.872C170.855 80.768 169.575 81.024 168.295 80.896C164.199 80.128 164.455 73.856 165.735 71.296C168.295 66.048 173.287 57.6 180.199 58.752ZM179.943 59.776C178.279 60.16 176.999 61.568 175.847 62.848L175.079 63.616C174.183 64.512 178.279 63.616 179.815 62.208C180.839 61.568 182.759 59.264 179.943 59.776ZM240.451 72.192C239.939 72.704 238.403 74.112 238.019 74.496C233.795 78.72 228.419 81.152 230.467 74.88C230.851 73.984 231.107 73.216 231.363 72.448C232.131 70.4 232.899 69.12 234.307 67.712C235.331 66.688 236.483 65.536 237.635 64.512C238.531 63.744 239.683 63.104 240.707 62.464C241.987 61.952 244.931 61.952 244.547 64.256C244.419 65.664 243.779 64.768 243.907 64.256C243.779 63.488 243.139 63.104 242.499 63.488C242.115 63.744 241.731 64 241.347 64.384C238.915 66.688 236.355 69.12 234.563 72.192C233.923 73.088 233.155 74.112 232.643 75.008C232.259 75.648 231.107 78.72 232.771 77.696C233.923 76.928 235.203 76.288 236.227 75.392C237.635 74.112 238.915 72.704 240.195 71.296C244.035 67.328 247.363 63.104 251.331 59.392C252.611 57.728 254.147 59.136 253.251 60.16C251.331 62.848 249.411 65.536 247.491 68.224C246.723 69.376 245.827 70.4 244.931 71.552C243.651 73.6 242.243 75.776 240.963 77.824C240.707 78.336 239.683 80 239.811 80.128C241.475 80.128 255.043 72.192 256.323 71.296C260.163 68.864 259.267 70.784 256.195 72.064C251.715 75.008 247.747 76.928 243.523 79.232C242.243 79.872 240.963 80.512 239.683 81.152C239.171 81.408 238.659 81.792 238.403 82.304C235.459 86.656 232.515 91.008 229.571 95.36C227.523 98.56 225.347 101.76 223.299 104.96C221.507 107.52 219.843 110.208 218.051 112.768C214.723 116.992 211.907 121.728 208.579 126.08C206.659 128.768 204.355 131.2 202.179 133.76C201.411 134.656 200.643 135.552 199.747 136.448C198.723 137.6 197.699 138.752 196.547 139.776C194.883 141.44 193.347 142.976 191.555 144.512C190.275 145.664 188.739 146.304 187.075 146.688C186.307 146.816 185.795 146.432 185.411 146.048C181.955 142.592 183.491 137.216 184.643 133.12C185.539 129.408 186.947 125.824 188.867 122.496C192.067 117.12 195.267 111.744 199.491 107.264C200.771 105.856 202.051 104.448 203.587 103.168C208.451 99.2 212.803 94.72 218.307 91.52C221.635 89.472 225.091 87.552 228.547 85.632C229.827 84.864 231.235 84.352 232.515 83.712C233.027 83.456 233.411 83.072 233.667 82.688C235.203 80.384 236.739 77.952 238.275 75.648C238.531 75.264 238.787 75.008 239.043 74.624C239.555 73.728 240.963 72.32 240.451 72.192ZM232.515 84.352C232.131 84.352 230.979 84.992 230.595 85.12C229.827 85.504 229.059 85.888 228.291 86.272C226.115 87.68 223.811 88.96 221.635 90.24C220.355 91.008 219.203 91.52 218.051 92.288C216.003 93.44 203.075 104.32 201.539 105.728C200.771 106.624 200.003 107.392 199.235 108.288C198.083 109.696 196.931 111.104 195.907 112.512C191.043 119.808 178.883 139.52 186.051 145.664C187.331 146.944 190.531 143.872 191.171 143.104C193.603 140.544 196.035 137.856 198.339 135.168C200.771 132.096 203.331 129.024 205.635 125.824C209.347 120.32 213.059 114.816 216.643 109.312C218.691 106.112 220.611 102.912 222.659 99.712C225.475 95.104 228.547 90.496 231.491 85.888C231.619 85.632 232.387 84.608 232.515 84.352ZM278.596 70.656C282.052 68.992 279.62 71.04 277.956 71.424C275.396 72.448 272.836 72.832 270.276 73.088C269.124 73.216 268.1 73.344 266.82 73.088C265.156 75.648 262.98 78.208 260.548 79.872C259.012 80.896 256.452 80.64 255.684 78.976C254.916 76.288 256.964 72.576 258.5 70.784L259.908 68.864C256.708 64.256 258.5 57.472 264.644 56.704C271.428 55.936 271.044 67.072 267.076 72.576C267.332 72.576 267.588 72.704 267.972 72.704C271.556 72.704 275.14 72.064 278.596 70.656ZM261.444 58.368C258.884 60.416 257.604 65.024 260.42 68.352C261.956 66.944 263.364 65.536 265.028 64.768C266.564 64.128 266.564 66.048 265.796 66.816C264.9 67.712 264.132 68.608 263.236 69.632L262.596 70.4C262.98 70.656 263.748 71.424 264.516 71.808C265.284 72.192 266.18 72.448 266.564 72.448C270.404 68.352 271.684 52.48 261.444 58.368ZM266.18 72.96C265.796 72.96 264.9 72.576 264.132 72.192C263.364 71.808 262.596 71.168 262.212 70.912C262.084 71.04 261.572 71.68 260.932 72.704C259.652 74.752 258.372 76.416 257.988 78.208C257.86 79.616 258.628 80.512 260.548 79.232C262.468 78.08 264.004 76.032 265.284 74.24L266.18 72.96ZM314.569 69.888L314.825 70.656C307.785 78.848 303.561 84.48 296.649 89.856C295.625 90.368 294.729 90.88 293.577 91.136C289.737 91.52 287.817 88.704 288.457 84.608C289.097 81.536 290.633 78.464 291.913 75.136C292.169 74.752 292.937 73.216 293.065 72.576C292.937 72.448 292.041 73.216 292.041 73.216C291.529 73.472 290.889 74.112 290.121 74.368C289.097 74.752 288.457 74.752 287.817 73.344C287.561 72.704 287.433 72.32 287.177 72.192C286.921 72.064 285.769 72.064 285.129 72.576C284.361 73.344 283.465 74.368 282.185 75.008C279.753 76.288 278.601 73.728 279.241 71.68C280.137 68.608 281.545 67.456 283.977 64.768C284.745 63.872 286.793 64.384 285.897 66.176C285.257 67.2 279.497 74.24 281.289 74.88C282.569 75.136 286.537 70.528 287.433 69.248C288.841 67.328 290.505 65.92 291.913 64.256C292.681 63.744 295.113 63.872 294.217 65.152C292.553 67.456 290.249 69.376 289.225 71.936C286.921 77.44 294.473 71.168 295.625 69.248C298.569 65.92 301.385 62.464 304.457 59.264C305.225 58.112 308.425 58.624 307.401 60.288C300.873 68.608 291.785 76.928 289.353 86.912C288.713 90.624 292.809 91.264 294.729 90.24C303.305 85.376 307.785 77.44 314.569 69.888ZM313.345 73.728C312.833 72.192 313.985 69.248 315.905 70.4C317.569 71.296 314.497 73.472 315.265 74.496C315.649 74.88 316.033 74.624 316.417 74.368C317.569 73.6 318.849 72.704 319.745 71.68C322.945 68.352 326.529 65.536 329.985 62.72C331.521 61.568 333.313 60.8 335.105 60.16C336.129 59.776 342.017 57.984 339.201 60.928C335.105 65.792 330.881 71.808 327.297 77.824C320.513 88.192 325.377 93.44 333.825 85.12C337.153 81.28 342.145 76.032 345.601 73.216C346.881 72.064 348.289 71.296 349.825 70.528C353.153 69.376 350.337 70.784 349.185 71.424C347.905 71.808 347.009 72.704 345.985 73.472C343.169 75.392 333.185 86.784 331.521 87.68C327.041 90.88 323.201 90.24 322.433 85.12C321.921 82.048 323.073 78.72 324.609 76.032C326.145 73.088 332.801 63.488 334.593 61.056C333.569 61.056 331.137 62.72 330.369 63.232C326.657 65.92 323.073 68.992 320.001 72.32C318.977 73.216 317.825 74.112 316.673 74.88C314.753 76.16 313.601 74.88 313.345 73.728ZM356.766 62.464C358.046 61.312 360.606 61.952 359.07 63.488C356.638 66.56 354.334 69.376 352.286 72.576C351.902 73.216 351.006 75.264 352.542 75.52C354.718 75.392 359.582 70.016 361.63 67.712C363.294 65.664 364.958 63.872 366.75 61.952C369.694 58.752 372.254 59.648 370.078 62.336C367.39 65.536 365.086 68.736 362.91 72.192C361.886 74.112 356.766 83.456 362.014 83.456C366.622 83.328 374.558 75.136 377.758 72.704C383.006 68.224 381.214 70.4 378.398 72.832C373.79 76.672 368.926 81.792 363.55 83.84C357.278 85.632 357.662 77.184 358.686 74.112C358.942 72.832 361.118 69.248 358.686 71.68C357.534 72.704 356.382 73.728 355.102 74.752C353.95 75.776 352.414 76.16 351.646 75.776C346.398 73.472 355.23 63.872 356.766 62.464Z" fill="#B0752A"/>
</svg>
