<svg width="335" height="136" viewBox="0 0 335 136" fill="none" xmlns="http://www.w3.org/2000/svg">
<path d="M18.5534 134.538C15.7033 134.971 10.8173 133.82 10.0012 126.183C9.26677 119.31 14.6829 101.933 19.7254 87.6841C16.1296 88.9695 9.60021 88.7018 7.78242 87.3513C12.3551 87.3775 17.2756 87.0448 20.5031 85.9275C35.5826 44.5389 53.2662 29.3257 62.6321 29.0328C66.7321 28.8521 69.2154 31.6119 69.3801 36.1642C69.588 40.5187 67.534 46.5954 62.664 53.4235C53.7328 68.0232 39.8024 79.8102 25.4008 85.9834C19.1647 101.711 13.2599 119.334 14.2664 128.753C14.552 131.425 15.7359 132.264 17.2632 132.101C28.527 130.898 63.4781 59.8373 75.8238 58.518C78.433 58.2392 81.0144 59.5081 81.5109 64.1536C81.8305 67.1446 81.6046 70.4513 81.5201 72.0695C81.1702 79.6375 80.3614 87.1258 79.8843 94.7075C79.5602 99.505 79.4174 106.6 80.0702 112.71C80.5531 117.228 81.4877 123.564 84.0672 123.611C97.4806 123.851 125.094 56.4066 123.211 38.779C122.231 29.6152 117.846 27.1231 110.955 25.2848C120.835 25.5807 124.654 31.8022 125.565 40.3296C127.469 58.1482 100.992 124.183 86.4189 125.741C85.337 125.856 84.2212 125.654 82.8508 125.478C77.6306 124.813 75.4072 119.065 74.6183 111.683C73.469 100.928 75.4569 87.0063 75.7173 82.2155C76.9411 70.1773 77.3215 67.1115 77.0111 63.6047C76.8367 61.3706 75.955 60.9499 75.0641 61.0451C66.7275 61.9359 31.7857 132.48 18.5534 134.538ZM26.1378 83.845C38.4709 78.7939 49.2009 68.3788 57.2606 57.6697C64.734 46.8946 67.4223 39.5272 67.2849 35.2295C67.1358 32.0272 65.5021 30.5927 63.0635 30.6602C61.0771 30.7438 58.4995 31.9203 55.9035 34.1287C41.1113 47.4881 33.2745 65.704 26.1378 83.845ZM134.816 102.354C129.436 102.607 125.053 99.5352 124.529 94.6351C124.176 91.3259 125.543 87.2536 129.512 82.8389C131.613 80.8122 134.534 78.6335 137.659 78.3639C139.511 78.2303 142.038 78.9901 142.242 80.8992C142.296 81.4083 142.23 81.9946 141.91 82.6082C140.32 85.8032 134.415 90.1674 129.062 92.4773C128.732 93.6067 128.607 94.843 128.736 96.0522C129.049 98.9795 130.982 101.412 135.339 100.624C140.53 99.8122 149.466 92.4852 159.159 85.0129C159.634 84.6403 160.555 84.2201 160.1 84.7836C159.02 86.122 143.809 101.586 134.816 102.354ZM129.601 90.2956C132.747 88.4147 136.013 86.4565 138.471 83.555C139.16 82.7733 139.731 81.4894 139.642 80.6621C139.595 80.2167 139.313 79.9893 138.804 80.0437C138.295 80.0981 137.551 80.3706 136.538 81.1226C133.228 83.2785 131.136 86.5915 129.601 90.2956ZM166.488 98.0681C161.46 98.6053 157.325 95.4429 156.658 89.2064C155.536 78.7062 176.649 39.5691 186.386 38.5287C187.468 38.413 189.127 38.8794 189.256 40.0885C190.031 47.3432 167.092 73.6094 163.675 77.772C162.481 81.0535 161.351 84.3282 160.82 87.7962C160.119 93.2777 161.331 97.3962 166.486 96.8454C173.168 96.1313 184.107 86.4662 190.09 80.4202C192.063 78.4071 193.204 77.6415 193.238 77.9597C193.259 78.1507 192.875 78.771 192.015 79.7639C186.07 86.7713 175.652 97.0888 166.488 98.0681ZM165.717 72.7908C177.842 58.5579 183.821 50.0665 186.898 42.7219C188.226 39.4905 186.495 39.5469 184.669 41.7372C182.048 44.9138 178.428 50.1923 175.561 54.6823C171.812 60.554 168.38 66.3916 165.717 72.7908ZM198.971 92.6659C194.198 93.1759 189.756 90.7542 189.253 86.0451C188.946 83.1814 190.539 77.6046 195.515 74.1764C196.713 73.3404 197.952 72.8862 199.161 72.757C200.624 72.6006 202.136 72.8896 203.638 73.6946C204.653 74.1653 205.442 74.9178 205.691 76.0497C205.776 76.2338 205.789 76.3611 205.81 76.552C205.844 76.8702 205.814 77.1952 205.657 77.5337C205.414 78.2678 204.882 78.7108 204.182 78.7856C203.863 78.8196 203.538 78.79 203.136 78.6399C202.53 78.3829 202.234 78.0283 202.23 77.3851C202.239 76.8692 202.312 76.3465 202.194 75.8442C202.028 74.8964 201.592 74.4281 200.828 74.5097C200.574 74.5369 200.326 74.6278 200.078 74.7186C198.903 75.166 197.953 75.9112 197.087 76.8405C194.779 79.3398 192.33 83.5277 192.67 86.7096C192.895 88.8097 193.874 91.344 197.471 91.2814C201.006 91.2255 207.207 87.2159 210.078 85.1713C215.344 81.4546 219.429 78.1216 224.555 74.2913C224.91 73.9959 225.392 73.6869 225.753 73.4552C225.81 73.3848 225.994 73.3008 226.065 73.3576C226.276 73.5281 226.035 73.6826 225.978 73.753C225.326 74.2733 224.814 74.9072 224.219 75.3571C219.204 79.6261 215.492 83.4341 210.309 87.3349C207.331 89.5841 202.471 92.2918 198.971 92.6659ZM245.36 87.4511C243.641 87.6348 241.821 86.8638 242.121 86.0593C246.34 76.147 251.697 67.8508 252.876 61.4171C252.999 60.7603 252.774 60.4625 252.201 60.5237C244.946 61.299 233.363 67.9435 230.223 73.4925C229.468 74.8605 229.454 76.5355 229.456 77.7582C229.443 80.6559 229.022 83.3399 227.626 85.9349C226.437 88.0573 224.877 89.125 223.287 89.295C222.905 89.3358 222.523 89.3766 222.127 89.2902C221.082 89.1444 220.053 88.5464 219.187 87.6735C218.667 87.0211 218.317 86.1573 218.215 85.2028C218.154 84.63 218.22 84.0437 218.293 83.521C218.746 79.9325 222.818 72.8678 226.255 72.5005C226.764 72.4461 227.223 72.5258 227.702 72.7964C231.868 65.3999 247.938 59.1771 252.011 58.7419C252.711 58.6671 253.297 58.7331 253.826 58.8696C255.472 59.2087 256.16 60.2294 256.323 61.7567C256.759 65.8295 254.819 69.963 251.724 76.5371C257.485 69.6137 261.252 64.5125 266.046 60.5889C266.578 60.1459 267.265 59.9438 267.965 59.869C269.619 59.6922 271.446 60.5268 271.66 61.92C272.175 63.7315 268.534 72.4236 268.813 75.0327C268.867 75.5418 269.028 75.8464 269.474 75.7988C271.701 75.5608 274.447 72.9502 276.893 71.1441C278.439 69.949 280.774 67.7043 281.792 67.5955C282.428 67.5274 282.971 67.7912 283.846 68.1483C285.66 68.8556 286.005 70.8784 286.311 73.7421L286.542 75.9058C286.685 77.2422 287.457 78.4469 289.564 78.2861C294.655 77.7421 301.793 71.0578 305.646 67.3634C306.115 66.9272 306.633 66.3569 307.158 65.8502C307.279 65.7729 307.335 65.7025 307.47 65.7525C307.674 65.8594 307.497 66.0071 307.504 66.0707C307.267 66.8684 306.826 67.5592 306.378 68.1863C305.375 69.6451 304.034 70.947 302.679 72.1216C299.24 74.8706 295.025 78.7967 289.68 79.368C284.589 79.912 282.635 77.2888 282.274 73.916C282.132 72.5796 282.177 71.8023 282.109 71.166C282.048 70.5932 281.866 70.0977 281.421 70.1453C281.23 70.1657 281.046 70.2498 280.748 70.4747C277.777 72.7875 275.024 75.3344 271.46 77.5175C270.73 77.9173 269.987 78.1898 269.287 78.2646C268.46 78.353 267.676 78.2437 266.942 78.0004C265.169 77.6749 264.41 76.5974 264.247 75.0701C263.948 72.27 265.753 68.0865 266.622 64.7754C267.075 62.9892 267.044 62.0914 265.057 63.9772C261.09 67.8125 257.814 72.0888 254.688 75.9629C252.457 78.5827 248.114 86.1269 247.151 86.7448C246.682 87.181 245.996 87.3831 245.36 87.4511ZM222.96 88.0427C225.823 87.7367 228.114 80.8623 227.49 76.2304C224.349 78.7545 222.291 82.3857 221.947 85.1902C221.867 85.6492 221.687 88.1787 222.96 88.0427ZM314.431 82.9663C307.799 83.5463 303.288 80.4883 302.765 75.5882C302.411 72.279 303.778 68.2067 307.747 63.7919C309.848 61.7653 312.769 59.5865 315.894 59.3169C317.746 59.1834 320.273 59.9431 320.477 61.8523C320.532 62.3614 320.466 62.9477 320.145 63.5613C318.555 66.7563 312.65 71.1205 307.297 73.4304C306.967 74.5598 306.842 75.7961 306.971 77.0052C307.284 79.9326 309.183 82.0467 313.574 81.5775C318.665 81.0334 325.019 76.042 328.872 72.3477C329.34 71.9115 329.859 71.3411 330.384 70.8345C330.504 70.7572 330.561 70.6868 330.695 70.7368C330.9 70.8437 330.722 70.9914 330.729 71.055C330.493 71.8527 330.051 72.5435 329.604 73.1706C328.601 74.6294 327.26 75.9313 325.905 77.1059C322.465 79.8549 318.128 82.6355 314.431 82.9663ZM307.836 71.2487C310.982 69.3678 314.249 67.4096 316.706 64.508C317.395 63.7264 317.966 62.4425 317.877 61.6152C317.83 61.1697 317.548 60.9424 317.039 60.9968C316.53 61.0512 315.787 61.3237 314.773 62.0757C311.463 64.2316 309.371 67.5446 307.836 71.2487Z" fill="#B0752A"/>
</svg>
